<svg width="220" height="190" viewBox="0 0 220 190" fill="none" xmlns="http://www.w3.org/2000/svg">
<path d="M6.69844 80.6252C2.99899 70.2174 8.43716 58.7813 18.8449 55.0818L151.39 7.96847C163.093 3.80856 175.718 11.2102 177.805 23.4542L193.701 116.755C195.532 127.501 188.42 137.734 177.71 139.764L54.0203 163.212C44.333 165.048 34.7526 159.551 31.4503 150.26L6.69844 80.6252Z" fill="#DCFCE7"/>
<path d="M67.4966 19.6407L30.4924 89.229L33.0572 90.5869L70.0614 20.9985L67.4966 19.6407Z" fill="#9B7BFF"/>
<path d="M82.9136 16.8564L35.2937 102.225L37.8306 103.634L85.4505 18.2654L82.9136 16.8564Z" fill="#9B7BFF"/>
<path d="M96.9214 19.6024L43.7363 115.419L46.2762 116.823L99.4613 21.0061L96.9214 19.6024Z" fill="#9B7BFF"/>
<path d="M107.534 29.8408L51.1436 124.491L53.6393 125.972L110.03 31.3212L107.534 29.8408Z" fill="#9B7BFF"/>
<path d="M117.797 37.4093L64.1829 134.961L66.7286 136.354L120.343 38.8023L117.797 37.4093Z" fill="#9B7BFF"/>
<path d="M127.575 50.9555L74.9114 137.314L77.3917 138.82L130.056 52.4615L127.575 50.9555Z" fill="#9B7BFF"/>
<path d="M132.124 58.9989L90.9939 139.335L93.5795 140.653L134.709 60.3169L132.124 58.9989Z" fill="#9B7BFF"/>
<path d="M135.039 75.0156L104.636 137.434L107.247 138.701L137.65 76.2819L135.039 75.0156Z" fill="#9B7BFF"/>
<path d="M33.6024 92.7306L31.709 94.9163L85.2278 141.076L87.1212 138.89L33.6024 92.7306Z" fill="#9B7BFF"/>
<path d="M29.3887 72.6023L27.5173 74.8174L103.217 138.49L105.088 136.275L29.3887 72.6023Z" fill="#9B7BFF"/>
<path d="M29.8981 64.4476L28.1584 66.7671L115.883 132.273L117.623 129.954L29.8981 64.4476Z" fill="#9B7BFF"/>
<path d="M33.5486 50.5685L31.7656 52.8447L126.03 126.356L127.812 124.08L33.5486 50.5685Z" fill="#9B7BFF"/>
<path d="M37.3931 43.1353L35.7544 45.5269L133.356 112.109L134.994 109.718L37.3931 43.1353Z" fill="#9B7BFF"/>
<path d="M47.4661 31.0328L45.6782 33.3154L135.45 103.324L137.238 101.041L47.4661 31.0328Z" fill="#9B7BFF"/>
<path d="M56.0037 23.9979L54.271 26.3225L135.486 86.5937L137.219 84.2692L56.0037 23.9979Z" fill="#9B7BFF"/>
<path d="M71.3037 17.7563L69.427 19.9668L135.412 75.7439L137.289 73.5334L71.3037 17.7563Z" fill="#9B7BFF"/>
<path d="M87.1184 19.212L85.2117 21.3967L130.504 60.7513L132.41 58.5665L87.1184 19.212Z" fill="#9B7BFF"/>
<path d="M138.714 83.5451C137.363 42.2602 117.638 9.64216 80.1277 14.476C42.6177 19.2936 8.97355 55.5672 31.0121 103.994C53.0506 152.421 91.1429 141.615 114.16 137.371C137.169 133.126 143.162 143.738 143.162 143.738L144.901 137.371C129.818 117.882 140.064 124.83 138.714 83.537V83.5451ZM105.919 135.2C80.4997 145.158 50.1553 128.486 38.1372 97.9577C26.1272 67.4298 36.9969 34.61 62.416 24.6439C87.8351 14.6858 118.188 31.3579 130.198 61.8859C142.216 92.4219 131.346 125.234 105.927 135.2H105.919Z" fill="#FF57BC"/>
<path d="M135.624 141.43L144.326 131.108L177 169.214L173.911 175L135.624 141.43Z" fill="#002547"/>
<path d="M134.144 122.716C135.39 124.483 133.667 127.848 130.278 130.229C126.898 132.609 123.137 133.11 121.892 131.342C120.646 129.575 122.369 126.218 125.749 123.829C129.138 121.449 132.891 120.949 134.136 122.716H134.144Z" fill="#002547"/>
<path d="M151.152 155.528C153.093 155.277 154.525 153.946 155.714 152.461C157.024 150.831 158.496 148.927 159.143 146.909C159.224 146.659 159.029 145.739 158.625 146.167C157.493 147.353 156.741 149.007 155.803 150.347C154.743 151.864 153.101 154.18 151.12 154.535C150.683 154.616 150.707 155.584 151.144 155.536L151.152 155.528Z" fill="#9B7BFF"/>
<path d="M156.231 157.9C156.797 155.124 157.202 152.074 157.202 149.233C157.202 148.943 156.846 148.66 156.716 149.048C155.827 151.751 155.625 154.947 155.616 157.787C155.616 158.271 156.126 158.417 156.231 157.9Z" fill="#9B7BFF"/>
<path d="M157.388 159.748C160.509 159.256 163.025 155.786 163.566 152.808C163.599 152.647 163.413 152.106 163.178 152.38C161.342 154.519 160.493 157.981 157.355 158.699C156.91 158.804 156.919 159.821 157.38 159.748H157.388Z" fill="#9B7BFF"/>
<path d="M161.019 162.363C163.987 162.653 166.357 159.442 167.368 156.988C167.481 156.714 167.303 156.117 166.931 156.367C164.78 157.828 163.971 161.031 160.995 161.29C160.51 161.33 160.55 162.314 161.019 162.363Z" fill="#9B7BFF"/>
<path d="M164.861 166.22C166.001 164.784 166.074 162.282 165.969 160.523C165.944 160.144 165.556 159.805 165.354 160.289C164.65 161.959 165.378 163.936 164.392 165.55C164.189 165.881 164.481 166.704 164.861 166.228V166.22Z" fill="#9B7BFF"/>
<path d="M163.914 167.334C166.866 167.422 169.171 164.751 170.085 162.177C170.158 161.967 170.02 161.354 169.705 161.62C167.756 163.267 166.599 165.591 163.89 166.156C163.389 166.26 163.372 167.318 163.922 167.334H163.914Z" fill="#9B7BFF"/>
<path d="M167.764 170.384C170.215 169.803 172.01 166.85 173.223 164.84C173.312 164.687 173.28 164.033 172.964 164.211C171.937 164.8 171.242 165.655 170.506 166.559C169.6 167.665 168.589 168.593 167.505 169.529C167.246 169.755 167.335 170.481 167.764 170.376V170.384Z" fill="#9B7BFF"/>
<path d="M170.441 172.151C173.134 172.256 174.752 169.109 175.148 166.842C175.188 166.624 174.962 166.204 174.752 166.511C173.53 168.27 172.633 170.642 170.328 171.215C169.964 171.304 170.053 172.143 170.433 172.16L170.441 172.151Z" fill="#9B7BFF"/>
<path d="M165.403 70.6822C165.403 91.6233 140.008 109.788 122.336 109.788C104.665 109.788 97.532 93.7779 97.532 72.8368C97.532 51.8958 102.878 34.925 120.549 34.925C138.22 34.925 165.411 49.7411 165.411 70.6822H165.403Z" fill="#FFC931"/>
<path d="M106.04 50.4109L116.044 58.5856V62.2735L106.04 58.5856V50.4109Z" fill="white"/>
<path d="M138.746 62.1846C136.846 72.9658 130.505 80.8661 124.585 79.8251C118.665 78.7841 115.405 69.2053 117.298 58.416C119.199 47.6348 125.539 39.7345 131.459 40.7755C137.379 41.8165 140.639 51.3953 138.738 62.1846H138.746Z" fill="white"/>
<path d="M139.765 104.357C143.51 102.308 145.159 97.6594 145.742 93.673C146.453 88.8472 145.014 83.9085 144.084 79.2039C143.073 74.0876 142.183 68.8826 142.717 63.6534C143.34 57.6092 146.753 54.002 150.53 49.6039C150.821 49.265 150.837 47.9093 150.109 48.2159C141.399 51.8958 140.364 63.718 141.261 71.7313C141.795 76.5408 142.943 81.2455 143.914 85.9825C144.529 88.9683 144.698 91.8411 144.157 94.8512C143.526 98.3131 141.488 100.887 139.474 103.639C139.345 103.817 139.425 104.527 139.765 104.341V104.357Z" fill="white"/>
<path d="M116.044 93.9635C113.036 108.973 109.558 99.2653 108.895 97.2156L113.804 66.9055C113.934 67.0024 114.014 67.0669 114.014 67.0669C114.014 67.0669 119.385 77.3397 116.044 93.9796V93.9635Z" fill="white"/>
<path d="M112.267 102.485C110.278 102.485 108.855 98.0709 108.555 97.0784C107.973 96.8766 106.711 96.578 106.056 96.9896C105.781 97.1671 105.636 97.4576 105.603 97.8853C105.579 98.305 105.692 98.6197 105.951 98.8376C106.63 99.4347 108.199 99.2814 108.741 99.1765L108.855 99.7414C108.766 99.7575 106.606 100.177 105.571 99.2733C105.175 98.9263 104.989 98.4502 105.029 97.845C105.07 97.2317 105.304 96.7798 105.749 96.4973C106.857 95.7953 108.822 96.5458 108.903 96.578L109.041 96.6345L109.081 96.7717C109.647 98.7649 111.014 101.896 112.276 101.896C112.284 101.896 112.292 101.896 112.308 101.896C113.012 101.872 114.386 100.79 115.769 93.8989C118.915 78.1951 114.217 68.0998 113.796 67.2364C113.448 66.9862 111.823 65.7273 111.839 64.4442C111.839 63.8955 112.138 63.4194 112.704 63.0401C113.23 62.685 113.747 62.6124 114.249 62.806C115.672 63.379 116.311 66.1389 116.344 66.2518L115.777 66.381C115.616 65.6628 114.985 63.7179 114.039 63.3467C113.723 63.2176 113.4 63.2822 113.036 63.5243C112.631 63.7906 112.429 64.0972 112.429 64.4523C112.421 65.3722 113.707 66.4617 114.2 66.8087L114.257 66.849L114.289 66.9136C114.346 67.0185 119.659 77.4688 116.344 94.0199C115.211 99.6526 113.901 102.421 112.332 102.485C112.316 102.485 112.3 102.485 112.276 102.485H112.267Z" fill="#002547"/>
<path d="M110.981 84.6833L110.909 84.4008L117.104 82.7788L117.177 83.0612L110.981 84.6833Z" fill="#002547"/>
<path d="M109.874 99.4026L109.591 99.3542L114.791 69.2539L115.074 69.3104L109.874 99.4026Z" fill="#002547"/>
<path d="M111.362 101.727L111.079 101.678L115.454 71.3843L115.745 71.4246L111.362 101.727Z" fill="#002547"/>
<path d="M116.508 76.4239L112.258 102.15L112.546 102.197L116.795 76.4711L116.508 76.4239Z" fill="#002547"/>
<path d="M112.041 104.946C118.139 102.913 120.217 95.7792 120.226 89.9044C120.226 89.6139 119.845 89.3153 119.732 89.7188C118.196 95.3676 117.977 101.541 111.928 104.398C111.717 104.503 111.766 105.043 112.041 104.955V104.946Z" fill="#002547"/>
<path d="M103.137 51.7102C106.76 51.8555 108.216 59.3765 108.499 61.8378C110.092 71.6829 107.916 82.8192 104.002 91.938" fill="#FFC931"/>
<path d="M103.08 52.0813C108.208 53.2353 108.426 63.7744 108.531 67.6883C108.766 76.1454 106.129 83.7552 103.743 91.72C103.662 91.9944 103.953 92.7288 104.22 92.2527C108.717 84.312 110.051 73.6841 109.34 64.7186C109.041 61.0226 108.24 51.5487 103.129 51.3308C102.821 51.3147 102.805 52.0168 103.08 52.0813Z" fill="#002547"/>
<path d="M102.376 58.4565C105.943 59.4571 105.498 66.7845 105.199 69.2942C104.568 74.5637 101.915 79.1797 100.799 84.2878C100.735 84.5864 101.082 85.1916 101.341 84.7478C104.665 79.107 106.825 71.2471 106.396 64.7025C106.275 62.8061 105.765 60.7967 104.827 59.1263C104.358 58.2951 103.032 56.4955 102.296 58.0449C102.247 58.1498 102.215 58.4081 102.376 58.4484V58.4565Z" fill="#002547"/>
<path d="M119.732 59.3442C119.732 60.8935 119.247 62.1444 118.657 62.1444C118.066 62.1444 117.581 60.8935 117.581 59.3442C117.581 57.7948 118.058 56.5439 118.657 56.5439C119.255 56.5439 119.732 57.7948 119.732 59.3442Z" fill="#002547"/>
<path d="M116.198 59.3441C116.198 60.5465 115.826 61.5149 115.365 61.5149C114.904 61.5149 114.532 60.5465 114.532 59.3441C114.532 58.1417 114.904 57.1733 115.365 57.1733C115.826 57.1733 116.198 58.1417 116.198 59.3441Z" fill="#002547"/>
<path d="M104.989 48.2884C105.773 52.2749 108.951 55.0267 112.421 56.8263C113.383 57.3266 115.583 58.2546 116.481 57.1329C117.322 56.0919 117.088 54.7765 116.432 53.6952C116.279 53.445 116.069 53.7517 116.085 53.9292C116.335 57.6655 111.992 54.9864 110.44 53.9776C108.248 52.5573 106.258 50.4996 105.425 47.9979C105.28 47.5702 104.932 47.9979 104.989 48.2884Z" fill="#002547"/>
<path d="M121.115 44.4554C122.199 41.0257 126.728 38.4837 130.093 37.7978C131.783 37.4508 133.619 37.5315 135.293 37.8946C137.315 38.3385 138.212 39.6296 139.725 40.7998C140.194 41.1629 140.534 40.485 140.501 40.0896C140.137 35.0944 134.136 33.4966 130.004 34.3359C125.62 35.2235 120.727 39.3633 120.363 44.0035C120.331 44.4554 120.873 45.1897 121.107 44.4554H121.115Z" fill="#002547"/>
<path d="M116.465 32.488C121.269 28.4289 128.669 27.1135 134.775 26.9118C141.949 26.6697 148.427 29.0422 154.573 32.5041C154.856 32.6655 154.889 32.0199 154.727 31.8827C149.26 27.0328 141.932 25.0396 134.726 25.1768C128.612 25.2897 120.314 26.9844 116.198 31.8666C116.028 32.0684 116.133 32.7704 116.457 32.4961L116.465 32.488Z" fill="#002547"/>
<path d="M113.448 31.6809C116.837 24.9023 124.059 21.2628 131.273 20.0927C138.762 18.8822 145.588 20.932 151.896 24.8377C152.236 25.0475 152.365 24.4342 152.187 24.2244C147.028 18.3496 137.856 17.2279 130.553 18.3819C122.886 19.5924 116.198 24.1195 113.1 31.2774C113.003 31.5034 113.286 32.0118 113.456 31.6728L113.448 31.6809Z" fill="#002547"/>
<path d="M95.0895 82.6414C92.7684 90.5578 92.4529 113.347 106.703 107.722C107.035 107.593 106.986 106.835 106.598 106.818C103.913 106.681 101.204 106.657 98.923 105.027C96.8121 103.51 95.9872 100.847 95.5019 98.4259C94.4506 93.1886 95.6637 88.0562 95.5424 82.8189C95.5424 82.5526 95.1946 82.2702 95.0895 82.6495V82.6414Z" fill="#002547"/>
<path d="M91.2155 90.7113C89.8972 97.0703 89.5494 104.365 94.5799 109.272C98.753 113.339 105.619 111.959 110.189 109.457C110.52 109.28 110.464 108.441 110.003 108.57C105.773 109.748 101.381 110.789 97.1679 108.989C90.4067 106.092 90.6817 96.8282 91.5632 90.8566C91.6037 90.5661 91.2802 90.3563 91.2074 90.7194L91.2155 90.7113Z" fill="#002547"/>
</svg>
