<?xml version="1.0" encoding="UTF-8"?>
<svg xmlns="http://www.w3.org/2000/svg" version="1.1" viewBox="0 0 220 190">
  <defs>
    <style>
      .cls-1 {
        fill: #9b7bff;
      }

      .cls-2 {
        fill: #fff;
      }

      .cls-3 {
        fill: #ffc931;
      }

      .cls-4 {
        fill: #ff57bc;
      }

      .cls-5 {
        fill: #002547;
      }
    </style>
  </defs>
  <!-- Generator: Adobe Illustrator 28.6.0, SVG Export Plug-In . SVG Version: 1.2.0 Build 709)  -->
  <g>
    <g id="Capa_1">
      <path class="cls-1" d="M67.5,19.6L30.5,89.2l2.6,1.4L70.1,21l-2.6-1.4Z"/>
      <path class="cls-1" d="M82.9,16.9l-47.6,85.4,2.5,1.4L85.5,18.3l-2.5-1.4Z"/>
      <path class="cls-1" d="M96.9,19.6l-53.2,95.8,2.5,1.4L99.5,21l-2.5-1.4Z"/>
      <path class="cls-1" d="M107.5,29.8l-56.4,94.7,2.5,1.5L110,31.3l-2.5-1.5Z"/>
      <path class="cls-1" d="M117.8,37.4l-53.6,97.6,2.5,1.4,53.6-97.6-2.5-1.4Z"/>
      <path class="cls-1" d="M127.6,51l-52.7,86.4,2.5,1.5,52.7-86.4-2.5-1.5Z"/>
      <path class="cls-1" d="M132.1,59l-41.1,80.3,2.6,1.3,41.1-80.3-2.6-1.3Z"/>
      <path class="cls-1" d="M135,75l-30.4,62.4,2.6,1.3,30.4-62.4-2.6-1.3Z"/>
      <path class="cls-1" d="M33.6,92.7l-1.9,2.2,53.5,46.2,1.9-2.2-53.5-46.2Z"/>
      <path class="cls-1" d="M29.4,72.6l-1.9,2.2,75.7,63.7,1.9-2.2L29.4,72.6Z"/>
      <path class="cls-1" d="M29.9,64.4l-1.7,2.3,87.7,65.5,1.7-2.3L29.9,64.4Z"/>
      <path class="cls-1" d="M33.5,50.6l-1.8,2.3,94.3,73.5,1.8-2.3L33.5,50.6Z"/>
      <path class="cls-1" d="M37.4,43.1l-1.6,2.4,97.6,66.6,1.6-2.4L37.4,43.1Z"/>
      <path class="cls-1" d="M47.5,31l-1.8,2.3,89.8,70,1.8-2.3L47.5,31Z"/>
      <path class="cls-1" d="M56,24l-1.7,2.3,81.2,60.3,1.7-2.3L56,24Z"/>
      <path class="cls-1" d="M71.3,17.8l-1.9,2.2,66,55.8,1.9-2.2L71.3,17.8Z"/>
      <path class="cls-1" d="M87.1,19.2l-1.9,2.2,45.3,39.4,1.9-2.2-45.3-39.4Z"/>
      <path class="cls-4" d="M138.7,83.5c-1.4-41.3-21.1-73.9-58.6-69.1C42.6,19.3,9,55.6,31,104c22,48.4,60.1,37.6,83.1,33.4,23-4.2,29,6.4,29,6.4l1.7-6.4c-15.1-19.5-4.8-12.5-6.2-53.8h0ZM105.9,135.2c-25.4,10-55.8-6.7-67.8-37.2-12-30.5-1.1-63.3,24.3-73.3,25.4-10,55.8,6.7,67.8,37.2,12,30.5,1.1,63.3-24.3,73.3h0Z"/>
      <path class="cls-5" d="M135.6,141.4l8.7-10.3,32.7,38.1-3.1,5.8-38.3-33.6Z"/>
      <path class="cls-5" d="M134.1,122.7c1.2,1.8-.5,5.1-3.9,7.5-3.4,2.4-7.1,2.9-8.4,1.1-1.2-1.8.5-5.1,3.9-7.5,3.4-2.4,7.1-2.9,8.4-1.1h0Z"/>
      <path class="cls-1" d="M151.2,155.5c1.9-.3,3.4-1.6,4.6-3.1,1.3-1.6,2.8-3.5,3.4-5.6,0-.2-.1-1.2-.5-.7-1.1,1.2-1.9,2.8-2.8,4.2-1.1,1.5-2.7,3.8-4.7,4.2-.4,0-.4,1,0,1h0Z"/>
      <path class="cls-1" d="M156.2,157.9c.6-2.8,1-5.8,1-8.7s-.4-.6-.5-.2c-.9,2.7-1.1,5.9-1.1,8.7,0,.5.5.6.6.1Z"/>
      <path class="cls-1" d="M157.4,159.7c3.1-.5,5.6-4,6.2-6.9,0-.2-.2-.7-.4-.4-1.8,2.1-2.7,5.6-5.8,6.3-.4.1-.4,1.1,0,1h0Z"/>
      <path class="cls-1" d="M161,162.4c3,.3,5.3-2.9,6.3-5.4.1-.3,0-.9-.4-.6-2.2,1.5-3,4.7-5.9,4.9-.5,0-.4,1,0,1.1Z"/>
      <path class="cls-1" d="M164.9,166.2c1.1-1.4,1.2-3.9,1.1-5.7,0-.4-.4-.7-.6-.2-.7,1.7,0,3.6-1,5.3-.2.3,0,1.2.5.7h0Z"/>
      <path class="cls-1" d="M163.9,167.3c3,0,5.3-2.6,6.2-5.2,0-.2,0-.8-.4-.6-1.9,1.6-3.1,4-5.8,4.5-.5.1-.5,1.2,0,1.2h0Z"/>
      <path class="cls-1" d="M167.8,170.4c2.5-.6,4.2-3.5,5.5-5.5,0-.2,0-.8-.3-.6-1,.6-1.7,1.4-2.5,2.3-.9,1.1-1.9,2-3,3-.3.2-.2,1,.3.8h0Z"/>
      <path class="cls-1" d="M170.4,172.2c2.7.1,4.3-3,4.7-5.3,0-.2-.2-.6-.4-.3-1.2,1.8-2.1,4.1-4.4,4.7-.4,0-.3.9.1.9h0Z"/>
      <path class="cls-3" d="M165.4,70.7c0,20.9-25.4,39.1-43.1,39.1s-24.8-16-24.8-37,5.3-37.9,23-37.9,44.9,14.8,44.9,35.8h0Z"/>
      <path class="cls-2" d="M106,50.4l10,8.2v3.7l-10-3.7v-8.2Z"/>
      <path class="cls-2" d="M138.7,62.2c-1.9,10.8-8.2,18.7-14.2,17.6-5.9-1-9.2-10.6-7.3-21.4,1.9-10.8,8.2-18.7,14.2-17.6s9.2,10.6,7.3,21.4h0Z"/>
      <path class="cls-2" d="M139.8,104.4c3.7-2,5.4-6.7,6-10.7.7-4.8-.7-9.8-1.7-14.5-1-5.1-1.9-10.3-1.4-15.6.6-6,4-9.7,7.8-14,.3-.3.3-1.7-.4-1.4-8.7,3.7-9.7,15.5-8.8,23.5.5,4.8,1.7,9.5,2.7,14.3.6,3,.8,5.9.2,8.9-.6,3.5-2.7,6-4.7,8.8-.1.2,0,.9.3.7h0Z"/>
      <path class="cls-2" d="M116,94c-3,15-6.5,5.3-7.1,3.3l4.9-30.3c.1,0,.2.2.2.2,0,0,5.4,10.3,2,26.9h0Z"/>
      <path class="cls-5" d="M112.3,102.5c-2,0-3.4-4.4-3.7-5.4-.6-.2-1.8-.5-2.5,0-.3.2-.4.5-.5.9,0,.4,0,.7.3,1,.7.6,2.2.4,2.8.3v.6s-2.1.4-3.2-.5c-.4-.3-.6-.8-.5-1.4,0-.6.3-1.1.7-1.3,1.1-.7,3.1,0,3.2,0h.1c0,0,0,.2,0,.2.6,2,1.9,5.1,3.2,5.1h0c.7,0,2.1-1.1,3.5-8,3.1-15.7-1.6-25.8-2-26.7-.3-.3-2-1.5-2-2.8,0-.5.3-1,.9-1.4.5-.4,1-.4,1.5-.2,1.4.6,2.1,3.3,2.1,3.4h-.6c-.2-.6-.8-2.5-1.7-2.9-.3-.1-.6,0-1,.2-.4.3-.6.6-.6.9,0,.9,1.3,2,1.8,2.4h0s0,.1,0,.1c0,.1,5.4,10.6,2.1,27.1-1.1,5.6-2.4,8.4-4,8.5h0Z"/>
      <path class="cls-5" d="M111,84.7v-.3c0,0,6.1-1.6,6.1-1.6v.3c0,0-6.1,1.6-6.1,1.6Z"/>
      <path class="cls-5" d="M109.9,99.4h-.3s5.2-30.1,5.2-30.1h.3c0,0-5.2,30.1-5.2,30.1Z"/>
      <path class="cls-5" d="M111.4,101.7h-.3s4.4-30.3,4.4-30.3h.3s-4.4,30.3-4.4,30.3Z"/>
      <path class="cls-5" d="M116.5,76.4l-4.2,25.7h.3s4.2-25.7,4.2-25.7h-.3Z"/>
      <path class="cls-5" d="M112,104.9c6.1-2,8.2-9.2,8.2-15,0-.3-.4-.6-.5-.2-1.5,5.6-1.8,11.8-7.8,14.7-.2.1-.2.6.1.6h0Z"/>
      <path class="cls-3" d="M103.1,51.7c3.6.1,5.1,7.7,5.4,10.1,1.6,9.8-.6,21-4.5,30.1"/>
      <path class="cls-5" d="M103.1,52.1c5.1,1.2,5.3,11.7,5.5,15.6.2,8.5-2.4,16.1-4.8,24,0,.3.2,1,.5.5,4.5-7.9,5.8-18.6,5.1-27.5-.3-3.7-1.1-13.2-6.2-13.4-.3,0-.3.7,0,.8Z"/>
      <path class="cls-5" d="M102.4,58.5c3.6,1,3.1,8.3,2.8,10.8-.6,5.3-3.3,9.9-4.4,15,0,.3.3.9.5.5,3.3-5.6,5.5-13.5,5.1-20-.1-1.9-.6-3.9-1.6-5.6-.5-.8-1.8-2.6-2.5-1.1,0,.1,0,.4,0,.4h0Z"/>
      <path class="cls-5" d="M119.7,59.3c0,1.5-.5,2.8-1.1,2.8s-1.1-1.3-1.1-2.8.5-2.8,1.1-2.8,1.1,1.3,1.1,2.8Z"/>
      <path class="cls-5" d="M116.2,59.3c0,1.2-.4,2.2-.8,2.2s-.8-1-.8-2.2.4-2.2.8-2.2.8,1,.8,2.2Z"/>
      <path class="cls-5" d="M105,48.3c.8,4,4,6.7,7.4,8.5,1,.5,3.2,1.4,4.1.3.8-1,.6-2.4,0-3.4-.2-.3-.4,0-.3.2.2,3.7-4.1,1.1-5.6,0-2.2-1.4-4.2-3.5-5-6-.1-.4-.5,0-.4.3Z"/>
      <path class="cls-5" d="M121.1,44.5c1.1-3.4,5.6-6,9-6.7,1.7-.3,3.5-.3,5.2,0,2,.4,2.9,1.7,4.4,2.9.5.4.8-.3.8-.7-.4-5-6.4-6.6-10.5-5.8-4.4.9-9.3,5-9.6,9.7,0,.5.5,1.2.7.5h0Z"/>
      <path class="cls-5" d="M116.5,32.5c4.8-4.1,12.2-5.4,18.3-5.6,7.2-.2,13.7,2.1,19.8,5.6.3.2.3-.5.2-.6-5.5-4.8-12.8-6.8-20-6.7-6.1.1-14.4,1.8-18.5,6.7-.2.2,0,.9.3.6h0Z"/>
      <path class="cls-5" d="M113.4,31.7c3.4-6.8,10.6-10.4,17.8-11.6,7.5-1.2,14.3.8,20.6,4.7.3.2.5-.4.3-.6-5.2-5.9-14.3-7-21.6-5.8-7.7,1.2-14.4,5.7-17.5,12.9,0,.2.2.7.4.4h0Z"/>
      <path class="cls-5" d="M95.1,82.6c-2.3,7.9-2.6,30.7,11.6,25.1.3-.1.3-.9-.1-.9-2.7-.1-5.4-.2-7.7-1.8-2.1-1.5-2.9-4.2-3.4-6.6-1.1-5.2.2-10.4,0-15.6,0-.3-.3-.5-.5-.2h0Z"/>
      <path class="cls-5" d="M91.2,90.7c-1.3,6.4-1.7,13.7,3.4,18.6,4.2,4.1,11,2.7,15.6.2.3-.2.3-1-.2-.9-4.2,1.2-8.6,2.2-12.8.4-6.8-2.9-6.5-12.2-5.6-18.1,0-.3-.3-.5-.4-.1h0Z"/>
    </g>
  </g>
</svg>