<?xml version="1.0" encoding="UTF-8"?>
<svg xmlns="http://www.w3.org/2000/svg" xmlns:xlink="http://www.w3.org/1999/xlink" version="1.1" viewBox="0 0 316.5 409.7">
  <defs>
    <style>
      .cls-1 {
        fill: #732231;
      }

      .cls-1, .cls-2, .cls-3, .cls-4, .cls-5, .cls-6, .cls-7, .cls-8, .cls-9, .cls-10, .cls-11, .cls-12, .cls-13, .cls-14, .cls-15, .cls-16, .cls-17, .cls-18, .cls-19, .cls-20 {
        fill-rule: evenodd;
      }

      .cls-2 {
        fill: #b35e5e;
      }

      .cls-3 {
        fill: #f6cc34;
      }

      .cls-4 {
        fill: #89314d;
      }

      .cls-5 {
        fill: #c15c7a;
      }

      .cls-6 {
        fill: #ffaca4;
      }

      .cls-7 {
        fill: #ffcf5e;
      }

      .cls-8 {
        fill: #7c79a6;
        opacity: .5;
      }

      .cls-9 {
        fill: #7e1a64;
        opacity: .4;
      }

      .cls-10 {
        fill: #c2ccc9;
      }

      .cls-11 {
        fill: #c53f45;
      }

      .cls-12 {
        fill: #b3a200;
      }

      .cls-13 {
        fill: url(#_ÂÁ_Ï_ÌÌ_È_ËÂÌÚ_38);
      }

      .cls-14 {
        fill: #a94a71;
      }

      .cls-15 {
        fill: #ffb159;
      }

      .cls-16 {
        fill: #453434;
        opacity: .6;
      }

      .cls-21 {
        opacity: .2;
      }

      .cls-17 {
        fill: #521c3e;
      }

      .cls-18 {
        fill: #ffc7b4;
      }

      .cls-19 {
        fill: #5e483e;
      }

      .cls-22 {
        fill: #8f4042;
      }

      .cls-23 {
        fill: #9eaea9;
      }

      .cls-20 {
        fill: #ffdbcf;
      }
    </style>
    <linearGradient id="_ÂÁ_Ï_ÌÌ_È_ËÂÌÚ_38" data-name="¡ÂÁ˚ÏˇÌÌ˚È „‡‰ËÂÌÚ 38" x1="170.8" y1="387.2" x2="170.8" y2="104.4" gradientUnits="userSpaceOnUse">
      <stop offset=".4" stop-color="#bf9000"/>
      <stop offset="1" stop-color="#757100"/>
    </linearGradient>
  </defs>
  <!-- Generator: Adobe Illustrator 28.6.0, SVG Export Plug-In . SVG Version: 1.2.0 Build 709)  -->
  <g>
    <g id="building">
      <g>
        <path class="cls-10" d="M289.2,387.3H31.1v5.5c0,1.5,1.2,2.7,2.7,2.7l253.7-1c1,0,1.7-.8,1.7-1.8v-5.4Z"/>
        <ellipse class="cls-23" cx="160.2" cy="387.3" rx="129.1" ry="4.4"/>
        <g>
          <g>
            <polygon class="cls-1" points="209.2 79.8 206.5 79.8 172.3 38 209.2 79.8"/>
            <polygon class="cls-18" points="144.4 119.8 140.6 73 170.9 41 202.8 77.4 198.9 119.9 144.4 119.8"/>
            <polygon class="cls-5" points="140.6 73 129.3 79.9 133.2 122.6 144.4 119.8 140.6 73"/>
            <polygon class="cls-11" points="209.2 79.8 172.3 38 136.9 77.6 134.1 76.9 172.3 34.5 211.7 77.9 209.2 79.8"/>
            <polygon class="cls-1" points="172.3 34.5 146.5 54.1 118.8 83.3 134.1 76.9 172.3 34.5"/>
            <polygon class="cls-1" points="121.3 85.5 118.8 83.3 135.1 75.8 136.9 77.6 121.3 85.5"/>
            <polygon class="cls-20" points="206.9 79.1 205.7 81.2 171.7 43.1 138.6 79.8 124.1 86.1 122.6 84.9 136.9 77.6 172.3 38 206.9 79.1"/>
            <polygon class="cls-5" points="202.5 80.5 205.7 81.2 171.7 43.1 170.2 44.7 202.4 79.1 202.5 80.5"/>
            <polygon class="cls-5" points="138.6 79.8 136.9 77.6 122.6 84.9 124.1 86.1 138.6 79.8"/>
            <g>
              <polygon class="cls-16" points="157.1 67.8 155.9 70.9 157.5 118.6 181.6 118.8 183.1 108.1 183.9 69.5 157.1 67.8"/>
              <polygon class="cls-18" points="158.6 113.5 157.1 68.7 185.4 69.6 182.7 114.1 158.6 113.5"/>
              <polygon class="cls-5" points="157.1 68.7 156 70 157.6 113.5 158.6 113.5 157.1 68.7"/>
              <polygon class="cls-5" points="159.3 112.6 157.6 112.8 157.8 116.9 159.7 117 159.8 112.9 159.3 112.6"/>
              <polygon class="cls-5" points="181.5 117.5 180.6 117.5 180.7 114.8 182.1 114.9 181.5 117.5"/>
              <polygon class="cls-20" points="159.3 112.6 185.5 112.8 185.4 114.9 159.3 114.7 159.3 112.6"/>
              <polygon class="cls-18" points="184.4 114.9 183.1 117.6 181.5 117.5 182.1 114.9 184.4 114.9"/>
              <polygon class="cls-18" points="161.8 114.7 161.2 117 159.7 117 159.7 114.7 161.8 114.7"/>
              <polygon class="cls-20" points="157.6 69.5 185.9 70.4 187.2 66.8 188.3 66.9 188.6 65.7 157.2 64.7 157.6 69.5"/>
              <polygon class="cls-5" points="157.2 64.7 154.7 67.1 154.9 68.7 155.3 68.7 155.5 70.6 155.9 70.9 157.6 69.5 185.3 70.6 185.9 70.4 158 69 157.7 66.4 187.1 67.1 188.3 66.9 157.3 66.1 157.2 64.7"/>
              <polygon class="cls-5" points="160.4 110.8 180.7 111 183 72.6 159.4 72 160.4 110.8"/>
              <polygon class="cls-4" points="159.4 73.3 181.5 73.9 179.9 111 160.4 110.8 159.4 73.3"/>
              <polygon class="cls-17" points="161.4 109.3 160.4 74.6 170.4 74.9 169.8 109.5 161.4 109.3"/>
              <polygon class="cls-17" points="170.5 109.5 171.6 74.9 180.6 75.2 179.2 109.8 170.5 109.5"/>
            </g>
          </g>
          <g>
            <polygon class="cls-13" points="85.7 387.2 76.4 104.4 265.2 112.4 256.1 387.2 85.7 387.2"/>
            <polygon class="cls-19" points="76.4 104.4 42.8 137.4 60 387.2 85.7 387.2 76.4 104.4"/>
            <g>
              <polygon class="cls-5" points="32.3 128.6 34.6 128.6 34.6 132 40.7 131.9 40.8 144.5 41.9 144.5 41.9 146.8 43.5 147.5 77.2 123.2 75.4 92.6 70.1 88.2 32.3 128.6"/>
              <polygon class="cls-11" points="70.1 85 70.1 90 281 98.5 281 94.9 173.6 91.8 70.1 85"/>
              <polygon class="cls-1" points="70.1 90 32.3 128.6 32.3 125.4 70.1 85 70.1 90"/>
              <polygon class="cls-18" points="281 98.5 277.2 99.8 277.2 108.5 268.1 110.7 268.1 125.3 266.3 125.3 266.3 130.7 77.2 123.2 76.9 118.7 76.3 118.4 74.9 101.7 71.5 98.1 71.5 92 70.1 90 281 98.5"/>
              <polygon class="cls-1" points="70.1 90 281 98.5 277.2 99.8 71.5 92 70.1 90"/>
              <polygon class="cls-5" points="71.5 98.1 277.2 108.5 268.1 110.7 75 103 71.5 98.1"/>
              <polygon class="cls-5" points="268.1 125.3 76.3 118.4 77.1 119.6 266.3 126.3 268.1 125.3"/>
              <polygon class="cls-5" points="77 122.5 266.3 130.7 264.8 131.4 77.2 123.2 77 122.5"/>
              <polygon class="cls-1" points="70.1 90 32.3 128.6 34.6 128.6 71.5 92 70.1 90"/>
              <polygon class="cls-14" points="71.5 98.1 34.6 132 40.7 131.9 75 103 71.5 98.1"/>
              <g>
                <polygon class="cls-5" points="218 120.6 217.9 113 255.8 112.7 255.8 122.5 218 120.6"/>
                <polygon class="cls-6" points="218 114.5 254.9 113.7 254.9 122.4 218 120.6 218 114.5"/>
                <polygon class="cls-5" points="219.5 115.7 219.5 119.6 253.8 121.3 254.2 120.8 219.8 119.1 220 114.9 219.5 115.7"/>
                <polygon class="cls-18" points="220 114.9 254.2 114.3 254.2 120.8 219.8 119.1 220 114.9"/>
              </g>
              <polygon class="cls-14" points="40.8 144.5 76.3 118.4 77.1 119.6 41.9 145.2 40.8 144.5"/>
              <g>
                <g>
                  <polygon class="cls-20" points="86.1 118.8 76.6 118.4 71.5 98.1 83.3 98.8 86.1 118.8"/>
                  <polygon class="cls-20" points="154.9 121.8 146.3 121.5 148.6 102 158.1 102.5 154.9 121.8"/>
                  <polygon class="cls-20" points="217.4 123.5 209.4 123.2 219.3 105.6 228.1 106.1 217.4 123.5"/>
                  <polygon class="cls-20" points="264 125.1 256.6 124.9 269.1 108.1 277.2 108.5 264 125.1"/>
                </g>
                <polygon class="cls-14" points="269.1 108.1 260 110.2 256.6 124.9 269.1 108.1"/>
                <polygon class="cls-14" points="219.3 105.6 209.5 108.1 209.4 123.2 219.3 105.6"/>
                <polygon class="cls-14" points="148.6 102 145.3 105.8 146.3 121.5 148.6 102"/>
              </g>
              <polygon class="cls-5" points="34.6 132 40.8 144.5 42.3 143.4 36 130.7 34.6 132"/>
              <polygon class="cls-14" points="36 130.7 42.3 130.5 42.3 143.4 36 130.7"/>
              <polygon class="cls-5" points="46.2 121.4 51.9 136.4 54.7 134.3 48.7 119 46.2 121.4"/>
              <polygon class="cls-5" points="60.8 107.9 67.2 125.1 70.1 123 63.2 105.7 60.8 107.9"/>
              <polygon class="cls-14" points="63.2 105.7 68.4 108.6 70.1 123 63.2 105.7"/>
              <polygon class="cls-14" points="48.7 119 52 122.4 54.7 134.3 48.7 119"/>
              <g>
                <polygon class="cls-5" points="89.3 115.4 88.5 106.8 142 109.3 142 117.2 89.3 115.4"/>
                <polygon class="cls-6" points="88.6 108.4 140.8 110.3 140.8 117.1 89.3 115.4 88.6 108.4"/>
                <polygon class="cls-5" points="90.8 109.7 91.3 114.3 139.2 116 139.8 115.4 91.8 113.8 91.4 108.9 90.8 109.7"/>
                <polygon class="cls-18" points="91.4 108.9 139.8 110.9 139.8 115.4 91.8 113.8 91.4 108.9"/>
              </g>
              <g>
                <polygon class="cls-5" points="158.5 117.8 158.3 109.8 208.4 112.5 208.2 120.4 158.5 117.8"/>
                <polygon class="cls-6" points="158.4 111.4 207.2 113.5 207.1 120.3 158.5 117.8 158.4 111.4"/>
                <polygon class="cls-5" points="160.5 112.7 160.4 116.7 205.6 119.2 206.2 118.6 160.9 116.2 161 111.9 160.5 112.7"/>
                <polygon class="cls-18" points="161 111.9 206.3 114.1 206.2 118.6 160.9 116.2 161 111.9"/>
              </g>
              <polygon class="cls-9" points="84.7 108.4 145.7 111.4 148.6 102 83.3 98.8 84.7 108.4"/>
              <polygon class="cls-9" points="156.5 112.1 209.4 114.9 219.3 105.6 158.1 102.5 156.5 112.1"/>
              <polygon class="cls-9" points="269.1 108.1 258.6 116.5 222.4 115.4 228.1 106.1 269.1 108.1"/>
            </g>
            <polygon class="cls-15" points="259.1 314.4 82.6 312.4 85.7 387.2 256.1 387.2 259.1 314.4"/>
            <polygon class="cls-5" points="82.6 312.4 54.1 318.8 60 387.2 85.7 387.2 82.6 312.4"/>
            <polygon class="cls-20" points="265.2 314.5 265.2 311.4 78.4 309.5 78.4 313.8 265.2 314.5"/>
            <polygon class="cls-5" points="78.4 309.5 50.4 318.8 50.4 321.5 78.4 313.8 78.4 309.5"/>
            <polygon class="cls-14" points="50.4 321.5 54.1 321.5 82.6 314.5 258.1 316.5 265.2 314.5 78.4 313.8 50.4 321.5"/>
            <polygon class="cls-5" points="53 321.5 54.1 326.5 54.8 326.9 83.1 322.8 80.6 314.5 53 321.5"/>
            <polygon class="cls-18" points="261.6 315.5 260.3 323.2 81.8 322.8 80.6 314.5 261.6 315.5"/>
            <polygon class="cls-5" points="81.8 322.8 260.3 323.2 258.7 324.7 83.1 323.2 81.8 322.8"/>
            <polygon class="cls-5" points="113.1 387.2 111.3 323.4 151.1 323.7 148.3 387.2 113.1 387.2"/>
            <polygon class="cls-4" points="111.3 334.7 141 334.7 139.9 387.2 112.9 387.2 111.3 334.7"/>
            <polygon class="cls-5" points="96.7 323.3 97.8 387.2 97.1 387.2 95.3 323.3 96.7 323.3"/>
            <polygon class="cls-20" points="166.2 323.9 163.5 387.2 148.3 387.2 151.1 323.7 166.2 323.9"/>
            <polygon class="cls-20" points="111.3 323.4 96.7 323.3 97.8 387.2 113.1 387.2 111.3 323.4"/>
            <polygon class="cls-17" points="115.5 370.8 126.2 370.8 126.2 336.8 114.4 336.8 115.5 370.8"/>
            <polygon class="cls-17" points="128.6 370.8 128.6 336.8 139.8 336.8 138.1 370.8 128.6 370.8"/>
            <g class="cls-21">
              <polygon class="cls-3" points="79.8 206.7 139.8 210.1 141 278.3 143.9 278.3 143.9 234 171.8 231.3 165.5 309.6 95.3 309.5 95.3 234 80.6 234 79.8 206.7"/>
              <polygon class="cls-3" points="175.3 252.5 179.1 200.5 193.6 200.5 183.2 252.5 175.3 252.5"/>
              <polygon class="cls-3" points="193.6 307.8 195.2 272.6 226.2 270.8 220.2 309.5 193.6 307.8"/>
              <polygon class="cls-3" points="262.1 208.6 251.4 207.1 253 166.3 231.7 163.9 227.7 254.3 247.3 254.3 250.9 225 261.6 224.5 262.1 208.6"/>
              <polygon class="cls-3" points="250.7 239.1 246.2 280.4 259.1 280.4 260.3 240.1 250.7 239.1"/>
              <polygon class="cls-3" points="139.6 158.2 141 180.2 143.9 180.2 143.9 159.4 139.6 158.2"/>
              <polygon class="cls-3" points="191.1 226.5 191.8 217.5 198.9 215.6 197.5 226.5 191.1 226.5"/>
              <polygon class="cls-3" points="78.3 160.9 95.4 163.4 95.4 179.2 78.9 179.2 78.3 160.9"/>
              <polygon class="cls-3" points="78.2 158 98.5 160.3 100.7 145.2 77.2 143.4 78.2 158"/>
              <polygon class="cls-3" points="170.8 309.6 173.2 302.5 183.2 301.5 183.2 308.2 170.8 309.6"/>
            </g>
            <polygon class="cls-20" points="111.5 328.8 150.9 328.8 151.1 323.7 111.3 323.4 111.5 328.8"/>
            <g>
              <g>
                <polygon class="cls-16" points="105.7 239.5 104.5 242.5 107 289.3 131.2 289.4 132.5 278.9 132.7 240.9 105.7 239.5"/>
                <polygon class="cls-18" points="108 284.3 105.7 240.3 134.1 241 132.2 284.8 108 284.3"/>
                <polygon class="cls-5" points="105.7 240.3 104.6 241.6 107 284.3 108 284.3 105.7 240.3"/>
                <polygon class="cls-5" points="108.7 283.4 107 283.7 107.2 287.7 109.1 287.8 109.1 283.8 108.7 283.4"/>
                <polygon class="cls-5" points="131 288.2 130.1 288.1 130.1 285.5 131.6 285.6 131 288.2"/>
                <polygon class="cls-20" points="108.7 283.4 134.9 283.5 134.9 285.6 108.7 285.5 108.7 283.4"/>
                <polygon class="cls-18" points="133.9 285.6 132.6 288.2 131 288.2 131.6 285.6 133.9 285.6"/>
                <polygon class="cls-18" points="111.2 285.5 110.6 287.8 109.1 287.8 109.1 285.5 111.2 285.5"/>
                <polygon class="cls-20" points="106.3 241.1 134.6 241.7 135.9 238.3 137 238.3 137.3 237.1 105.7 236.4 106.3 241.1"/>
                <polygon class="cls-5" points="105.7 236.4 103.3 238.7 103.5 240.3 103.9 240.3 104.2 242.2 104.5 242.5 106.3 241.1 134.1 242 134.6 241.7 106.6 240.6 106.3 238 135.8 238.5 137 238.3 105.9 237.7 105.7 236.4"/>
                <polygon class="cls-5" points="109.7 281.7 130.1 281.7 131.8 244 108.1 243.5 109.7 281.7"/>
                <polygon class="cls-4" points="108.1 244.8 130.3 245.3 129.3 281.7 109.7 281.7 108.1 244.8"/>
                <polygon class="cls-17" points="110.7 280.2 109.2 246.1 119.2 246.3 119.1 280.4 110.7 280.2"/>
                <polygon class="cls-17" points="119.8 280.4 120.4 246.3 129.4 246.5 128.6 280.5 119.8 280.4"/>
              </g>
              <g>
                <polygon class="cls-16" points="209.6 241.2 208.4 244.2 210 290.7 233.8 290.7 235.3 280.3 236.1 242.7 209.6 241.2"/>
                <polygon class="cls-18" points="211.1 285.7 209.6 242.1 237.5 242.7 234.9 286.1 211.1 285.7"/>
                <polygon class="cls-5" points="209.6 242.1 208.5 243.3 210.1 285.7 211.1 285.7 209.6 242.1"/>
                <polygon class="cls-5" points="211.8 284.8 210.1 285.1 210.3 289.1 212.2 289.1 212.2 285.1 211.8 284.8"/>
                <polygon class="cls-5" points="233.7 289.5 232.8 289.5 232.9 286.8 234.3 286.9 233.7 289.5"/>
                <polygon class="cls-20" points="211.8 284.8 237.6 284.9 237.6 286.9 211.8 286.9 211.8 284.8"/>
                <polygon class="cls-18" points="236.6 286.9 235.3 289.5 233.7 289.5 234.3 286.9 236.6 286.9"/>
                <polygon class="cls-18" points="214.2 286.9 213.6 289.1 212.2 289.1 212.2 286.8 214.2 286.9"/>
                <polygon class="cls-20" points="210.2 242.9 238 243.5 239.4 240.1 240.4 240.1 240.7 238.9 209.7 238.2 210.2 242.9"/>
                <polygon class="cls-5" points="209.7 238.2 207.3 240.5 207.5 242 207.8 242 208.1 244 208.4 244.2 210.2 242.9 237.5 243.7 238 243.5 210.5 242.3 210.2 239.8 239.2 240.3 240.4 240.1 209.8 239.5 209.7 238.2"/>
                <polygon class="cls-5" points="212.9 283.1 233 283.1 235.2 245.7 211.9 245.2 212.9 283.1"/>
                <polygon class="cls-4" points="211.9 246.5 233.7 247 232.2 283.1 212.9 283.1 211.9 246.5"/>
                <polygon class="cls-17" points="213.9 281.6 212.9 247.8 222.8 248 222.1 281.8 213.9 281.6"/>
                <polygon class="cls-17" points="222.9 281.8 223.9 248 232.8 248.2 231.5 281.9 222.9 281.8"/>
              </g>
              <g>
                <polygon class="cls-16" points="160.5 240.1 159.3 243.1 161.3 289.7 185.3 289.8 186.7 279.3 187.2 241.6 160.5 240.1"/>
                <polygon class="cls-18" points="162.3 284.8 160.5 241 188.6 241.6 186.3 285.2 162.3 284.8"/>
                <polygon class="cls-5" points="160.5 241 159.4 242.2 161.4 284.8 162.3 284.8 160.5 241"/>
                <polygon class="cls-5" points="163 283.9 161.4 284.2 161.6 288.2 163.5 288.2 163.5 284.2 163 283.9"/>
                <polygon class="cls-5" points="185.2 288.6 184.3 288.6 184.3 285.9 185.8 286 185.2 288.6"/>
                <polygon class="cls-20" points="163 283.9 189.1 284 189.1 286 163 286 163 283.9"/>
                <polygon class="cls-18" points="188 286 186.8 288.6 185.2 288.6 185.8 286 188 286"/>
                <polygon class="cls-18" points="165.5 286 164.9 288.2 163.5 288.2 163.5 285.9 165.5 286"/>
                <polygon class="cls-20" points="161.1 241.8 189.1 242.4 190.5 238.9 191.5 239 191.8 237.8 160.5 237.1 161.1 241.8"/>
                <polygon class="cls-5" points="160.5 237.1 158.1 239.4 158.3 240.9 158.7 240.9 159 242.9 159.3 243.1 161.1 241.8 188.6 242.6 189.1 242.4 161.4 241.2 161.1 238.7 190.4 239.2 191.5 239 160.7 238.4 160.5 237.1"/>
                <polygon class="cls-5" points="164.1 282.1 184.4 282.2 186.3 244.6 162.8 244.1 164.1 282.1"/>
                <polygon class="cls-4" points="162.9 245.4 184.8 245.9 183.6 282.2 164.1 282.1 162.9 245.4"/>
                <polygon class="cls-17" points="165.1 280.7 163.9 246.7 173.8 246.9 173.5 280.8 165.1 280.7"/>
                <polygon class="cls-17" points="174.2 280.8 175 246.9 184 247.1 182.8 281 174.2 280.8"/>
              </g>
              <g>
                <polygon class="cls-16" points="105.7 158.4 104.5 161.5 107 209.6 131.5 209.9 132.9 199 133.1 160.1 105.7 158.4"/>
                <polygon class="cls-18" points="108 204.5 105.7 159.3 134.5 160.2 132.5 205.1 108 204.5"/>
                <polygon class="cls-5" points="105.7 159.3 104.6 160.6 107 204.5 108 204.5 105.7 159.3"/>
                <polygon class="cls-5" points="108.7 203.6 107 203.9 107.3 208 109.2 208 109.2 203.9 108.7 203.6"/>
                <polygon class="cls-5" points="131.4 208.6 130.5 208.6 130.5 205.8 132 205.9 131.4 208.6"/>
                <polygon class="cls-20" points="108.7 203.6 135.3 203.8 135.3 205.9 108.7 205.7 108.7 203.6"/>
                <polygon class="cls-18" points="134.3 205.9 133 208.6 131.4 208.6 132 205.9 134.3 205.9"/>
                <polygon class="cls-18" points="111.3 205.7 110.7 208.1 109.2 208 109.2 205.7 111.3 205.7"/>
                <polygon class="cls-20" points="106.3 160.2 135 161 136.4 157.4 137.4 157.5 137.7 156.3 105.7 155.3 106.3 160.2"/>
                <polygon class="cls-5" points="105.7 155.3 103.3 157.7 103.5 159.3 103.9 159.3 104.2 161.3 104.5 161.5 106.3 160.2 134.5 161.2 135 161 106.7 159.6 106.3 157 136.2 157.7 137.4 157.5 105.9 156.7 105.7 155.3"/>
                <polygon class="cls-5" points="109.8 201.8 130.5 202 132.2 163.3 108.1 162.6 109.8 201.8"/>
                <polygon class="cls-4" points="108.2 163.9 130.6 164.6 129.7 202 109.8 201.8 108.2 163.9"/>
                <polygon class="cls-17" points="110.8 200.3 109.2 165.3 119.4 165.6 119.3 200.5 110.8 200.3"/>
                <polygon class="cls-17" points="120.1 200.5 120.6 165.6 129.8 165.9 128.9 200.8 120.1 200.5"/>
              </g>
              <g>
                <polygon class="cls-16" points="159.4 159.4 158.2 162.5 160.2 210.4 184.5 210.6 186 199.8 186.5 161.1 159.4 159.4"/>
                <polygon class="cls-18" points="161.3 205.3 159.4 160.3 187.9 161.1 185.6 205.9 161.3 205.3"/>
                <polygon class="cls-5" points="159.4 160.3 158.3 161.6 160.3 205.2 161.3 205.3 159.4 160.3"/>
                <polygon class="cls-5" points="162 204.3 160.3 204.6 160.5 208.7 162.4 208.8 162.4 204.7 162 204.3"/>
                <polygon class="cls-5" points="184.4 209.3 183.5 209.3 183.5 206.6 185 206.7 184.4 209.3"/>
                <polygon class="cls-20" points="162 204.3 188.4 204.6 188.3 206.7 162 206.5 162 204.3"/>
                <polygon class="cls-18" points="187.3 206.7 186 209.4 184.4 209.3 185 206.7 187.3 206.7"/>
                <polygon class="cls-18" points="164.5 206.5 163.9 208.8 162.4 208.8 162.4 206.4 164.5 206.5"/>
                <polygon class="cls-20" points="160 161.1 188.4 161.9 189.8 158.4 190.8 158.4 191.1 157.2 159.4 156.3 160 161.1"/>
                <polygon class="cls-5" points="159.4 156.3 157 158.6 157.2 160.2 157.5 160.2 157.8 162.2 158.2 162.5 160 161.1 187.9 162.2 188.4 161.9 160.3 160.6 160 157.9 189.6 158.7 190.8 158.4 159.6 157.7 159.4 156.3"/>
                <polygon class="cls-5" points="163.1 202.6 183.6 202.7 185.6 164.2 161.7 163.6 163.1 202.6"/>
                <polygon class="cls-4" points="161.8 164.9 184 165.5 182.8 202.7 163.1 202.6 161.8 164.9"/>
                <polygon class="cls-17" points="164.1 201.1 162.8 166.2 172.9 166.5 172.5 201.3 164.1 201.1"/>
                <polygon class="cls-17" points="173.2 201.3 174.1 166.5 183.2 166.8 182 201.5 173.2 201.3"/>
              </g>
              <g>
                <polygon class="cls-16" points="209.4 160.9 208.2 163.9 209.8 211.6 233.9 211.8 235.5 201.1 236.3 162.6 209.4 160.9"/>
                <polygon class="cls-18" points="210.9 206.5 209.4 161.8 237.7 162.6 235 207.1 210.9 206.5"/>
                <polygon class="cls-5" points="209.4 161.8 208.3 163.1 210 206.5 210.9 206.5 209.4 161.8"/>
                <polygon class="cls-5" points="211.6 205.6 209.9 205.9 210.1 210 212 210 212.1 206 211.6 205.6"/>
                <polygon class="cls-5" points="233.8 210.6 232.9 210.5 233 207.8 234.5 207.9 233.8 210.6"/>
                <polygon class="cls-20" points="211.6 205.6 237.8 205.9 237.8 207.9 211.6 207.7 211.6 205.6"/>
                <polygon class="cls-18" points="236.7 207.9 235.4 210.6 233.8 210.6 234.5 207.9 236.7 207.9"/>
                <polygon class="cls-18" points="214.1 207.8 213.5 210.1 212 210 212.1 207.7 214.1 207.8"/>
                <polygon class="cls-20" points="210 162.6 238.2 163.4 239.6 159.9 240.6 159.9 240.9 158.7 209.5 157.8 210 162.6"/>
                <polygon class="cls-5" points="209.5 157.8 207.1 160.1 207.2 161.7 207.6 161.7 207.9 163.7 208.2 163.9 210 162.6 237.6 163.6 238.2 163.4 210.3 162.1 210 159.4 239.4 160.1 240.6 159.9 209.6 159.1 209.5 157.8"/>
                <polygon class="cls-5" points="212.7 203.8 233.1 204 235.3 165.7 211.7 165 212.7 203.8"/>
                <polygon class="cls-4" points="211.7 166.3 233.8 167 232.3 204 212.7 203.8 211.7 166.3"/>
                <polygon class="cls-17" points="213.7 202.3 212.7 167.6 222.8 167.9 222.1 202.6 213.7 202.3"/>
                <polygon class="cls-17" points="222.8 202.6 223.9 168 232.9 168.2 231.5 202.8 222.8 202.6"/>
              </g>
            </g>
            <g>
              <polygon class="cls-9" points="213.6 330.8 212.4 333.7 213.9 374.4 237.8 374.1 239.1 363.6 240 331.6 213.6 330.8"/>
              <polygon class="cls-20" points="214.9 369.5 213.6 331.6 241.4 331.6 238.8 369.5 214.9 369.5"/>
              <polygon class="cls-5" points="213.6 331.6 212.5 332.9 213.9 369.5 214.9 369.5 213.6 331.6"/>
              <polygon class="cls-5" points="215.6 368.5 213.9 368.9 214.2 372.8 216 372.8 216 368.9 215.6 368.5"/>
              <polygon class="cls-5" points="237.6 372.8 236.7 372.8 236.7 370.2 238.2 370.2 237.6 372.8"/>
              <polygon class="cls-20" points="215.6 368.5 241.5 368.2 241.5 370.2 215.6 370.6 215.6 368.5"/>
              <polygon class="cls-20" points="240.5 370.2 239.2 372.8 237.6 372.8 238.2 370.2 240.5 370.2"/>
              <polygon class="cls-20" points="218.1 370.6 217.5 372.8 216 372.8 216 370.6 218.1 370.6"/>
              <polygon class="cls-20" points="214.1 332.4 241.9 332.4 243.1 329 244.2 329 244.5 327.8 213.6 327.8 214.1 332.4"/>
              <polygon class="cls-5" points="213.6 327.8 211.2 330.1 211.4 331.6 211.8 331.6 212.1 333.5 212.4 333.7 214.1 332.4 241.3 332.6 241.9 332.4 214.5 331.9 214.1 329.3 243 329.2 244.2 329 213.7 329.1 213.6 327.8"/>
              <polygon class="cls-5" points="216.6 366.8 236.7 366.5 239.1 334.7 215.9 334.7 216.6 366.8"/>
              <polygon class="cls-4" points="215.9 335.9 237.6 335.9 236 366.5 216.6 366.8 215.9 335.9"/>
              <polygon class="cls-17" points="217.6 365.3 216.9 337.2 226.8 337.2 225.9 365.3 217.6 365.3"/>
              <polygon class="cls-17" points="226.6 365.3 227.9 337.2 236.8 337.2 235.2 365.3 226.6 365.3"/>
            </g>
            <polygon class="cls-14" points="150.9 328.8 141 334.7 111.6 334.7 111.5 328.8 150.9 328.8"/>
            <rect class="cls-22" x="116" y="373.4" width="21.4" height="11"/>
            <polygon class="cls-16" points="77.2 140.3 264.5 137.6 264.8 131.4 77.2 123.2 77.2 140.3"/>
            <polygon class="cls-7" points="149.3 365.3 164.5 365.3 163.5 387.2 148.3 387.2 149.3 365.3"/>
            <polygon class="cls-7" points="112.5 365.3 97.4 365.3 97.8 387.2 113.1 387.2 112.5 365.3"/>
            <g>
              <polygon class="cls-8" points="213.6 195.8 222.3 195.4 222.8 167.9 212.7 167.6 213.6 195.8"/>
              <polygon class="cls-8" points="223.1 195.4 230.5 194.9 231.5 168.2 223.9 168 223.1 195.4"/>
              <polygon class="cls-8" points="182.2 195.8 173.2 197.4 174.1 166.5 183.2 166.8 182.2 195.8"/>
              <polygon class="cls-8" points="172.6 197.8 167.9 198.3 167.9 175.8 163.1 175.8 162.8 166.2 172.9 166.5 172.6 197.8"/>
              <polygon class="cls-8" points="129.6 172.3 122 173.3 122 185 120.3 185.3 120.6 165.6 129.8 165.9 129.6 172.3"/>
              <polygon class="cls-8" points="119.4 185.4 112.6 186 112 170 109.4 170 109.2 165.3 119.4 165.6 119.4 185.4"/>
            </g>
            <polygon class="cls-12" points="79.8 221.1 262.9 223 263.3 215.6 78.8 215.6 79.8 221.1"/>
            <polygon class="cls-19" points="262.9 223 261.6 223.4 80.4 222.1 79.8 221.1 262.9 223"/>
            <polygon class="cls-19" points="78.8 215.6 47.6 224.6 48.8 229.3 79.8 221.1 78.8 215.6"/>
            <polygon class="cls-2" points="259.1 387.2 258.5 382.9 163.6 384.4 163.5 387.2 259.1 387.2"/>
            <polygon class="cls-2" points="97 383.7 84.1 382.9 83.1 387.2 97.1 387.2 97 383.7"/>
            <polygon class="cls-4" points="57.8 387.2 58.8 384.4 84.1 382.9 84.1 387.2 57.8 387.2"/>
          </g>
        </g>
      </g>
    </g>
  </g>
</svg>