<?xml version="1.0" encoding="UTF-8"?>
<svg xmlns="http://www.w3.org/2000/svg" version="1.1" viewBox="0 0 169 175">
  <defs>
    <style>
      .cls-1 {
        fill: #ffb100;
      }

      .cls-2 {
        isolation: isolate;
        opacity: .2;
      }

      .cls-2, .cls-3 {
        fill: #f7e8df;
      }

      .cls-4 {
        fill: #6e268c;
      }

      .cls-5 {
        fill: #ff4e0d;
      }

      .cls-6 {
        fill: #0e1535;
      }

      .cls-7 {
        fill: #fc9dbd;
      }

      .cls-8 {
        fill: #3caf99;
      }

      .cls-9 {
        fill: #f74b89;
      }
    </style>
  </defs>
  <!-- Generator: Adobe Illustrator 28.6.0, SVG Export Plug-In . SVG Version: 1.2.0 Build 709)  -->
  <g>
    <g id="Capa_1">
      <path class="cls-6" d="M160,62c1.1-1,2.1-2.2,3-3.4,2.6-3.5,4.9-9.2,2.6-13.5-1.8-3.3-6.6-3.6-9.9-2.6-.8.2-2.4.7-3.6,1.5.7-1.4,1.2-3,1.5-4,.6-1.9,1.4-5.7-1.1-6.5-.7-.2-1.3-.2-2,0,1.7-5.6,2.6-11.4,2.3-17-.2-4.9-1.3-10-5.3-13-4.7-3.6-12-4-17.5-2.9-10.1,2.1-17.9,11.3-17.1,21.7.1,1.6.4,3.1.9,4.6,0,0-.2-.1-.2-.2-2.5-1.8-8.1-4.7-10-.8-.5.9-.7,2.2-.6,3.5-4.7-1-10.1-1.6-16.5-1.5-4.9,0-9.3.4-13.5.9l-11.2,11.8,52.7,54.2c-2.2,1.7-3.9,3.8-5.3,6.1-1.6,2.6-3.9,8-2.2,11,2.1,3.7,7.5.6,10.8-3.4,0,.1,0,.2,0,.3,0,4.6,2.3,10.9,7.4,11.9,5.7,1,10-3.5,12.5-8,1.9-3.5,3-7.3,3.3-11.3.4.4.8.8,1.2,1.1,2.7,2.2,7.7,3.3,10.2.3,1.4-1.5,1.5-3.8.8-5.8,2.5-.4,5.3-1.9,6.6-2.7,5.8-3.7,9.1-10.4,9.3-17.1,0-6.4-3-12.9-9-15.5h0Z"/>
      <path class="cls-8" d="M124.2,112c-.7,0-1.2-.2-1.7-.5-2.4-1.7-2.2-6.5-1.4-9.3,0,0,2.3-10.2,5.3-10.2h0v1h0c-1.5,0-3.7,6.2-4.4,9.4-.8,3.2-.6,7.1,1.1,8.3,1,.7,2.4.4,4.2-.8,3.9-2.6,6.8-6.9,8.3-12-1-.5-1.8-1.2-2.4-2-1.5-1.9-1.8-4.3-.9-6.9.4-1.1,1.8-4.1,3.6-3.8,1.5.2,2.2,2.1,1.8,5.4,0,2.3-.4,4.6-1,6.8,1.5.6,3.2.9,4.9.7,2.7-.3,5.4-2,6.9-4.4.6-1,1-2,1.2-3-1.5-.4-2.6-1.4-3.2-2.8-.5-1.2-.5-2.3.1-3,.4-.5,1-.7,1.6-.6.9.2,1.7,1,2.2,2.4.4,1.1.5,2.2.4,3.3.2,0,.3,0,.5,0,2.7.1,5.7-1.3,6.8-3.2,1.3-2.7,1.6-6.6-.2-8.9l.7-.6c2.2,2.7,1.7,7,.3,9.9-1.2,2.2-4.6,3.9-7.7,3.7-.2,0-.4,0-.6,0-.2,1.1-.7,2.3-1.4,3.3-1.7,2.7-4.7,4.6-7.6,4.9-1.8.2-3.7,0-5.2-.8-1.6,5.3-4.6,9.7-8.7,12.4-1.3.9-2.5,1.3-3.5,1.3h0ZM135.6,86.1c-1,0-2.1,2-2.5,3.2-1,2.8-.1,4.8.8,6,.5.7,1.2,1.2,2,1.7.5-2,.8-4.1.9-6.4.3-2.7-.1-4.3-1-4.4,0,0,0,0-.1,0h0ZM148,85.1c-.2,0-.4.1-.6.3-.3.4-.4,1.1,0,2.1.5,1.3,1.5,1.9,2.4,2.2,0-.9,0-1.9-.3-2.8-.3-1-.9-1.6-1.4-1.7,0,0,0,0-.1,0h0Z"/>
      <path class="cls-8" d="M149.4,77.3c-4.8,0-11.2-.1-12.6-6.2-.9-4.4,1.2-8.2,5.9-10.2.1,0,.3-.1.4-.2.2-2.3,1.5-4.7,3.2-6.3,2.5-2.6,6.2-4.1,11.4-4.6v.9c-4.9.4-8.4,1.8-10.7,4.3-1.4,1.4-2.5,3.3-2.8,5.2,2.8-.9,6.8-1.2,9.2,1,1.1,1.1,1.1,2.1.9,2.8-.4,1.4-2.2,2.6-4.4,3-2.3.4-4.4-.2-5.5-1.7-.8-1.1-1.2-2.4-1.2-3.7-4.2,1.9-6.2,5.2-5.3,9.1,1.2,5.4,6.9,5.5,11.6,5.5h.6v1h-.6ZM144,61.3c0,1.2.3,2.5,1.1,3.5.9,1.2,2.6,1.7,4.5,1.3,1.8-.3,3.3-1.3,3.7-2.3.2-.6,0-1.2-.7-1.8-2.2-2.1-6.1-1.6-8.6-.7Z"/>
      <path class="cls-8" d="M131.9,39.8c-1,0-2,0-2.9-.3-2.6-.5-4.5-1.9-5.7-4.1-2-3.5-1.7-8.2-.7-11.7-2-.3-4.8-1.3-5.4-3.4-.6-1.8,1.2-4.3,2-5.4,1.7-2.4,4.2-5.2,8.1-5.1v1c-3.4-.1-5.6,2.3-7.3,4.7-.7,1-2.3,3.2-1.8,4.6.4,1.5,2.9,2.5,4.8,2.7,0-.2.1-.3.2-.5.5-1.3,5-7.7,8.2-7.9.6,0,1.5.2,2.2,1.3.5,1,.4,2.1-.2,3.1-1.8,2.8-7.6,4.9-9.6,4.9h0c-1,3.3-1.3,7.9.6,11.2,1.1,1.9,2.8,3.2,5.1,3.6,3.4.7,6.8,0,9.5-1.7,2.6-1.7,4.4-4.4,5-7.6,0-.4.1-1,.1-1.6-3.1.9-6.1-.8-7.2-2.8-1-1.9-.4-4,1.6-5.6,1.4-1.1,2.7-1.3,3.7-.7,1.8,1.1,2.6,4.8,2.8,7.7,3.1-1.9,3.9-7.3,2.5-11.6-.5-1.4-2.3-5.9-6.4-4.6l-.3-.9c3.3-1,6.2,1,7.6,5.3,1.6,4.9.5,11-3.4,12.9,0,.9,0,1.7-.1,2.2-.7,3.4-2.6,6.4-5.4,8.2-2.1,1.4-4.7,2.2-7.3,2.2h0ZM140.7,19.1c-.5,0-1.2.3-1.9.8-1.7,1.3-2.2,2.9-1.4,4.4,1,1.8,3.7,3.1,6.3,2.3,0,0,0,0,0,0-.1-2.8-.8-6.4-2.3-7.3-.2-.1-.5-.2-.8-.2ZM131.2,15.4h0c-2.5.1-6.7,5.8-7.3,7.3,0,0,0,.1,0,.2,2-.2,7-2.1,8.5-4.4.5-.7.5-1.5.2-2.1-.4-.7-.9-.8-1.2-.8h0Z"/>
      <path class="cls-8" d="M126.8,86.5l-.8-.5c7.5-13.8,9.1-25.8,4.7-35.6-7-15.6-27-20.4-27.2-20.4l.2-.9c.2,0,20.6,4.9,27.8,21,4.6,10.1,3,22.4-4.7,36.5Z"/>
      <path class="cls-8" d="M121.5,74.8c-.9,0-1.6-.2-2-.6-.2-.2-.3-.5-.2-.9.2-1.2,2.8-2.8,4.9-4-3.1.4-7.4.6-8.1-1.5-.1-.4,0-.9.2-1.4.8-1.5,3.8-2.9,6.5-3.8-2.7,0-5.6-.3-6-2.2,0-.5,0-1,.4-1.4,1.8-2.2,9.9-2.3,10.9-2.3v1c-2.4,0-8.8.3-10.1,1.9-.2.2-.2.4-.2.6.4,1.9,6.1,1.6,9.6,1l.2.9c-2.5.7-9.4,2.8-10.4,4.8-.2.3-.1.5,0,.6.6,1.8,6.5,1.2,10.1.3l4.1-1-3.8,1.8c-3.9,1.9-7.3,4.2-7.1,4.9.7.8,4.4-.1,6.6-1l.3.9c-.7.3-3.7,1.3-5.8,1.3h0Z"/>
      <path class="cls-8" d="M97.7,37.9c-1.8,0-3.9-1.6-4.9-2.5-.3,1-.9,1.7-1.7,1.9-1.9.6-4.5-1.6-5.6-2.6-1.3,2-2.6,3-4,2.9-2.5-.2-4-4.3-4-4.4l.9-.3c.4,1,1.6,3.7,3.2,3.8,1,0,2.2-.9,3.4-2.9l.3-.5.4.5c.9.9,3.6,3.2,5.1,2.8.6-.2,1-.9,1.2-2v-.9c.1,0,.8.7.8.7.9.9,3.7,3.3,5.4,2.7.8-.3,1.3-1.2,1.5-2.8h1c-.3,2.1-1,3.3-2.2,3.7-.3,0-.6.1-.9.1h0Z"/>
      <path class="cls-8" d="M105.4,44.9c-1.8,0-3.9-1.6-4.9-2.5-.3,1-.9,1.7-1.7,1.9-1.9.6-4.5-1.6-5.6-2.6-1.3,2-2.6,3-4,2.9-2.5-.2-4-4.3-4-4.4l.9-.3c.4,1,1.6,3.7,3.2,3.8,1,0,2.2-.9,3.4-2.9l.3-.5.4.5c.9.9,3.6,3.2,5.1,2.8.6-.2,1-.9,1.2-2v-.9c.1,0,.8.7.8.7.9.9,3.8,3.3,5.4,2.7.8-.3,1.3-1.2,1.5-2.8h1c-.3,2.1-1,3.3-2.2,3.7-.3,0-.6.1-.9.1h0Z"/>
      <path class="cls-9" d="M127.7,101.3c-8.3,3.6-14.5-2.5-14.5-2.5l-23.4,8.8.5,5.6h.9c1.3,1.7-.7,4.7-1.5,4.9-1,.3-3.6-1.4-2.8-4l1.2-.6-2.6-4.6s-31.3-2.5-46.7-25.9c-14.1-21.4-8.8-49,34.4-54.3-7.9,22.5,38.8,21.8,38.8,21.8l1.8,35.6c5.9-2.5,10.2-3.3,13.3-3,10.8,1.1,7.1,15.2.7,18Z"/>
      <path class="cls-6" d="M121,97.2l-.8-.6c0,0,1.4-1.9,0-2.9-1.5-1.1-3.9.9-3.9.9l-.7-.7c.2-.2,5-5.9,11.1-4.9,2,.3,3.3,1.1,3.9,2.3.9,1.9-.2,4.1-.3,4.1l-.8-.5s1-1.8.3-3.3c-.5-.9-1.5-1.5-3.2-1.8-3.2-.5-6,1-7.9,2.5.7-.1,1.5,0,2.1.5,1.7,1.3.9,3.3.3,4.3h0Z"/>
      <path class="cls-6" d="M88.4,68.6l-3.6.3c.1-.4.2-.7.3-1l3.6-2.1-.5-.8-2.8,1.7c.3-1.4.4-2.5.5-2.6h-1s-1,8.2-4.5,10.6c-.9.6-1.8.8-2.9.5-1-.3-1.7-.8-2-1.7-1.4-3.5,3-10.7,3-10.7l-.8-.5c-.2.3-4.7,7.6-3.1,11.6.5,1.1,1.4,1.9,2.7,2.2.4.1.8.2,1.2.2.9,0,1.7-.3,2.5-.8,1.6-1.1,2.8-3.3,3.5-5.5l4-.4v-.9c0,0,0,0,0,0Z"/>
      <path class="cls-6" d="M72,60.4c0,0-.3,8.5-3.4,10.6-.8.5-1.6.6-2.6.2-1-.4-1.7-1-2.1-2-1.6-3.9,2.1-11.4,2.2-11.4l-.9-.4c0,.1-.5,1.1-1.1,2.4l-1.4-3-.9.4,1.8,3.8c-.1.3-.2.7-.3,1l-2.8-2.3-.6.7,3.2,2.5c-.6,2.2-.8,4.7,0,6.5.5,1.2,1.4,2.1,2.7,2.5.5.2,1,.3,1.5.3.7,0,1.4-.2,2-.6,3.5-2.4,3.8-11,3.8-11.4h-1s0,0,0,0Z"/>
      <path class="cls-6" d="M79.2,53.4l12.2,9.5-14.8-4.5,2.6-5.1Z"/>
      <path class="cls-6" d="M63.3,50.7l15.4,1.4-14.8,4.3-.6-5.7Z"/>
      <path class="cls-6" d="M87.6,72.6l-.6-.3v.7c-1.2,5.2-3.3,8.8-6.5,10.6-3.7,2.1-7.8,1.4-9.1,1l1-3.7h-.7c0,0-6,.2-7.8-2.1-.5-.7-.6-1.4-.4-2.4.3-1.1.8-1.7,1.5-1.9,1.7-.5,4.5,1.8,5.4,2.7l.7.7,1.1-7.5h-1c0-.1-.8,5.5-.8,5.5-1.2-1-3.7-2.9-5.7-2.4-1,.3-1.8,1.1-2.1,2.5-.4,1.3-.2,2.4.5,3.3,1.8,2.2,6.3,2.4,8,2.5l-.9,3.4h.4c.2.2,2.9,1.1,6.2.6,2.2,3.3,5.3,9.1,5,16.6-1-.3-1.9-.8-2.7-1.4l-.6.7c1.8,1.4,3.9,2.1,6.1,2.1s3.1-.4,4.7-1.1c4.6-2.1,7.6-6.9,7.9-12.4.4-11.9-9.5-17.7-9.6-17.8h0Z"/>
      <path class="cls-7" d="M89.6,101.1s-3.9-10.2,6-12.4c0,0,3.3,5.7-6,12.4Z"/>
      <path class="cls-3" d="M83.2,83.2s2.2,2.3,3.1,1.7c.8-.7-.4-3.6-.4-3.6,0,0,2.7,2.9,4.4,1.6,1.7-1.3-2.3-7.8-2.3-7.8l-4.8,8.2Z"/>
      <path class="cls-3" d="M102.3,174l-.3-2.5-9.2-.6-6.3-4.5-6-1.8c-5.3-.4-10.5.8-10.7,7.3h4.2c-.1.6-.2,1.3-.3,2h28.6Z"/>
      <path class="cls-9" d="M98.4,140.9l-8.7-1.4,1.8,24.9,2.9,4.9h4c0,0,3-4.1,3-4.1l-2.9-24.2Z"/>
      <path class="cls-6" d="M101.2,165.1c-2,1.5-4.1,1.6-5.5,1.4l-2-26.1h-1c0,0,1.9,24.2,1.9,24.2-1.3.3-2.4.1-3.2-.3l.2,3.1s-5.6-2.3-11.1-2.7l.4,1.5c-5.6.9-7.4,5.6-7.4,5.6l.9.3c0,0,2.5-6.2,10.5-5l1.5,4.8h10.2l5.4-.5-.8-6.4h0Z"/>
      <path class="cls-3" d="M55.8,111.5v-8.1l-31.7,12.8-4.1-44.5,49.9,21.3-3.2,12.9-7.7-2.3,3.2,7.8h-6.4Z"/>
      <path class="cls-4" d="M63.1,106.4v-18.2l8.8,2.4-3.2,16.7-5.6-.9Z"/>
      <path class="cls-6" d="M25.3,114l-3.2-38.6s10.9,4.3,15.5,17.1c4.6,12.8-12.3,21.5-12.3,21.5h0Z"/>
      <path class="cls-4" d="M33.1,112.2l-.6-.8c0,0,8.2-6.5,8.1-15.9,0-6.7-4.4-13.3-12.9-19.5l.6-.8c8.7,6.4,13.1,13.2,13.2,20.3.1,9.8-8.1,16.3-8.4,16.6h0Z"/>
      <path class="cls-4" d="M35,102.9l-7.2-4.6-.4-3.2,7.6-6.1s5.3,8.4,0,13.9h0Z"/>
      <path class="cls-9" d="M83.1,120.8s-13.6,11.6-18.7,9.8c-5.1-1.8-2.7-13.9-2.7-13.9,0,0-4.5,4.8-7.3,3.2-2.8-1.6-1-13.5-1-13.5l12.5,2.9.6,15.9,15.2-6.2,1.4,1.8Z"/>
      <path class="cls-6" d="M63.1,108.8l-.5,1.9c-.4,1.5-1.3,3.7-2,3.8-.3-.4-.1-3,.5-5.7l-.9-.2c0,.4-.2,1.1-.3,1.7l-6.5-1.2-.2.9,6.6,1.2c0,.5-.1,1.1-.1,1.6h-6.3v1h6.3c0,.6.2,1,.4,1.3,0,0,.2.1.3.2v.5c0,0-7.1.9-7.1.9v.9c.1,0,7.2-.9,7.2-.9v.8c0,0,1-.1,1-.1l-.3-2.3c.8-.4,1.4-1.6,1.9-2.6l.2.9.9-.2-1-4.5h0Z"/>
      <path class="cls-9" d="M109.7,120.7c-.5-4.3-11.1-4.4-11.1-4.4l-.2,2.2,7.5,3.5-8.5,3.3,1.8,5.3s11-5.6,10.5-9.9h0Z"/>
      <path class="cls-5" d="M110.5,137.1c-21.9,18.3-34.5-2.5-34.5-2.5l9.1-6.4,16.5-1.3,8.8,10.2Z"/>
      <path class="cls-2" d="M106.5,134.3l-.6-.8c-1.4,1-2.8,1.9-4.2,2.5l-1.1-2.9c1.2-.6,2.3-1.5,3.3-2.6l-.7-.6c-.9,1-1.9,1.7-2.9,2.3l-.7-1.8-.9.3.7,1.9c-1.4.6-2.9,1-4.4,1.1l-.2-1.7h-1c0,.1.2,1.8.2,1.8-1.6,0-3.3,0-4.8-.2l.3-1.4-.9-.2-.3,1.4c-1.3-.2-2.5-.5-3.5-.8l.7-1-.8-.6-.9,1.2c-1.2-.4-1.9-.7-2-.7l-.4.9c.1,0,.8.3,1.8.6l-1.7,2.4c-1.5-.8-2.3-1.5-2.5-1.6l-.6.7s1,.8,2.5,1.6l-1,1.4.8.6,1-1.5c1.4.7,3.2,1.4,5.3,1.9l-.7,3,.9.2.7-3.1c1.2.2,2.6.4,4,.4s1.8,0,2.7-.2l.7,4.5h1c0-.1-.7-4.6-.7-4.6,1.7-.3,3.5-.8,5.4-1.6l1.2,3.3.9-.3-1.3-3.3c1.4-.7,2.9-1.6,4.4-2.7h0ZM82.5,136.1l1.8-2.5c1.1.3,2.4.7,3.9.9l-.7,3.4c-2-.4-3.6-1.1-5-1.8ZM88.4,138.1l.7-3.5c1.2.2,2.4.3,3.7.3s1,0,1.4,0l.5,3.4c-2.3.3-4.5.2-6.4-.2h0ZM95.7,138.1l-.5-3.3c1.5-.2,3.1-.6,4.6-1.2l1.1,2.9c-1.8.8-3.5,1.3-5.2,1.6Z"/>
      <path class="cls-1" d="M94.1,118.3l7.5,8.6c-8.7,7.9-16.5,1.3-16.5,1.3l1.2-7.6-4.6,5.2-3.3-7.5,8.4-4.1c.7.8,1.6,1.6,2.6,1.2.9-.3,1.4-1.2,1.8-2.1l10.9,1.4-2.2,7.3-5.8-3.8Z"/>
    </g>
  </g>
</svg>