<svg width="221" height="173" viewBox="0 0 221 173" fill="none" xmlns="http://www.w3.org/2000/svg">
<circle cx="105.5" cy="86.5" r="86.5" fill="#CCFBF1"/>
<path d="M6.83 137.746L0 40.2756H135.49L131.16 138.566L6.83 137.746Z" fill="#8A5AFF"/>
<path d="M70.47 94.7457L61.1 94.8357L60.27 71.5557L63.15 71.5157L58.67 54.6257L15.7 55.8857L12.48 72.1157L59.15 71.5657L59.97 94.8457L30.35 95.1157V83.4157L22.42 83.7157L23.25 95.1857L18.63 95.2257L17.52 72.0957L16.4 72.1457L17.52 95.2357L12.47 95.2857L12.48 96.4057L70.48 95.8657L70.47 94.7457Z" fill="#173E63"/>
<path d="M15.86 64.4257L24.33 57.6357L34.47 63.8757L15.85 64.4257H15.86ZM24.42 59.0057L19.17 63.2057L30.7 62.8657L24.42 59.0057Z" fill="#8A5AFF"/>
<path d="M38.5399 63.9758L47.0099 57.1858L57.1499 63.4258L38.5399 63.9758ZM47.0899 58.5558L41.8499 62.7558L53.3799 62.4158L47.0999 58.5558H47.0899Z" fill="#8A5AFF"/>
<path d="M18.71 72.8657L19.49 79.9257L33.15 80.0157V72.8657H18.71ZM32.03 75.8857H26.69V73.9957H32.03V75.8857ZM25.57 73.9857V75.8757H20.17L19.96 73.9857H25.57ZM20.29 77.0057H25.56V78.8557L20.48 78.8157L20.28 77.0057H20.29ZM26.69 78.8557V76.9957H32.03V78.8857L26.69 78.8457V78.8557Z" fill="#173E63"/>
<path d="M41.39 72.8657L42.17 79.9257L55.83 80.0157V72.8657H41.39ZM54.71 75.8857H49.88L49.81 73.9957H54.71V75.8857ZM48.68 73.9857L48.75 75.8757H42.85L42.64 73.9857H48.68ZM42.97 77.0057H48.79L48.86 78.8557L43.18 78.8157L42.98 77.0057H42.97ZM49.97 78.8657L49.9 77.0057H54.7V78.8957L49.97 78.8657Z" fill="#173E63"/>
<path d="M41.2999 82.0456L42.3499 92.0456H55.4299L55.9499 81.5356L41.2999 82.0456ZM54.5899 86.2456H49.7799V82.8756L54.7599 82.7056L54.5799 86.2556L54.5899 86.2456ZM48.6699 82.9056V86.2356H42.8699L42.5399 83.1156L48.6699 82.9056ZM42.9799 87.3556H48.6599V90.9256H43.3499L42.9799 87.3556ZM49.7799 90.9256V87.3556H54.5299L54.3499 90.9256H49.7699H49.7799Z" fill="#173E63"/>
<path d="M48.78 105.656H19.73V109.016H48.78V105.656Z" fill="white"/>
<path d="M64.0999 111.986H20.4299V115.346H64.0999V111.986Z" fill="white"/>
<path d="M20.9291 118.337L20.837 121.696L43.3786 122.314L43.4706 118.955L20.9291 118.337Z" fill="white"/>
<path d="M72.77 50.3857L77.71 122.006L77.75 122.526L121.51 122.986L123.54 48.8657L72.77 50.3857ZM121.92 66.9657L100.56 66.5057L100.35 50.6757L122.39 50.0157L121.93 66.9657H121.92ZM90.44 121.536L90.16 110.006H85.41V111.126H89.06L89.31 121.526L78.79 121.416L78.08 111.126H82.23V110.006H78L77.49 102.626L96.15 102.036L96.11 100.916L77.41 101.506L76.41 87.0557L100.13 86.9457V85.8257L76.33 85.9357L73.95 51.4557L99.21 50.7057L99.56 77.0857H100.68L100.56 67.6257L121.88 68.0857L120.99 100.676L100.12 100.916V102.036L120.95 101.796L120.4 121.846L90.42 121.526L90.44 121.536Z" fill="#173E63"/>
<path d="M6.15002 46.1455L10.97 129.956L127.29 134.496L128.95 43.9055L6.15002 46.1455ZM125.08 132.176L12.03 128.886L8.28002 48.8655L126.17 45.0555L125.08 132.176Z" fill="white"/>
<path d="M191.56 120.816C191.07 120.486 190.59 120.156 190.1 119.846C188.76 119.016 187.31 115.926 189.59 115.666C190.98 115.516 193.08 117.246 190.46 116.316C188.33 115.556 186.63 114.156 186.48 111.716C186.23 107.666 191.99 107.556 193.68 110.096C193.76 109.756 193.85 109.426 193.93 109.086C193.46 109.036 192.99 108.996 192.52 108.946C192.06 108.856 192.05 109.656 192.38 109.826C193.28 110.286 192.96 110.186 193.96 110.266C194.35 110.296 194.39 109.596 194.27 109.376C192.54 106.046 186.47 106.086 185.73 110.206C185.42 111.936 185.57 114.106 186.92 115.416C187.71 116.186 190.76 118.276 191.91 117.496C193.75 116.246 190.35 114.216 189.01 114.616C187.7 115.006 187.1 116.346 187.37 117.666C187.75 119.516 189.87 120.576 191.53 120.916C191.58 120.916 191.59 120.836 191.55 120.816H191.56Z" fill="#603DD1"/>
<path d="M173.12 42.1356C173.54 40.0456 174.95 39.5156 176.74 39.2256C178.76 38.9056 180.32 40.5056 178.42 42.2856C177.79 42.8756 177.01 43.3456 176.28 43.8156C176.01 44.0756 175.7 44.1556 175.35 44.0456C175.82 43.8456 176.58 43.8356 177.09 43.9456C182.1 44.9756 180.04 52.4256 177.56 54.8156C177.44 54.9356 177.47 55.4156 177.7 55.2956C181.1 53.5756 181.69 48.6456 180.43 45.4256C179.9 44.0656 178.44 42.6156 176.91 42.5356C175.45 42.4556 173.9 42.8656 173.96 44.5556C174.05 47.0756 180.86 42.8956 180.46 40.5356C179.77 36.4856 172.46 37.8156 172.92 42.1056C172.94 42.2556 173.08 42.3156 173.12 42.1456V42.1356Z" fill="#603DD1"/>
<path d="M220.81 86.5456C220.37 91.6156 216.79 97.9056 211.9 99.9056C211.24 100.196 210.07 100.506 208.85 100.596C209.65 103.536 209.36 107.016 207.97 109.596C206.64 112.026 204.01 112.966 201.75 111.726C200.72 115.356 198.27 117.986 193.38 116.936C191.52 116.576 187.65 114.366 185.92 111.836C185.78 112.706 185.56 113.496 185.44 113.886C184.57 116.416 181.77 119.386 178.89 118.076C177.36 117.376 176.52 115.906 176.14 114.236C175.71 114.776 175.22 115.306 174.7 115.806C171.03 119.476 166.05 123.236 160.55 122.276C157.47 121.736 155.21 119.836 155.42 116.886C152.11 115.306 148.25 109.796 147.62 108.466C142.28 97.4656 148.53 82.7956 159.88 78.8056C158.87 76.2256 158.87 72.9656 159.41 70.7256C160.95 64.2056 165.44 59.8356 171.28 57.6256C170.05 53.6256 169.33 48.6656 172.52 46.6156C175.13 44.9856 178.29 47.2156 180.38 50.2756C180.38 50.2456 180.38 50.2256 180.38 50.2056C180.73 44.7856 184.05 38.7556 189.55 37.1856C195.23 35.5356 200.21 38.4156 201.34 44.1756C201.66 45.8556 201.75 47.5156 201.62 49.1556C202.9 48.5056 204.28 48.1456 205.7 48.1956C214.56 48.5456 211.65 57.4756 207.83 63.1056C209.8 62.5356 211.93 62.3856 213.74 62.6156C217.41 63.1356 218.89 66.0256 216.8 69.0856C215.92 70.3856 214.85 71.4856 213.63 72.4356C218.76 74.5856 221.3 81.2656 220.82 86.5556L220.81 86.5456Z" fill="#603DD1"/>
<path d="M159.38 107.126C158.49 110.626 164.48 112.336 166.9 111.656C171.6 110.336 176.55 105.486 176.28 100.296C176.23 99.2755 175.15 99.4255 174.56 99.8855C172.97 101.106 172.26 102.906 171.93 104.836C171.21 109.126 173.86 112.436 178.26 112.186C182.68 111.936 186.91 107.896 189.31 104.466C190.68 102.496 193.46 98.5955 191.85 96.1155C191.2 95.1155 189.56 95.2555 188.65 95.7255C187.41 96.3655 187.12 98.1655 187 99.3755C186.62 103.096 187.83 106.816 190.49 109.436C193.5 112.416 197.53 111.806 200.49 109.216C200.63 109.096 200.53 108.676 200.33 108.826C196.81 111.406 192.76 110.916 189.91 107.666C188.06 105.546 187.54 102.696 187.56 99.9655C187.56 98.6155 187.87 97.0355 189.17 96.3555C191.45 95.1555 191.9 98.0455 191.3 99.6355C190.52 101.726 189.13 103.756 187.68 105.446C185.41 108.086 182.36 110.366 178.94 111.156C173.84 112.326 171.51 107.686 172.75 103.356C172.95 102.656 173.32 102.016 173.72 101.416C174.29 100.276 175.04 100.366 175.97 101.666C175.78 102.756 175.4 103.776 174.82 104.726C173.88 106.486 172.4 107.906 170.83 109.106C169.05 110.466 166.91 111.276 164.66 111.236C163.14 111.216 159.13 109.346 159.56 107.226C159.58 107.106 159.42 106.956 159.38 107.116V107.126Z" fill="#173E63"/>
<path d="M196.83 83.5956C195.01 84.2656 192.92 86.1856 193.06 88.3456C193.16 89.9156 193.95 91.4056 195.68 91.6056C197.84 91.8556 200.03 91.0256 201.44 89.3556C201.88 88.8356 202.78 86.6556 201.69 86.2356C200.13 85.6256 199.25 87.8056 198.98 88.9256C198.49 90.9956 198.57 93.1356 199.62 95.0456C201.05 97.6456 203.18 99.3756 206.2 99.6156C209.55 99.8856 212.44 96.9056 214.26 94.4856C214.33 94.3856 214.23 94.0556 214.11 94.1956C211.59 96.9556 208.57 99.3856 204.61 98.5256C201.08 97.7656 198.85 93.4856 199.21 90.1456C199.28 89.6256 199.39 89.1156 199.54 88.6156C199.67 88.3056 199.8 87.9956 199.93 87.6856C200.66 86.3556 201.23 86.5256 201.63 88.1856C201.22 89.6056 199.51 90.3856 198.25 90.8256C197.13 91.2156 195.9 91.1756 194.81 90.7356C191.08 89.2256 194.87 84.7056 196.91 83.8756C197.03 83.8256 196.99 83.5356 196.85 83.5856L196.83 83.5956Z" fill="#173E63"/>
<path d="M194.71 80.6157C192.05 79.6757 191.22 76.2657 192.4 73.8657C193.12 72.4057 194.88 71.8057 196.36 71.6157C197.86 71.4257 199.39 71.8357 200.66 72.6057C201.33 73.0157 201.82 73.6657 202.18 74.3457C203.39 76.6157 199.81 78.6457 200.31 74.8657C201.27 67.6357 210.55 66.2557 216.29 67.4257C216.42 67.4457 216.44 67.2057 216.33 67.1657C211.08 65.4457 204.72 66.2857 201.29 70.9757C200.34 72.2857 198.95 75.4157 200.01 77.0057C200.81 78.2057 202.05 77.5357 202.62 76.4857C204.73 72.5757 197.93 70.3157 195.28 71.0957C190.8 72.4157 189.89 79.1257 194.69 80.7057C194.74 80.7257 194.75 80.6157 194.71 80.5957V80.6157Z" fill="#173E63"/>
<path d="M206.4 82.6856C204.58 84.1256 204.03 86.8956 204.84 89.0556C205.37 90.4456 207.44 93.1756 209.23 91.7456C210.62 90.6456 210.6 88.5056 210.35 86.9156C210.19 85.9056 209.35 83.9156 208.24 85.3556C206.98 86.9956 209.46 89.2456 210.76 89.6156C213.25 90.3356 216.62 88.6256 217.52 86.1956C219.16 81.7456 215.29 74.2656 209.94 77.3556C209.86 77.3956 209.87 77.6156 209.99 77.5756C213.2 76.4256 215.79 78.0956 217.09 81.0956C218.93 85.3456 215.75 89.0156 211.44 88.9756C210.22 88.9656 209.27 88.3156 208.78 87.2356C209.02 86.7256 209.27 86.2256 209.51 85.7156C209.7 86.0256 209.84 86.3556 209.91 86.7156C210.25 87.9256 210.17 89.4156 209.6 90.5456C208.66 92.4256 206.34 90.7656 205.59 89.6956C204.18 87.6956 204.65 84.3756 206.46 82.8456C206.52 82.7956 206.48 82.6156 206.39 82.6856H206.4Z" fill="#173E63"/>
<path d="M181.42 63.2657C178.54 62.2957 175.87 57.0257 179.35 55.1457C181.04 54.2357 183.42 54.9257 185.04 55.6257C185.52 55.8457 185.96 56.1157 186.38 56.4357C187.99 57.5257 187.88 58.5157 186.06 59.4057C185.26 58.4257 184.96 56.9357 184.67 55.7357C183.82 52.2257 184.17 48.4657 186.08 45.3657C187.23 43.5057 188.98 41.9257 190.87 40.8457C194.21 38.9457 197.32 41.1857 196.86 44.9957C196.72 46.1557 196.17 47.2257 195.54 48.1857C195.24 48.6157 194.88 48.9857 194.46 49.3057C194.35 48.8457 194.24 48.3757 194.13 47.9157C194.56 47.6957 195.01 47.5457 195.49 47.4757C199.25 46.8257 199.95 51.3057 199.3 53.9357C199.25 54.1557 199.55 54.4457 199.63 54.1357C200.56 50.7957 199.5 46.8157 195.47 46.7757C194.3 46.7757 192.6 47.7057 192.4 48.9657C192.2 50.2657 193.17 50.7057 194.2 50.1457C197.2 48.5257 198.16 43.7257 196.5 40.9457C194.07 36.8557 188.59 41.0657 186.72 43.3857C183.41 47.5057 183.13 52.7057 184.67 57.6157C185.12 59.0657 185.89 60.9557 187.65 60.8457C188.82 60.7757 188.01 58.0657 187.84 57.5957C186.84 54.7657 181.24 52.8857 178.79 54.7457C176.15 56.7557 177.45 61.7657 180.26 63.0757C180.61 63.2857 180.99 63.4157 181.39 63.4757C181.5 63.5057 181.51 63.2857 181.43 63.2557L181.42 63.2657Z" fill="#173E63"/>
<path d="M190.71 65.3757C190.23 68.4357 195.86 68.2457 196.76 65.8957C197.09 65.0357 197.66 61.8757 195.86 61.8257C194.87 61.7957 194.03 63.1657 194.95 63.9257C198.98 67.2857 205.15 62.5957 207.39 59.2857C208.63 57.4557 209.29 55.1057 208.52 52.9757C207.72 50.7657 204.66 50.2857 203.11 51.7757C203.04 51.8357 203.07 52.1057 203.19 52.0357C204.69 51.1557 206.04 51.2757 207.45 52.2957C209.67 53.8957 208.05 57.2157 207.08 58.8357C205.74 61.0957 203.33 62.8357 200.92 63.7557C199.28 64.3857 197.43 64.3357 195.79 63.7557C196.49 65.3657 196.29 66.3557 195.2 66.7357C194.77 66.8957 194.33 66.9957 193.87 67.0257C192.77 67.1657 190.88 66.9357 190.84 65.3857C190.84 65.2857 190.72 65.2357 190.7 65.3557L190.71 65.3757Z" fill="#173E63"/>
<path d="M186.51 68.8357C182.55 68.3257 179.64 73.9457 181.32 77.3257C183.05 80.7857 187.19 78.7057 186.89 75.2657C186.81 74.3557 185.9 74.5957 185.47 75.0157C184.45 76.0057 184.33 78.1857 184.3 79.4857C184.22 83.2357 186.57 87.8057 190.89 86.8757C191.05 86.8457 191.06 86.4857 190.89 86.4957C186.18 86.7457 184.37 81.9057 184.82 77.8857C184.88 77.4557 184.98 77.0357 185.11 76.6157C185.2 75.8857 185.65 75.8957 186.44 76.6557C185.76 78.9257 182.94 79.6757 181.59 77.0757C179.92 73.8457 182.83 68.5957 186.51 68.8957C186.54 68.8957 186.54 68.8357 186.51 68.8257V68.8357Z" fill="#173E63"/>
<path d="M145.87 35.0056C144.44 34.9756 143.01 35.0656 141.58 35.2656L131.16 44.8856L132.14 81.7656L153.68 94.5356L175.44 90.8156L179.54 84.1656C183.67 65.6156 168.18 35.5056 145.87 35.0056Z" fill="#603DD1"/>
<path d="M179.55 84.1657L175.45 90.8157L175.36 90.8357L178.76 85.1457C182.06 69.8457 172.81 46.9157 157.55 38.1057C173.28 46.3257 182.91 69.0657 179.55 84.1657Z" fill="#173E63"/>
<path d="M143.51 38.5356C136.04 56.1356 153.13 77.7856 171.71 76.3456C171.89 76.3356 171.88 75.9556 171.7 75.9456C163.81 75.4456 156.62 72.5556 150.99 66.9356C143.89 59.8456 140.01 48.4056 143.83 38.8156C143.92 38.5756 143.65 38.2056 143.51 38.5456V38.5356Z" fill="#173E63"/>
<path d="M146.22 45.5657C144.82 51.2857 149.78 58.5257 153.46 62.4757C158.42 67.8157 165.84 70.4157 173.02 69.8857C173.22 69.8757 173.21 69.4457 173.01 69.4457C166.57 69.3357 160.41 67.4257 155.39 63.3257C153.05 61.4157 151.33 58.9957 149.8 56.4357C147.91 53.2857 145.69 49.4857 146.49 45.6757C146.54 45.4557 146.29 45.3057 146.22 45.5757V45.5657Z" fill="#173E63"/>
<path d="M182.81 90.0356C178.88 97.8056 162.89 97.1056 162.89 97.1056L164.2 125.576H159.17C159.17 125.576 153.27 120.246 137.73 115.186C122.18 110.116 102.96 103.136 100.95 84.8756C99.07 67.7356 119.66 38.3556 141.56 35.2656C119.8 67.8156 159.03 88.9856 159.03 88.9856C164.98 83.9556 174.32 82.5856 179.52 84.1656C182.63 85.1156 184.26 87.1256 182.79 90.0356H182.81Z" fill="#FFCE3B"/>
<path d="M102.28 89.0656C100.99 89.0656 99.74 88.8356 98.56 88.3756C95.18 87.0656 92.71 84.0556 91.61 79.8956C90.53 75.8256 90.89 71.1256 92.62 66.6656C95.52 59.1856 101.82 53.9556 107.93 53.9556C109.22 53.9556 110.48 54.1856 111.65 54.6456C118.54 57.3156 121.2 67.0556 117.59 76.3556C114.69 83.8356 108.39 89.0656 102.29 89.0656H102.28ZM107.92 55.5356C102.45 55.5356 96.75 60.3456 94.08 67.2356C92.47 71.3856 92.13 75.7456 93.12 79.4956C94.09 83.1556 96.22 85.7856 99.12 86.9156C100.12 87.2956 101.18 87.4956 102.28 87.4956C107.75 87.4956 113.45 82.6856 116.12 75.7856C119.41 67.2956 117.15 58.4656 111.07 56.1056C110.07 55.7156 109.01 55.5256 107.91 55.5256L107.92 55.5356Z" fill="#52A3FF"/>
<path d="M128.71 95.8457C127.33 95.8457 126 95.5957 124.74 95.1157C117.39 92.2557 114.55 81.8557 118.4 71.9157C121.5 63.9157 128.23 58.3257 134.75 58.3257C136.13 58.3257 137.47 58.5757 138.73 59.0657C146.08 61.9157 148.93 72.3257 145.07 82.2657C141.97 90.2657 135.24 95.8557 128.71 95.8557V95.8457ZM134.75 59.8957C128.86 59.8957 122.74 65.0757 119.86 72.4857C116.32 81.6157 118.76 91.1157 125.3 93.6557C126.38 94.0757 127.52 94.2857 128.7 94.2857C134.59 94.2857 140.72 89.1157 143.59 81.7057C147.13 72.5757 144.69 63.0757 138.15 60.5357C137.07 60.1157 135.93 59.9057 134.74 59.9057L134.75 59.8957Z" fill="#52A3FF"/>
<path d="M163.34 91.3655L143.24 84.9455L143.96 82.4255L164.12 84.3555L163.34 91.3655Z" fill="#52A3FF"/>
<path d="M138.39 105.846L135.34 108.206C135.34 108.206 136.52 111.306 140.26 111.266C143.99 111.226 144.65 105.016 141.85 103.406L138.39 105.856V105.846Z" fill="#FF5FD9"/>
<path d="M140.45 99.6854L133.9 98.8554C133.9 98.8554 133.06 96.8854 135.01 95.8454C136.96 94.7954 139.41 95.1954 141.15 97.7654L140.45 99.6854Z" fill="#FF5FD9"/>
<path d="M135.1 108.116C139.4 109.696 143.15 107.906 143.24 103.746C143.34 98.8256 139.57 94.2856 139.57 94.2856C139.57 94.2856 139.26 99.1756 133.55 98.7656C134.31 100.746 135.18 103.926 135.11 108.116H135.1Z" fill="white"/>
<path d="M138.1 108.996C136.35 108.996 134.4 108.376 132.55 107.186L132.89 106.656C135.64 108.436 138.6 108.866 140.64 107.786C142.07 107.026 142.89 105.586 142.92 103.736C143 99.9756 140.72 96.4056 139.75 95.0556C139.55 95.8856 139.02 97.2256 137.69 98.1456C135.98 99.3256 133.53 99.4256 130.38 98.4556L130.56 97.8556C133.52 98.7656 135.8 98.6856 137.33 97.6256C139.09 96.4056 139.25 94.2856 139.25 94.2656L139.3 93.4756L139.8 94.0856C139.96 94.2756 143.64 98.7656 143.54 103.746C143.5 105.836 142.57 107.466 140.92 108.336C140.09 108.776 139.13 108.996 138.09 108.996H138.1Z" fill="#173E63"/>
<path d="M138.35 94.3855C138.35 94.3855 140.63 93.2355 142.62 94.7955C142.62 94.7955 140.1 91.8855 137.88 93.9555L138.34 94.3855H138.35Z" fill="#173E63"/>
<path d="M143.19 102.455L137.31 104.305L142.92 101.105" fill="#173E63"/>
<path d="M105.52 66.0156L116.68 67.4156L105.5 68.6356L105.52 66.0156Z" fill="#603DD1"/>
<path d="M127.62 67.0557L140.25 73.0057L126.73 69.5257L127.62 67.0557Z" fill="#603DD1"/>
<path d="M116.42 79.4556C116.42 79.4556 114.76 84.4456 110.84 87.1556C110.84 87.1556 107.13 84.1156 106.04 85.5856C104.95 87.0556 110.49 90.6456 117.13 90.8256C117.13 90.8256 116.71 87.9256 114.73 89.0756" fill="#FFCE3B"/>
<path d="M117.44 91.0955H117.13C111.47 90.9355 106.64 88.3255 105.8 86.5955C105.53 86.0355 105.67 85.6555 105.84 85.4255C106.05 85.1455 106.34 84.9755 106.72 84.9355C108.09 84.7655 110.26 86.3655 110.86 86.8255C114.56 84.1755 116.17 79.4255 116.19 79.3755L116.69 79.5455C116.62 79.7555 114.96 84.6555 111.01 87.3755L110.85 87.4855L110.7 87.3655C110 86.7855 107.92 85.3255 106.8 85.4655C106.57 85.4955 106.4 85.5855 106.28 85.7555C106.24 85.8155 106.1 85.9955 106.29 86.3755C107.04 87.9255 111.6 90.3355 116.84 90.5655C116.72 90.0955 116.45 89.3855 115.97 89.1555C115.67 89.0155 115.32 89.0655 114.9 89.3155L114.64 88.8655C115.22 88.5255 115.74 88.4655 116.2 88.6955C117.17 89.1655 117.41 90.7455 117.42 90.8155L117.47 91.1255L117.44 91.0955Z" fill="#173E63"/>
<path d="M170.67 98.0157C170.67 99.9357 169.65 101.486 168.4 101.486C167.15 101.486 166.13 99.9357 166.13 98.0157C166.13 96.0957 167.15 94.5457 168.4 94.5457C169.65 94.5457 170.67 96.0957 170.67 98.0157Z" fill="white"/>
<path d="M180.12 91.9055C180.12 91.9055 179.45 87.4355 175.08 86.9555C170.7 86.4855 167.33 88.5755 167.64 91.2955C167.96 94.0155 175.55 95.8555 173.85 91.0955L176.2 91.4055L173.04 90.4555C173.04 90.4555 174.92 93.5655 171.6 93.5555C168.29 93.5355 167.11 90.3455 169.19 88.7855C171.27 87.2355 176.95 85.6955 180.13 91.9055H180.12Z" fill="#173E63"/>
<path d="M138.63 81.0855C138.35 83.2755 137.33 84.9455 136.35 84.8255C135.37 84.7055 134.8 82.8255 135.08 80.6355C135.36 78.4455 136.38 76.7755 137.36 76.8955C138.34 77.0255 138.91 78.8955 138.63 81.0855Z" fill="#173E63"/>
<path d="M113.74 75.7156C113.46 77.9056 112.44 79.5756 111.46 79.4556C110.48 79.3256 109.91 77.4556 110.19 75.2656C110.47 73.0756 111.49 71.4056 112.47 71.5256C113.45 71.6456 114.02 73.5256 113.74 75.7156Z" fill="#173E63"/>
<path d="M114.68 113.976C114.02 113.146 111.49 113.576 109.03 114.556C103.27 109.716 88.65 102.926 87.95 105.506C87.16 108.386 105.33 115.376 105.33 115.376C105.33 115.376 97.64 122.186 100.26 125.856C102.88 129.526 108.03 126.206 108.03 126.206L110.74 130.926L114.23 125.946L112.31 121.756C112.31 121.756 116.07 115.726 114.67 113.986L114.68 113.976Z" fill="#FFCE3B"/>
<path d="M114.01 126.046L112.03 121.726L112.1 121.606C113.12 119.976 115.53 115.446 114.48 114.136C113.96 113.486 111.63 113.786 109.06 114.816C105.99 116.046 103.92 117.736 104.03 118.926C104.08 119.526 104.44 119.866 105.11 119.966C106.97 120.256 110.54 118.456 111.39 116.406L111.87 116.606C110.92 118.906 107.09 120.796 105.03 120.486C104.13 120.346 103.59 119.816 103.51 118.976C103.35 117.206 106.3 115.366 108.87 114.336C111.12 113.426 114.04 112.756 114.89 113.806C116.29 115.556 113.25 120.736 112.62 121.766L114.48 125.836L114 126.056L114.01 126.046Z" fill="#173E63"/>
<path d="M107.81 126.526L107.29 126.436L108.44 119.046L108.96 119.126L107.81 126.526Z" fill="#173E63"/>
<path d="M100.507 121.509L100.142 121.88L105.716 127.365L106.081 126.994L100.507 121.509Z" fill="#173E63"/>
<path d="M107.62 125.036L101.75 119.266L102.12 118.896L107.99 124.666L107.62 125.036Z" fill="#173E63"/>
<path d="M114.42 123.226L107.35 131.436C107.35 131.436 117.78 159.316 136.17 159.766C154.57 160.226 161.94 141.036 161.94 141.036L157.75 136.926C157.75 136.926 148.87 148.466 138.16 148.856C127.44 149.246 114.43 123.216 114.43 123.216L114.42 123.226Z" fill="#52A3FF"/>
<path d="M183.68 162.186C174.25 169.786 157.65 164.196 157.65 164.196L158.92 155.366L157.7 154.896L159.65 142.096L153.33 138.956L158.34 127.426L152.05 124.106L165.76 116.856L165.58 127.336C165.58 127.336 193.09 154.586 183.66 162.186H183.68Z" fill="#52A3FF"/>
<path d="M153.34 168.526L131.54 170.786L122.97 137.906L151.76 132.176L153.34 168.526Z" fill="#173E63"/>
<path d="M132.14 168.986L132.09 168.766L125.08 140.016L150.54 133.916V134.236L152.01 167.306L132.14 168.986ZM125.71 140.406L132.54 168.426L151.46 166.826L150.04 134.576L125.71 140.396V140.406Z" fill="white"/>
<path d="M132.93 139.756L143.57 137.596C143.57 137.596 141.77 131.706 136.66 132.946C131.55 134.196 132.93 139.756 132.93 139.756Z" fill="#603DD1"/>
<path d="M158.93 155.366L158.22 160.306L155.23 159.086C154.51 160.406 153.79 161.516 153.08 162.426C144.85 173.046 137.72 158.066 137.72 158.066L152.7 153.686L152.5 148.906C156.82 148.436 155.88 154.196 155.88 154.196L157.72 154.906L158.94 155.376L158.93 155.366Z" fill="#FFCE3B"/>
<path d="M142.32 160.246C140.16 160.246 138.54 159.866 138.5 159.856L138.62 159.346C138.71 159.366 147.97 161.516 151.5 155.286L151.96 155.546C149.75 159.446 145.47 160.246 142.32 160.246Z" fill="#173E63"/>
<path d="M144.56 163.386C142.34 163.386 140.59 162.786 140.56 162.776L140.74 162.286C141.06 162.396 148.6 164.976 151.85 158.706L152.31 158.946C150.44 162.556 147.18 163.386 144.57 163.386H144.56Z" fill="#173E63"/>
<path d="M145.29 165.626C144.22 165.626 143.52 165.416 143.5 165.406L143.66 164.906C143.87 164.976 148.79 166.416 152.3 160.836L152.74 161.116C150.34 164.936 147.22 165.616 145.29 165.616V165.626Z" fill="#173E63"/>
<path d="M157.66 164.196L158.28 154.556H178.13L168.86 134.256L180.09 155.416H159.46L158.93 164.576L157.66 164.196Z" fill="#173E63"/>
</svg>
