<?xml version="1.0" encoding="UTF-8"?>
<svg xmlns="http://www.w3.org/2000/svg" version="1.1" viewBox="0 0 192 190">
  <defs>
    <style>
      .cls-1 {
        fill: #edded1;
      }

      .cls-2 {
        fill: #7ab2fd;
      }

      .cls-3 {
        fill: #6d75fe;
      }

      .cls-4 {
        fill: #4e2957;
      }

      .cls-5 {
        fill: #ffabe7;
      }
    </style>
  </defs>
  <!-- Generator: Adobe Illustrator 28.6.0, SVG Export Plug-In . SVG Version: 1.2.0 Build 709)  -->
  <g>
    <g id="Capa_1">
      <path class="cls-1" d="M166.1,117.3c.2-4.4-16.6-15.3-23.5-19.5l15.3-62.9L50.8,13.9l-14.1,74.7c-5.6,4-13,8.1-16.2,4.7-5.6-5.8,1.6-27.4,15.2-38.4l-4.4-6.7s-6.9,5.6-5.1,12.4l-21.6-8.4s-10.2,30.7,12.3,20.5c0,0-6.5,23.2,3.1,25.8,4.3,1.1,10.5-1.9,15.9-5.6l-8,42.4,102.1,14,1.8-7.2c13.9,11.7,26.2-3.2,26.2-3.2v-6.6l-15.8,2.4c1.1-5.9-2.5-8.8-2.5-8.8,0,0,26.2-3.1,26.4-8.7ZM160.5,115.6c-.6,3.5-15.6,4.9-23.6,5.4l5-20.5c6.4,3.7,19.1,11.6,18.5,15.2Z"/>
      <path class="cls-3" d="M157,36.6l-27.5,112.6,1,.2,27.5-112.6-1-.2Z"/>
      <path class="cls-4" d="M145.1,140.3c5.7,0,12.8-4.7,13.2-4.9l-.6-.8c-.1,0-11.1,7.3-16.1,3.8.2-.6.5-1.2.6-1.7,1.2.7,2.5,1,3.8,1,5.5,0,11.9-4.6,12.2-4.9l-.6-.8c-.1,0-9.9,7.2-15.2,3.7,1.5-6.5-2.4-10-2.5-10l-.7.8c0,0,5.9,5.2-.5,15l-.3.4.4.3c.1.1,1.9,1.3,5.2,1.3s7.9-1.1,14-5.2l-.6-.8c-10.3,6.9-16.2,4.9-17.7,4.2.5-.8.9-1.5,1.2-2.2,1.1.7,2.5,1,3.9,1h0Z"/>
      <path class="cls-4" d="M26.1,60.1c-.2,0-5.1,1-7.3,4.4-1,1.6-1.3,3.4-.8,5.5l1-.2c-.4-1.8-.2-3.4.6-4.7,1.9-3,6.6-3.9,6.6-3.9l-.2-1h0Z"/>
      <path class="cls-4" d="M17.2,57.2l-.2,3.4-13.8-2.8-.2,1,14,2.8-.2,3.7-14.4-.6v1s14.3.6,14.3.6l-.2,3-13.4.9v1c0,0,13.3-.9,13.3-.9v2.2c-.1,0,.9,0,.9,0l.8-15.4h-1Z"/>
      <path class="cls-5" d="M124.7,141.2h-.5c0,0-88-14.9-88-14.9v-.5c0,0,18.3-100.6,18.3-100.6l97,17.9-26.9,98.1h0ZM37.4,125.5l86.5,14.6,26.4-96.2L55.4,26.4l-18,99.1Z"/>
      <path class="cls-3" d="M59.7,92.9l-.5,3,51.9,9.1.5-3-51.9-9.1Z"/>
      <path class="cls-3" d="M58.9,101.9l-.5,3,27.9,4.3.5-3-27.9-4.3Z"/>
      <path class="cls-3" d="M57.8,110l-.5,3,51.5,8.8.5-3-51.5-8.8Z"/>
      <path class="cls-4" d="M78.3,71.9c-.3,0-.6,0-1,0-1.7-.3-3-1.1-3.8-2.5-2.4-4.2.7-12.1.9-12.4l.9.4c0,0-3.1,7.8-.9,11.5.6,1.1,1.6,1.8,3.1,2,1.4.2,2.7-.1,3.7-1,3.6-3,3.8-11.4,3.8-11.4h1c0,.4-.3,8.9-4.2,12.2-1,.9-2.2,1.3-3.5,1.3h0Z"/>
      <path class="cls-4" d="M105.2,75.4c-.3,0-.6,0-1,0-1.7-.3-3-1.1-3.8-2.5-2.4-4.2.7-12.1.9-12.4l.9.4c0,0-3.1,7.8-.9,11.5.6,1.1,1.6,1.8,3.1,2,1.4.2,2.7-.1,3.7-1,3.6-3,3.8-11.4,3.8-11.4h1c0,.4-.3,8.9-4.2,12.2-1,.9-2.2,1.3-3.5,1.3h0Z"/>
      <path class="cls-5" d="M128.4,78.1c-.3,1.8-3.8,2.7-7.7,2.1-4-.7-6.9-2.7-6.6-4.5.3-1.8,3.8-2.7,7.7-2.1,4,.7,6.9,2.7,6.6,4.5Z"/>
      <path class="cls-5" d="M68.8,69c-.3,1.8-3.8,2.7-7.7,2.1-4-.7-6.9-2.7-6.6-4.5.3-1.8,3.8-2.7,7.7-2.1,4,.7,6.9,2.7,6.6,4.5Z"/>
      <path class="cls-4" d="M73.1,51.1l16.6-1.5s-3.7-11.6-16.6,1.5Z"/>
      <path class="cls-4" d="M118.7,57.1l-17.1-7.5s11.3-11.8,17.1,7.5Z"/>
      <path class="cls-4" d="M85,68.9h12s-3,17.7-7.3,17.2c-4.2-.5-4.7-17.2-4.7-17.2Z"/>
      <path class="cls-1" d="M87.7,69.8v3.9l4.1-.4-5.2,2.8s.5,8.5,3.6,8.7c3.1.1,5.9-15.1,5.9-15.1h-8.4Z"/>
      <path class="cls-2" d="M64.2,41.1c-.4,0-.9,0-1.4-.1-1.6-.3-2.9-1.2-3.8-2.7-4-6.7,1.2-23.9,1.5-24.6l1.9.6c0,.2-5.2,17-1.7,23,.6,1,1.4,1.5,2.4,1.7,1.5.3,2.8,0,4-1,5.2-4,6.8-17.1,7.2-20.6l-9.1-1.6c-1.5,4.7-4.2,15-2.1,18.2.3.5.7.8,1.3.8.7,0,1.3-.2,1.9-.7,3.2-2.8,4.2-12.7,4.3-16.3h2c0,.6-.5,13.9-5,17.9-1,.9-2.2,1.3-3.5,1.2-1.2-.1-2.1-.7-2.8-1.7-3.1-4.9,1.6-19.2,2.1-20.8l.3-.8,12.6,2.3v.9c-.1.7-1.4,17.8-8.2,23-1.3,1-2.7,1.5-4.3,1.5h0Z"/>
    </g>
  </g>
</svg>