<svg width="192" height="190" viewBox="0 0 192 190" fill="none" xmlns="http://www.w3.org/2000/svg">
<path d="M73.3693 18.1932C82.0407 12.0867 93.292 11.0124 102.962 15.3678L151.248 37.1149C161.072 41.5394 167.768 50.892 168.792 61.6173L173.72 113.231C174.744 123.956 169.938 134.407 161.129 140.611L117.831 171.102C109.16 177.208 97.9084 178.282 88.2382 173.927L39.9526 152.18C30.1289 147.756 23.4322 138.403 22.4082 127.678L17.4803 76.0639C16.4563 65.3386 21.2623 54.8878 30.0713 48.6843L73.3693 18.1932Z" fill="#EDE9FE"/>
<path d="M166.068 117.274C166.269 112.829 149.508 102.011 142.597 97.7365L157.943 34.8557L50.7842 13.9393L36.7139 88.6297C31.078 92.641 23.7104 96.6988 20.4789 93.3612C14.8894 87.592 22.0869 65.9631 35.6625 54.99L31.2867 48.2527C31.2867 48.2527 24.3676 53.8051 26.2307 60.6043L4.59955 52.1557C4.59955 52.1557 -5.5589 82.8527 16.8608 72.6771C16.8608 72.6771 10.3282 95.909 19.9764 98.449C24.3134 99.5873 30.4673 96.544 35.9253 92.8424L27.9315 135.271L130.011 149.319L131.766 142.117C145.705 153.779 157.943 138.896 157.943 138.896V132.282L142.156 134.722C143.254 128.782 139.659 125.924 139.659 125.924C139.659 125.924 165.813 122.873 166.068 117.274ZM160.478 115.625C159.899 119.094 144.908 120.48 136.922 120.984L141.932 100.455C148.318 104.172 161.081 112.063 160.478 115.625Z" fill="#EDDED1"/>
<path d="M156.989 36.6358L129.512 149.2L130.495 149.441L157.973 36.8768L156.989 36.6358Z" fill="#6D75FE"/>
<path d="M145.063 140.258C150.761 140.258 157.834 135.589 158.221 135.333L157.657 134.489C157.541 134.567 146.594 141.792 141.584 138.284C141.831 137.687 142.04 137.114 142.202 136.557C143.37 137.254 144.676 137.564 146.037 137.564C151.565 137.564 157.889 132.94 158.229 132.693L157.626 131.872C157.525 131.949 147.73 139.105 142.465 135.542C143.919 129.076 140.03 125.584 139.976 125.537L139.311 126.304C139.373 126.358 145.163 131.554 138.793 141.327L138.53 141.73L138.917 142.016C139.048 142.117 140.78 143.333 144.158 143.333C147.344 143.333 152.013 142.249 158.206 138.129L157.641 137.285C147.32 144.154 141.476 142.187 139.93 141.436C140.401 140.677 140.803 139.941 141.143 139.236C142.272 139.972 143.617 140.266 145.047 140.266L145.063 140.258Z" fill="#4E2957"/>
<path d="M26.1457 60.1165C25.937 60.1552 21.0433 61.0999 18.8555 64.5073C17.835 66.0948 17.5721 67.9533 18.0901 70.021L19.0797 69.7731C18.639 67.9843 18.8477 66.4045 19.7136 65.0571C21.6618 62.0215 26.2926 61.1232 26.339 61.1154L26.1535 60.1165H26.1457Z" fill="#4E2957"/>
<path d="M17.1546 57.2357L16.9768 60.6508L3.13068 57.8862L2.92967 58.8852L16.9227 61.6807L16.7294 65.3746L2.32666 64.7473L2.28027 65.7618L16.6753 66.3968L16.5207 69.4092L3.16933 70.3385L3.23891 71.3529L16.4665 70.4391L16.3506 72.6539L17.3633 72.7081L18.1673 57.2899L17.1546 57.2357Z" fill="#4E2957"/>
<path d="M124.661 141.25L124.205 141.172L36.2192 126.335L36.312 125.824L54.5647 25.2377L151.596 43.1107L124.661 141.257V141.25ZM37.4098 125.506L123.934 140.096L150.328 43.9083L55.3842 26.4225L37.4098 125.506Z" fill="#FFABE7"/>
<path d="M59.6769 92.874L59.1548 95.88L111.084 104.93L111.606 101.924L59.6769 92.874Z" fill="#6D75FE"/>
<path d="M58.8811 101.923L58.4182 104.938L86.3543 109.24L86.8172 106.225L58.8811 101.923Z" fill="#6D75FE"/>
<path d="M57.7695 110.019L57.2573 113.027L108.805 121.834L109.317 118.826L57.7695 110.019Z" fill="#6D75FE"/>
<path d="M78.2677 71.895C77.9507 71.895 77.6183 71.8718 77.2859 71.8176C75.5464 71.5543 74.2708 70.7179 73.4822 69.3395C71.0856 65.1268 74.2167 57.2512 74.3481 56.9182L75.2913 57.2977C75.2604 57.3751 72.2144 65.0493 74.3636 68.8361C74.9975 69.9435 76.0025 70.594 77.4327 70.8108C78.8707 71.0277 80.0845 70.7024 81.1359 69.8196C84.7307 66.7995 84.9704 58.4593 84.9704 58.3741L85.9832 58.3973C85.9754 58.7613 85.728 67.2874 81.7853 70.6018C80.757 71.4613 79.5742 71.895 78.26 71.895H78.2677Z" fill="#4E2957"/>
<path d="M105.241 75.4031C104.924 75.4031 104.591 75.3798 104.259 75.3256C102.52 75.0623 101.244 74.226 100.455 72.8476C98.0588 68.6348 101.19 60.7593 101.321 60.4263L102.264 60.8057C102.233 60.8832 99.1875 68.5574 101.337 72.3442C101.971 73.4516 102.976 74.1021 104.406 74.3189C105.844 74.5357 107.058 74.2105 108.109 73.3277C111.704 70.3075 111.944 61.9673 111.944 61.8821L112.956 61.9054C112.949 62.2693 112.701 70.7954 108.758 74.1098C107.73 74.9694 106.547 75.4031 105.233 75.4031H105.241Z" fill="#4E2957"/>
<path d="M128.38 78.1134C128.063 79.941 124.599 80.8625 120.641 80.1811C116.683 79.4996 113.722 77.463 114.031 75.6354C114.348 73.8078 117.811 72.8863 121.777 73.5677C125.736 74.2492 128.697 76.2859 128.38 78.1134Z" fill="#FFABE7"/>
<path d="M68.7895 68.9911C68.4725 70.8187 65.0091 71.7402 61.0508 71.0588C57.0926 70.3773 54.1316 68.3406 54.4409 66.5131C54.7578 64.6855 58.2213 63.764 62.1873 64.4454C66.1455 65.1269 69.1065 67.1636 68.7895 68.9911Z" fill="#FFABE7"/>
<path d="M73.0955 51.1412L89.7247 49.6157C89.7247 49.6157 86.0293 38.0462 73.0955 51.1412Z" fill="#4E2957"/>
<path d="M118.67 57.1119L101.569 49.608C101.569 49.608 112.91 37.8217 118.67 57.1119Z" fill="#4E2957"/>
<path d="M84.978 68.8982H96.9996C96.9996 68.8982 93.9536 86.5776 89.7171 86.0743C85.4883 85.5632 84.978 68.8982 84.978 68.8982Z" fill="#4E2957"/>
<path d="M87.7304 69.7809V73.7148L91.7969 73.3508L86.594 76.2006C86.594 76.2006 87.1042 84.7189 90.2121 84.8506C93.3199 84.9745 96.1185 69.7886 96.1185 69.7886H87.7382L87.7304 69.7809Z" fill="#EDDED1"/>
<path d="M64.1586 41.0896C63.7102 41.0896 63.2541 41.0431 62.7825 40.9579C61.1745 40.6559 59.9066 39.7499 59.0175 38.2631C54.9974 31.5645 60.2468 14.373 60.4787 13.6451L62.4191 14.2491C62.365 14.4195 57.2008 31.2935 60.757 37.2176C61.3445 38.1934 62.1331 38.7664 63.1613 38.96C64.6379 39.2388 65.9522 38.9135 67.1891 37.961C72.3689 33.9729 74.0387 20.9011 74.4021 17.3312L65.3492 15.6817C63.8571 20.3436 61.1977 30.643 63.2696 33.8645C63.5865 34.3601 64.004 34.6234 64.5683 34.6776C65.2796 34.7473 65.9135 34.5227 66.5165 33.9961C69.7171 31.1928 70.7222 21.2651 70.8459 17.6719L72.8791 17.7416C72.8636 18.3069 72.3689 31.5723 67.8617 35.5294C66.8258 36.4355 65.6584 36.8304 64.3751 36.7065C63.1922 36.5904 62.2259 35.9863 61.5687 34.9719C58.4377 30.1009 63.1613 15.8211 63.7102 14.2026L63.9885 13.374L76.5822 15.6662L76.5126 16.58C76.4585 17.3079 75.1365 34.4221 68.4261 39.5873C67.1196 40.594 65.6816 41.1051 64.1586 41.1051V41.0896Z" fill="#7AB2FD"/>
</svg>
