<svg width="376" height="296" viewBox="0 0 376 296" fill="none" xmlns="http://www.w3.org/2000/svg">
<g clip-path="url(#clip0_16503_27195)">
<path d="M189.49 221.58C130.67 221.58 83 238.16 83 258.61C83 279.06 130.67 295.65 189.49 295.65C195.56 295.65 201.49 295.47 207.28 295.13L226.28 282.16L258.27 286.89C281.35 280.09 296 269.94 296 258.6C296 238.16 248.33 221.57 189.5 221.57L189.49 221.58Z" fill="#FFBD42"/>
<path d="M207.28 295.131L210.87 279.621L122.52 275.151L125.25 255.031L118.79 254.881L121.27 246.191L145.26 246.311L147.24 255.511L136.83 255.291L137.8 263.601L212.11 266.581L217.21 243.961L248.15 243.211L258.26 286.901C244 291.091 226.51 294.011 207.28 295.131Z" fill="#F2E4D3"/>
<path d="M118.804 254.137L118.771 255.627L147.224 256.253L147.257 254.763L118.804 254.137Z" fill="#003442"/>
<path d="M277.84 165.41L274.62 249.17H266.73L252.25 210.15L215.71 211.27L204.35 249.17H148.54L134.44 222.82L117.67 249.17H109.33L99.6399 161.44L152.58 111.48L190.61 163.47L277.84 165.41Z" fill="#7886F3"/>
<path d="M148.54 195.11V249.17H117.67L112.57 195.86C112.57 195.86 131.03 171.45 148.54 195.11Z" fill="#FF7461"/>
<path d="M145.38 216.609H116.73L115.12 197.559L145.38 195.939V216.609ZM118.1 215.119H143.88V197.509L116.73 198.959L118.1 215.109V215.119Z" fill="#003442"/>
<path d="M145.87 246.699L119.19 246.039L117.99 225.299H145.87V246.689V246.699ZM120.61 244.589L144.39 245.169V226.799H119.59L120.62 244.589H120.61Z" fill="#003442"/>
<path d="M144.63 220.649C144.63 221.709 143.27 222.579 141.58 222.579C139.89 222.579 138.54 221.719 138.54 220.649C138.54 219.579 139.9 218.719 141.58 218.719C143.26 218.719 144.63 219.579 144.63 220.649Z" fill="#FFBD42"/>
<path d="M270.64 185.79L266.73 249.17H204.35L199.06 183.93L270.64 185.79Z" fill="#003442"/>
<path d="M202.72 189.869L207.76 249.229L209.25 249.099L208.64 241.909L262.17 238.509L261.45 249.109L262.94 249.209L266.85 191.649L202.73 189.869H202.72ZM265.24 193.099L264.32 206.599L205.37 203.589L204.34 191.399L265.24 193.099ZM206.83 220.589L263.69 216.039L262.78 229.409H207.57L206.82 220.589H206.83ZM263.79 214.529L206.7 219.099L205.51 205.089L264.23 208.089L263.79 214.529ZM208.51 240.429L207.7 230.899H262.68L262.27 237.019L208.52 240.429H208.51Z" fill="#F2E4D3"/>
<path d="M156.75 193.531L193.1 194.831L191.6 226.891L159.73 226.051L156.75 193.531Z" fill="#7ABFFF"/>
<path d="M193.25 223.371L194.46 192.381H155.32L158.09 224.131L155.32 224.191L156.31 230.151H194.71L195.33 223.321L193.25 223.371ZM191.11 207.451C189.8 207.511 187.65 207.611 185.06 207.731L185.55 196.351L191.98 196.731L191.11 207.451ZM169.36 208.481C168.84 202.981 168.35 197.751 168.13 195.331L182.81 196.191L182.12 207.871C178.08 208.061 173.46 208.281 169.36 208.491V208.481ZM181.91 211.271L181.18 223.631L170.83 223.851C170.55 221.061 170.09 216.241 169.62 211.261H181.91V211.271ZM158.05 194.741L165.02 195.151L166.18 208.651C163.3 208.801 160.94 208.941 159.57 209.031L158.05 194.741ZM159.81 211.271H166.41L167.5 223.931L161.18 224.071L159.82 211.271H159.81ZM184.38 223.561L184.91 211.271H190.8L189.81 223.441L184.38 223.561Z" fill="#003442"/>
<path d="M137.18 145.62L140.06 175.73H158.33L160.01 143.57L137.18 145.62Z" fill="#7ABFFF"/>
<path d="M161.66 141.551L134.45 143.791L138.98 173.861H135.57L136.44 180.321L160.55 180.821L161.67 173.861H159.7L161.67 141.551H161.66ZM158.76 151.341L149.43 152.081L149.07 145.971L159.17 145.041L158.76 151.351V151.341ZM146.62 146.191V152.301L139.38 152.871L139.04 146.901L146.62 146.201V146.191ZM139.53 155.471H146.62V173.861H140.57L139.53 155.471ZM150.7 173.861L149.63 155.471H158.5L157.31 173.861H150.71H150.7Z" fill="#003442"/>
<path d="M283.31 177.59L195.33 175.35L152.58 114.96L98.16 169.88L89.46 162.68L152.83 108L171.72 127.63L269.89 127.88L283.31 177.59Z" fill="#FF7461"/>
<path d="M226.06 168.901L225.53 167.921C224.36 165.751 222.87 164.511 221.1 164.261C217.2 163.711 213.02 167.871 212.98 167.911L212.36 168.541L211.85 167.821C210 165.211 208.17 163.971 206.42 164.101C203.55 164.321 201.6 168.171 201.58 168.211L200.24 167.551C200.33 167.361 202.58 162.911 206.29 162.621C208.44 162.451 210.53 163.681 212.56 166.291C213.99 165.031 217.63 162.271 221.32 162.801C223.31 163.091 224.99 164.281 226.32 166.341C227.63 165.011 230.58 162.461 234 162.641C236.13 162.741 238.04 163.871 239.69 165.991C240.68 164.731 242.74 162.591 245.46 162.451C247.71 162.351 249.86 163.621 251.84 166.251L250.65 167.151C248.98 164.941 247.27 163.851 245.53 163.941C242.53 164.091 240.35 167.631 240.32 167.661L239.71 168.661L239.06 167.691C237.55 165.421 235.82 164.231 233.92 164.131C230.2 163.951 226.79 168.021 226.76 168.061L226.05 168.921L226.06 168.901Z" fill="#FF8FBC"/>
<path d="M245.45 160.68L244.92 159.7C243.75 157.53 242.26 156.29 240.49 156.04C236.59 155.49 232.41 159.65 232.37 159.69L231.75 160.32L231.24 159.6C229.39 156.99 227.56 155.75 225.81 155.88C222.94 156.1 220.99 159.95 220.97 159.99L219.63 159.33C219.72 159.14 221.97 154.69 225.68 154.4C227.83 154.23 229.92 155.46 231.95 158.07C233.38 156.81 237.02 154.05 240.71 154.58C242.7 154.87 244.38 156.06 245.71 158.12C247.02 156.79 249.97 154.25 253.39 154.42C255.52 154.52 257.43 155.65 259.08 157.77C260.07 156.51 262.13 154.37 264.85 154.23C267.09 154.13 269.25 155.4 271.23 158.03L270.04 158.93C268.37 156.72 266.66 155.62 264.92 155.72C261.92 155.87 259.74 159.41 259.71 159.44L259.1 160.44L258.45 159.47C256.94 157.2 255.21 156.01 253.31 155.91C249.58 155.74 246.18 159.8 246.15 159.84L245.44 160.7L245.45 160.68Z" fill="#FF8FBC"/>
<path d="M226.06 153.5L225.53 152.52C224.36 150.35 222.87 149.11 221.1 148.86C217.2 148.31 213.02 152.469 212.98 152.509L212.36 153.14L211.85 152.419C210 149.809 208.17 148.57 206.42 148.7C203.55 148.92 201.6 152.77 201.58 152.81L200.24 152.15C200.33 151.96 202.58 147.51 206.29 147.22C208.44 147.05 210.53 148.28 212.56 150.89C213.99 149.63 217.63 146.87 221.32 147.4C223.31 147.69 224.99 148.879 226.32 150.939C227.63 149.609 230.58 147.07 234 147.24C236.13 147.34 238.04 148.47 239.69 150.59C240.68 149.33 242.74 147.19 245.46 147.05C247.71 146.94 249.86 148.219 251.84 150.849L250.65 151.75C248.98 149.54 247.27 148.45 245.53 148.54C242.53 148.69 240.35 152.229 240.32 152.259L239.71 153.259L239.06 152.29C237.55 150.02 235.82 148.83 233.92 148.73C230.2 148.56 226.79 152.62 226.76 152.66L226.05 153.52L226.06 153.5Z" fill="#FF8FBC"/>
<path d="M238.29 143.821L237.76 142.841C236.59 140.671 235.1 139.431 233.33 139.181C229.43 138.631 225.25 142.791 225.21 142.831L224.59 143.461L224.08 142.741C222.23 140.131 220.39 138.881 218.65 139.021C215.78 139.241 213.83 143.091 213.81 143.131L212.47 142.471C212.56 142.281 214.81 137.831 218.52 137.541C220.67 137.371 222.76 138.601 224.79 141.211C226.22 139.951 229.86 137.191 233.55 137.721C235.54 138.011 237.22 139.201 238.55 141.261C239.86 139.931 242.82 137.391 246.23 137.561C248.36 137.661 250.27 138.791 251.92 140.911C252.91 139.651 254.97 137.511 257.69 137.371C259.93 137.271 262.09 138.541 264.07 141.171L262.88 142.071C261.21 139.861 259.51 138.761 257.76 138.861C254.76 139.011 252.58 142.551 252.55 142.581L251.94 143.581L251.29 142.611C249.78 140.341 248.05 139.151 246.15 139.051C242.44 138.851 239.02 142.941 238.99 142.981L238.28 143.841L238.29 143.821Z" fill="#FF8FBC"/>
<path d="M281.85 172.93L197.57 172.18L152.74 113.46L95.6199 167.9L94.5999 166.82L152.92 111.24L198.31 170.7L281.86 171.44L281.85 172.93Z" fill="#FF8FBC"/>
</g>
<rect y="121" width="40" height="40" rx="16" fill="white"/>
<path d="M22.5 133.5L18.5 137.5L14.5 139L13 140.5L20 147.5L21.5 146L23 142L27 138" stroke="#EC4899" stroke-width="1.5" stroke-linecap="round" stroke-linejoin="round"/>
<path d="M16.5 144L12 148.5" stroke="#EC4899" stroke-width="1.5" stroke-linecap="round" stroke-linejoin="round"/>
<path d="M22 133L27.5 138.5" stroke="#EC4899" stroke-width="1.5" stroke-linecap="round" stroke-linejoin="round"/>
<rect x="137" y="40" width="40" height="40" rx="16" fill="white"/>
<path d="M156.75 58.75C158.959 58.75 160.75 56.9591 160.75 54.75C160.75 52.5409 158.959 50.75 156.75 50.75C154.541 50.75 152.75 52.5409 152.75 54.75C152.75 56.9591 154.541 58.75 156.75 58.75Z" stroke="#3B82F6" stroke-width="1.5" stroke-linecap="round" stroke-linejoin="round"/>
<path d="M151.5 68.75V66.75C151.438 65.7565 151.771 64.7788 152.427 64.0296C153.082 63.2805 154.007 62.8206 155 62.75H158.5C159.493 62.8206 160.418 63.2805 161.073 64.0296C161.729 64.7788 162.062 65.7565 162 66.75V68.75" stroke="#3B82F6" stroke-width="1.5" stroke-linecap="round" stroke-linejoin="round"/>
<path d="M162.75 52.5664C163.529 52.7661 164.22 53.2194 164.713 53.8548C165.206 54.4902 165.473 55.2716 165.473 56.0759C165.473 56.8802 165.206 57.6616 164.713 58.297C164.22 58.9324 163.529 59.3857 162.75 59.5854" stroke="#3B82F6" stroke-width="1.5" stroke-linecap="round" stroke-linejoin="round"/>
<path d="M150.5 55.3438C149.854 55.5085 149.281 55.8836 148.872 56.41C148.463 56.9364 148.241 57.5841 148.241 58.2508C148.241 58.9174 148.463 59.5651 148.872 60.0915C149.281 60.6179 149.854 60.993 150.5 61.1578" stroke="#3B82F6" stroke-width="1.5" stroke-linecap="round" stroke-linejoin="round"/>
<path d="M167.277 68.7492V66.9382C167.272 66.1387 167.004 65.3632 166.512 64.7325C166.021 64.1018 165.335 63.6513 164.561 63.4512" stroke="#3B82F6" stroke-width="1.5" stroke-linecap="round" stroke-linejoin="round"/>
<path d="M146.75 68.7493V67.2493C146.754 66.5871 146.976 65.9447 147.383 65.4223C147.79 64.8999 148.359 64.5269 149 64.3613" stroke="#3B82F6" stroke-width="1.5" stroke-linecap="round" stroke-linejoin="round"/>
<rect x="56" y="42" width="40" height="40" rx="16" fill="white"/>
<path d="M71.0001 59.9999H74.0001V56.9999L70.5001 53.4999C71.6197 52.9651 72.8776 52.7907 74.1005 53.0005C75.3234 53.2103 76.4512 53.7941 77.3285 54.6714C78.2059 55.5488 78.7897 56.6766 78.9995 57.8995C79.2093 59.1224 79.0348 60.3802 78.5001 61.4999L84.5001 67.4999C84.8979 67.8977 85.1214 68.4372 85.1214 68.9999C85.1214 69.5625 84.8979 70.102 84.5001 70.4999C84.1023 70.8977 83.5627 71.1212 83.0001 71.1212C82.4375 71.1212 81.8979 70.8977 81.5001 70.4999L75.5001 64.4999C74.3805 65.0346 73.1226 65.209 71.8997 64.9992C70.6768 64.7894 69.549 64.2056 68.6717 63.3283C67.7943 62.4509 67.2105 61.3232 67.0007 60.1003C66.7909 58.8774 66.9654 57.6195 67.5001 56.4999L71.0001 59.9999Z" stroke="#F59E0B" stroke-width="1.5" stroke-linecap="round" stroke-linejoin="round"/>
<rect x="336" y="175" width="40" height="40" rx="16" fill="white"/>
<path d="M353 186H356L358 188H363C363.53 188 364.039 188.211 364.414 188.586C364.789 188.961 365 189.47 365 190V197C365 197.53 364.789 198.039 364.414 198.414C364.039 198.789 363.53 199 363 199H353C352.47 199 351.961 198.789 351.586 198.414C351.211 198.039 351 197.53 351 197V188C351 187.47 351.211 186.961 351.586 186.586C351.961 186.211 352.47 186 353 186Z" stroke="#84CC16" stroke-width="1.5" stroke-linecap="round" stroke-linejoin="round"/>
<path d="M361 199V201C361 201.53 360.789 202.039 360.414 202.414C360.039 202.789 359.53 203 359 203H349C348.47 203 347.961 202.789 347.586 202.414C347.211 202.039 347 201.53 347 201V192C347 191.47 347.211 190.961 347.586 190.586C347.961 190.211 348.47 190 349 190H351" stroke="#84CC16" stroke-width="1.5" stroke-linecap="round" stroke-linejoin="round"/>
<rect x="209" width="40" height="40" rx="16" fill="white"/>
<path d="M226 13H224C223.47 13 222.961 13.2107 222.586 13.5858C222.211 13.9609 222 14.4696 222 15V27C222 27.5304 222.211 28.0391 222.586 28.4142C222.961 28.7893 223.47 29 224 29H234C234.53 29 235.039 28.7893 235.414 28.4142C235.789 28.0391 236 27.5304 236 27V15C236 14.4696 235.789 13.9609 235.414 13.5858C235.039 13.2107 234.53 13 234 13H232" stroke="#A855F7" stroke-width="1.5" stroke-linecap="round" stroke-linejoin="round"/>
<path d="M230 11H228C226.895 11 226 11.8954 226 13C226 14.1046 226.895 15 228 15H230C231.105 15 232 14.1046 232 13C232 11.8954 231.105 11 230 11Z" stroke="#A855F7" stroke-width="1.5" stroke-linecap="round" stroke-linejoin="round"/>
<path d="M226 22L228 24L232 20" stroke="#A855F7" stroke-width="1.5" stroke-linecap="round" stroke-linejoin="round"/>
<rect x="301" y="75" width="40" height="40" rx="16" fill="white"/>
<g clip-path="url(#clip1_16503_27195)">
<path d="M327 91C327.796 91 328.559 91.3161 329.121 91.8787C329.684 92.4413 330 93.2044 330 94C330 94.7956 329.684 95.5587 329.121 96.1213C328.559 96.6839 327.796 97 327 97" stroke="#14B8A6" stroke-width="1.5" stroke-linecap="round" stroke-linejoin="round"/>
<path d="M319 91V102C319 102.265 318.895 102.52 318.707 102.707C318.52 102.895 318.265 103 318 103H317C316.735 103 316.48 102.895 316.293 102.707C316.105 102.52 316 102.265 316 102V97" stroke="#14B8A6" stroke-width="1.5" stroke-linecap="round" stroke-linejoin="round"/>
<path d="M321 90.9999L325.524 87.2299C325.655 87.1205 325.815 87.0507 325.985 87.0289C326.155 87.007 326.327 87.034 326.482 87.1066C326.637 87.1792 326.768 87.2945 326.86 87.4389C326.951 87.5833 327 87.7509 327 87.9219V100.078C327 100.249 326.951 100.417 326.86 100.561C326.768 100.705 326.637 100.821 326.482 100.893C326.327 100.966 326.155 100.993 325.985 100.971C325.815 100.949 325.655 100.879 325.524 100.77L321 96.9999H313C312.735 96.9999 312.48 96.8946 312.293 96.7071C312.105 96.5195 312 96.2652 312 95.9999V91.9999C312 91.7347 312.105 91.4804 312.293 91.2928C312.48 91.1053 312.735 90.9999 313 90.9999H321" stroke="#14B8A6" stroke-width="1.5" stroke-linecap="round" stroke-linejoin="round"/>
</g>
<path d="M20 163C20 208 63 202.1 103 202.5" stroke="#EC4899" stroke-width="3" stroke-dasharray="6 6"/>
<path d="M301 94C229.342 94 238.737 112.133 238.1 129" stroke="#14B8A6" stroke-width="3" stroke-dasharray="6 6"/>
<path d="M77.4998 83.5V109C77.5 130 104.6 112.9 105 124.5C105.4 136.1 105.166 137 105 147" stroke="#F59E0B" stroke-width="3" stroke-dasharray="6 6"/>
<path d="M229.498 41V67C229.5 86 193.1 84.3 193.5 99.5C193.9 114.7 193.667 118.333 193.5 128.5" stroke="#A855F7" stroke-width="3" stroke-dasharray="6 6"/>
<path d="M157 80V112" stroke="#3B82F6" stroke-width="3" stroke-dasharray="6 6"/>
<path d="M336 195L278 203" stroke="#84CC16" stroke-width="3" stroke-dasharray="6 6"/>
<defs>
<clipPath id="clip0_16503_27195">
<rect width="212.99" height="187.65" fill="white" transform="translate(83 108)"/>
</clipPath>
<clipPath id="clip1_16503_27195">
<rect width="24" height="24" fill="white" transform="translate(309 83)"/>
</clipPath>
</defs>
</svg>
