<svg width="168" height="168" viewBox="0 0 168 168" fill="none" xmlns="http://www.w3.org/2000/svg">
<path d="M20.9342 144.717C-16.1302 119.798 3.02021 41.3351 24.7864 49.2275C48.1953 57.7155 31.9869 74.4556 52.7648 68.1706C77.8968 60.5685 58.2164 17.7212 122.565 22.3485C186.914 26.9759 169.516 122.242 151.012 144.717C132.509 167.193 83.397 173.642 73.9719 159.571C47.1828 119.577 45.5138 161.243 20.9342 144.717Z" fill="#CCFBF1"/>
<path d="M42.1257 65.4278C48.6437 72.7312 60.6603 66.648 60.6603 66.648C69.6192 83.8912 72.2657 103.575 72.2657 103.575L78.3724 105.338L81.8326 82.6799C81.8326 82.6799 91.8107 89.3776 94.8685 85.7259C96.1113 84.2385 95.2261 82.8491 93.7419 81.7269C103.157 80.5868 121.656 77.4606 121.951 70.5135C122.362 61.1794 96.4958 29.7302 96.4958 29.7302L49.8507 42.1104L53.3109 58.1422C45.568 53.68 35.5899 58.1422 42.1078 65.4456L42.1257 65.4278Z" fill="#FFA8CA"/>
<path d="M72.3641 60.7074C71.7651 59.7633 71.5684 58.5699 71.783 57.1359L70.4418 57.9642L70.0126 57.2695L73.0079 55.4258L72.7575 56.3967C72.3194 58.1334 72.4625 59.4872 73.1778 60.4492C77.1297 59.3091 83.0397 58.6589 89.0033 60.1374L89.0212 60.0929C89.048 60.0127 89.808 58.0622 91.2922 57.8662C92.2399 57.7416 93.2234 58.3561 94.189 59.7099L93.5274 60.182C92.991 59.4338 92.1863 58.5699 91.3995 58.6767C90.7021 58.7658 90.1567 59.5941 89.8974 60.1196C96.2365 65.134 108.808 61.5714 110.542 61.0459C111.794 57.029 111.213 55.889 110.748 55.5594C109.612 54.7578 106.662 56.6193 105.714 57.3319L105.061 57.8217V57.0112C104.954 41.8611 98.8473 38.1203 98.7847 38.0847L99.196 37.3811C99.4642 37.5325 105.562 41.202 105.866 56.2274C107.109 55.3902 109.764 53.8761 111.213 54.8914C112.393 55.7198 112.402 57.8752 111.248 61.4912L111.186 61.6872L110.989 61.7495C110.623 61.8653 105.231 63.5932 99.4732 63.5932C98.1678 63.5932 96.8445 63.4952 95.557 63.2814C96.7372 65.3122 99.6699 70.5314 98.8473 71.1014C97.8727 71.7872 94.1801 67.0757 93.9655 66.8085C94.0817 67.1914 95.9325 73.524 93.9655 73.337C92.9015 73.2301 91.8644 71.7516 91.1223 70.3711L88.6635 78.7611C90.0941 79.251 95.0384 81.1035 95.7805 83.6152C96.0219 84.4257 95.8252 85.2273 95.1904 85.9754C92.3293 89.3955 84.3182 84.7196 82.1545 83.3569L78.7837 105.401L77.9791 105.276L81.5376 81.9764L82.074 82.3326C84.7653 84.1407 92.2578 88.2199 94.5646 85.4499C95.0206 84.9066 95.1547 84.3811 94.9937 83.8378C94.3857 81.7893 89.7633 79.9457 88.0287 79.4024L87.6442 79.2866L90.5679 69.3023C90.2014 68.5096 89.9778 67.9218 89.9778 67.9218C89.9778 67.9218 87.9393 73.3459 85.4984 72.5354C83.0575 71.7249 84.9888 66.4522 84.9888 66.4522C84.9888 66.4522 81.019 71.7249 77.7645 70.5136C74.7424 69.3825 79.5169 64.947 80.2232 64.3057C79.4275 64.9292 73.1867 69.7832 71.7561 67.9307C70.263 66.0069 75.0464 63.2636 75.3057 63.1211C75.0643 63.228 70.7637 65.0895 68.591 63.5219C67.7774 62.9341 69.3778 61.705 72.3552 60.7253L72.3641 60.7074Z" fill="#002851"/>
<path d="M97.2648 55.4079C97.5777 55.4079 97.9086 55.3634 98.2394 55.2654C99.2765 54.9804 99.965 54.3926 100.287 53.5286C101.208 51.0437 98.5791 47.107 98.4718 46.9377L97.7923 47.392C97.7923 47.392 100.296 51.1506 99.5179 53.2525C99.2944 53.8671 98.8027 54.2679 98.0159 54.4905C97.2559 54.7043 96.5853 54.6063 95.9862 54.2055C93.8762 52.7805 93.3397 48.1401 93.3397 48.0956L92.5261 48.1847C92.544 48.3895 93.1073 53.2436 95.5303 54.8824C96.0667 55.2387 96.6389 55.4257 97.2648 55.4257V55.4079Z" fill="#002851"/>
<path d="M88.5651 56.7082C88.878 56.7082 89.2088 56.6637 89.5397 56.5657C90.5768 56.2807 91.2653 55.6928 91.5871 54.8289C92.5081 52.344 89.8794 48.4073 89.7721 48.238L89.0926 48.6923C89.0926 48.6923 91.5961 52.4509 90.8182 54.5528C90.5947 55.1674 90.1029 55.5682 89.3161 55.7819C88.5562 55.9957 87.8945 55.8977 87.2865 55.4969C85.1765 54.0719 84.64 49.4315 84.64 49.387L83.8264 49.4761C83.8443 49.6809 84.4075 54.535 86.8306 56.1649C87.367 56.5212 87.9392 56.7082 88.5651 56.7082Z" fill="#002851"/>
<path d="M92.2981 34.5439L108.119 37.3824L106.964 43.7725L91.1427 40.9339L92.2981 34.5439Z" fill="#002851"/>
<path d="M87.8358 38.5416L90.9529 44.2439L79.3158 50.5563L76.1987 44.8541L87.8358 38.5416Z" fill="#002851"/>
<path d="M51.3528 66.7725L52.0502 66.345C52.0144 66.2827 51.174 64.8843 52.2469 64.2253C53.3913 63.5127 55.0365 65.107 55.0454 65.1248L55.6624 64.5993C55.5282 64.4034 52.2737 59.8788 47.6244 60.2885C46.1045 60.4221 45.0673 60.9387 44.5398 61.8383C43.7262 63.2099 44.4772 64.92 44.513 64.9912L45.2551 64.6617C45.2551 64.6617 44.6471 63.2633 45.2461 62.248C45.6306 61.5978 46.4621 61.2059 47.6959 61.099C50.0117 60.9031 51.9876 62.1233 53.3019 63.2633C52.8102 63.1832 52.3005 63.2277 51.8088 63.5394C50.4051 64.4123 50.8968 66.0422 51.3528 66.7814V66.7725Z" fill="#002851"/>
<path d="M59.1313 35.6084C59.1313 35.6084 73.0792 56.6101 54.6519 53.9738L57.5041 60.6715L47.2219 59.4691V39.7678L59.1403 35.6084H59.1313Z" fill="#002851"/>
<path d="M45.4785 49.1019L109.737 28.403L106.277 17.4479L96.5047 28.1981L86.3209 -0.00012207C86.3209 -0.00012207 21.1502 5.47743 45.4875 49.1019H45.4785Z" fill="#FFAC07"/>
<path d="M95.7526 28.5263L96.0249 29.29L46.1289 46.94L45.8567 46.1762L95.7526 28.5263Z" fill="#FFD061"/>
<path d="M80.4557 31.1551L69.8517 5.60209L70.6027 5.29036L81.2156 30.879L83.7906 29.9349L80.5898 1.701L81.3945 1.61194L84.5774 29.641L94.6003 25.9625L94.8774 26.7196L43.896 45.459L43.6099 44.6931L80.4557 31.1551Z" fill="#FFD061"/>
<path d="M109.639 119.099C109.639 119.099 128.478 113.826 133.574 90.9008L125.527 83.1877L103.327 115.447L109.639 119.099Z" fill="#FFA8CA"/>
<path d="M133.574 94.3476L121.969 86.3317L130.212 76.5968L123.39 63.1924C123.39 63.1924 137.034 58.3027 132.349 74.7086L150.07 71.2261C150.07 71.2261 156.588 105.214 134.593 89.5915L133.574 94.3565V94.3476Z" fill="#FFD061"/>
<path d="M133.976 74.4325L134.271 78.7344L150.642 75.6616L150.794 76.4543L134.325 79.5538L134.54 82.7691L150.946 81.6112L151 82.4217L134.593 83.5796L134.808 86.7681L150.061 88.1754L149.99 88.9859L134.862 87.5875L134.996 89.547L134.182 89.6004L133.163 74.4859L133.976 74.4325Z" fill="#002851"/>
<path d="M81.94 97.6875C81.94 97.6875 92.5172 110.451 103.72 113.595L108.62 120.613L106.072 125.583L87.4387 121.931L80.9923 105.338L81.94 97.6875Z" fill="#F3E7DD"/>
<path d="M104.23 112.179L114.628 117.442L107.52 123.793L101.333 112.775L104.23 112.179Z" fill="#95ABFA"/>
<path d="M48.0267 167.586H109.129L110.962 117.763H46.1938L48.0267 167.586Z" fill="#5F7BDE"/>
<path d="M53.436 120.862C53.436 121.815 52.2737 122.59 50.8432 122.59C49.4126 122.59 48.2503 121.815 48.2503 120.862C48.2503 119.909 49.4126 119.135 50.8432 119.135C52.2737 119.135 53.436 119.909 53.436 120.862Z" fill="#002851"/>
<path d="M61.8315 164.496L61.1967 143.031H51.2991L52.667 164.175L61.8226 164.496H61.8315ZM60.401 143.85L60.9911 163.659L53.436 163.4L52.1664 143.85H60.401Z" fill="#002851"/>
<path d="M54.1064 146.042L59.5425 146.309L59.1312 148.206L54.3835 147.725L54.1064 146.042Z" fill="#002851"/>
<path d="M54.3836 150.53L59.8108 150.806L59.4084 152.694L54.6518 152.222L54.3836 150.53Z" fill="#002851"/>
<path d="M54.3836 155.197L59.8108 155.465L59.4084 157.362L54.6518 156.89L54.3836 155.197Z" fill="#002851"/>
<path d="M48.9474 128.549L63.6821 127.827V132.423L48.9474 131.684V128.549Z" fill="#002851"/>
<path d="M53.0247 138.506C53.0247 139.139 52.7833 139.655 52.4793 139.655C52.1753 139.655 51.9339 139.139 51.9339 138.506C51.9339 137.874 52.1753 137.358 52.4793 137.358C52.7833 137.358 53.0247 137.874 53.0247 138.506Z" fill="#002851"/>
<path d="M57.4058 138.506C57.4058 139.139 57.1644 139.655 56.8604 139.655C56.5564 139.655 56.315 139.139 56.315 138.506C56.315 137.874 56.5564 137.358 56.8604 137.358C57.1644 137.358 57.4058 137.874 57.4058 138.506Z" fill="#002851"/>
<path d="M61.6438 138.506C61.6438 139.139 61.4024 139.655 61.0984 139.655C60.7944 139.655 60.553 139.139 60.553 138.506C60.553 137.874 60.7944 137.358 61.0984 137.358C61.4024 137.358 61.6438 137.874 61.6438 138.506Z" fill="#002851"/>
<path d="M50.0025 141.107H63.6643L63.3871 135.63H48.8849L50.0025 141.107ZM62.806 140.297H50.6731L49.8863 136.44H62.6093L62.806 140.297Z" fill="#002851"/>
<path d="M66.0774 119.129L66.8909 119.144L65.9996 166.679L65.1861 166.664L66.0774 119.129Z" fill="#002851"/>
<path d="M75.1715 159.045L101.708 158.208L102.969 139.272L75.5917 137.945L75.1626 159.045H75.1715ZM100.948 157.424L76.003 158.208L76.3964 138.8L102.111 140.047L100.948 157.424Z" fill="#002851"/>
<path d="M88.6902 156.498C94.475 156.498 99.178 152.775 99.178 148.206C99.178 143.637 94.475 139.914 88.6902 139.914C82.9054 139.914 78.2025 143.637 78.2025 148.206C78.2025 152.775 82.9054 156.498 88.6902 156.498ZM88.6902 140.715C94.028 140.715 98.3644 144.073 98.3644 148.197C98.3644 152.321 94.028 155.678 88.6902 155.678C83.3525 155.678 79.0161 152.321 79.0161 148.197C79.0161 144.073 83.3525 140.715 88.6902 140.715Z" fill="#002851"/>
<path d="M100.028 141.214C100.028 141.713 100.26 142.122 100.537 142.122C100.814 142.122 101.047 141.713 101.047 141.214C101.047 140.715 100.814 140.306 100.537 140.306C100.26 140.306 100.028 140.715 100.028 141.214Z" fill="#002851"/>
<path d="M77.0403 140.314C77.0403 140.813 77.2728 141.223 77.5499 141.223C77.8271 141.223 78.0596 140.813 78.0596 140.314C78.0596 139.816 77.8271 139.406 77.5499 139.406C77.2728 139.406 77.0403 139.816 77.0403 140.314Z" fill="#002851"/>
<path d="M77.0403 156.284C77.0403 156.783 77.2728 157.192 77.5499 157.192C77.8271 157.192 78.0596 156.783 78.0596 156.284C78.0596 155.785 77.8271 155.375 77.5499 155.375C77.2728 155.375 77.0403 155.785 77.0403 156.284Z" fill="#002851"/>
<path d="M99.187 156.097C99.187 156.596 99.4195 157.005 99.6967 157.005C99.9738 157.005 100.206 156.596 100.206 156.097C100.206 155.598 99.9738 155.188 99.6967 155.188C99.4195 155.188 99.187 155.598 99.187 156.097Z" fill="#002851"/>
<path d="M54.339 119.099L62.9939 116.561L82.0024 113.319L92.9104 111.448L83.4777 99.2731L84.2377 98.899L83.6923 93.3145L77.8717 92.3081L77.0581 100.217L73.1777 92.3081H65.2381V98.2933L66.3736 98.5783C63.6734 100.538 57.7277 106.131 54.339 119.09V119.099Z" fill="#F3E7DD"/>
<path d="M65.2066 103.982L66.0032 104.147L63.3962 116.643L62.5996 116.478L65.2066 103.982Z" fill="#002851"/>
<path d="M71.926 100.538L71.8545 99.941C71.8545 99.941 71.4253 95.9954 73.3477 93.2522L72.6771 92.7891C71.023 95.1493 70.9515 98.1775 71.0051 99.4423L65.3544 97.9014L65.1398 98.6852L71.926 100.538Z" fill="#002851"/>
<path d="M78.5691 93.1898C80.1338 95.3007 80.4646 98.2755 80.5361 99.469L84.1393 98.516L84.345 99.2997L84.0231 99.3888L95.6821 114.12L95.0384 114.619L83.1558 99.6115L79.7314 100.52V99.9944C79.7314 99.9944 79.7136 96.1112 77.9075 93.6708L78.5602 93.1898H78.5691Z" fill="#002851"/>
<path d="M82.7623 120.542C85.0959 118.315 85.1674 115.002 82.0023 113.319L62.9938 116.561L54.3389 119.099L82.7533 120.542H82.7623Z" fill="#FFA8CA"/>
<path d="M82.7624 120.542C83.5582 123.107 85.1676 124.399 88.3416 121.023V129.947L101.091 128.834C101.091 128.834 103.085 116.472 95.6911 110.976L92.9105 111.448L82.0025 113.319C81.9756 115.225 82.0651 118.351 82.7624 120.542Z" fill="#FFD061"/>
<path d="M91.739 129.751C91.8106 129.306 93.3663 118.805 88.8779 116.57L88.5113 117.3C92.4722 119.277 90.9522 129.529 90.9343 129.636L91.739 129.76V129.751Z" fill="#002851"/>
<path d="M95.2082 129.431C95.2619 128.923 96.3974 116.881 91.2742 115.029L90.997 115.795C95.5301 117.425 94.4125 129.226 94.3946 129.351L95.2082 129.431Z" fill="#002851"/>
<path d="M98.6236 129.092C98.6326 128.522 98.8025 115.162 93.9296 113.399L93.6525 114.165C97.9888 115.732 97.81 128.941 97.81 129.075L98.6236 129.092Z" fill="#002851"/>
<path d="M64.1205 113.791L65.0593 116.213L54.509 120.266C54.509 120.266 48.9477 110.549 64.1205 113.8V113.791Z" fill="#95ABFA"/>
</svg>
