<?xml version="1.0" encoding="UTF-8"?>
<svg xmlns="http://www.w3.org/2000/svg" version="1.1" viewBox="0 0 168 168">
  <defs>
    <style>
      .cls-1 {
        fill: #ffac07;
      }

      .cls-2 {
        fill: #002851;
      }

      .cls-3 {
        fill: #ffd061;
      }

      .cls-4 {
        fill: #f3e7dd;
      }

      .cls-5 {
        fill: #ffa8ca;
      }

      .cls-6 {
        fill: #95abfa;
      }

      .cls-7 {
        fill: #5f7bde;
      }
    </style>
  </defs>
  <!-- Generator: Adobe Illustrator 28.6.0, SVG Export Plug-In . SVG Version: 1.2.0 Build 709)  -->
  <g>
    <g id="Capa_1">
      <path class="cls-5" d="M42.1,65.4c6.5,7.3,18.5,1.2,18.5,1.2,9,17.2,11.6,36.9,11.6,36.9l6.1,1.8,3.5-22.7s10,6.7,13,3c1.2-1.5.4-2.9-1.1-4,9.4-1.1,27.9-4.3,28.2-11.2.4-9.3-25.5-40.8-25.5-40.8l-46.6,12.4,3.5,16c-7.7-4.5-17.7,0-11.2,7.3h0Z"/>
      <path class="cls-2" d="M72.4,60.7c-.6-.9-.8-2.1-.6-3.6l-1.3.8-.4-.7,3-1.8-.3,1c-.4,1.7-.3,3.1.4,4.1,4-1.1,9.9-1.8,15.8-.3h0c0-.1.8-2.1,2.3-2.3.9-.1,1.9.5,2.9,1.8l-.7.5c-.5-.7-1.3-1.6-2.1-1.5-.7,0-1.2.9-1.5,1.4,6.3,5,18.9,1.5,20.6.9,1.3-4,.7-5.2.2-5.5-1.1-.8-4.1,1.1-5,1.8l-.7.5v-.8c-.1-15.2-6.2-18.9-6.3-18.9l.4-.7c.3.2,6.4,3.8,6.7,18.8,1.2-.8,3.9-2.4,5.3-1.3,1.2.8,1.2,3,0,6.6v.2c0,0-.3,0-.3,0-.4.1-5.8,1.8-11.5,1.8s-2.6,0-3.9-.3c1.2,2,4.1,7.3,3.3,7.8-1,.7-4.7-4-4.9-4.3.1.4,2,6.7,0,6.5-1.1-.1-2.1-1.6-2.8-3l-2.5,8.4c1.4.5,6.4,2.3,7.1,4.9.2.8,0,1.6-.6,2.4-2.9,3.4-10.9-1.3-13-2.6l-3.4,22h-.8c0-.1,3.6-23.4,3.6-23.4l.5.4c2.7,1.8,10.2,5.9,12.5,3.1.5-.5.6-1.1.4-1.6-.6-2-5.2-3.9-7-4.4h-.4c0-.1,2.9-10.1,2.9-10.1-.4-.8-.6-1.4-.6-1.4,0,0-2,5.4-4.5,4.6-2.4-.8-.5-6.1-.5-6.1,0,0-4,5.3-7.2,4.1-3-1.1,1.8-5.6,2.5-6.2-.8.6-7,5.5-8.5,3.6-1.5-1.9,3.3-4.7,3.5-4.8-.2.1-4.5,2-6.7.4-.8-.6.8-1.8,3.8-2.8h0Z"/>
      <path class="cls-2" d="M97.3,55.4c.3,0,.6,0,1-.1,1-.3,1.7-.9,2-1.7.9-2.5-1.7-6.4-1.8-6.6l-.7.5s2.5,3.8,1.7,5.9c-.2.6-.7,1-1.5,1.2-.8.2-1.4.1-2-.3-2.1-1.4-2.6-6.1-2.6-6.1h-.8c0,.3.6,5.1,3,6.8.5.4,1.1.5,1.7.5h0Z"/>
      <path class="cls-2" d="M88.6,56.7c.3,0,.6,0,1-.1,1-.3,1.7-.9,2-1.7.9-2.5-1.7-6.4-1.8-6.6l-.7.5s2.5,3.8,1.7,5.9c-.2.6-.7,1-1.5,1.2-.8.2-1.4.1-2-.3-2.1-1.4-2.6-6.1-2.6-6.1h-.8c0,.3.6,5.1,3,6.8.5.4,1.1.5,1.7.5Z"/>
      <path class="cls-2" d="M92.3,34.5l15.8,2.8-1.2,6.4-15.8-2.8,1.2-6.4Z"/>
      <path class="cls-2" d="M87.8,38.5l3.1,5.7-11.6,6.3-3.1-5.7,11.6-6.3Z"/>
      <path class="cls-2" d="M51.4,66.8l.7-.4c0,0-.9-1.5.2-2.1,1.1-.7,2.8.9,2.8.9l.6-.5c-.1-.2-3.4-4.7-8-4.3-1.5.1-2.6.7-3.1,1.5-.8,1.4,0,3.1,0,3.2l.7-.3s-.6-1.4,0-2.4c.4-.7,1.2-1,2.4-1.1,2.3-.2,4.3,1,5.6,2.2-.5,0-1,0-1.5.3-1.4.9-.9,2.5-.5,3.2h0Z"/>
      <path class="cls-2" d="M59.1,35.6s13.9,21-4.5,18.4l2.9,6.7-10.3-1.2v-19.7l11.9-4.2h0Z"/>
      <path class="cls-1" d="M45.5,49.1l64.3-20.7-3.5-11-9.8,10.8L86.3,0S21.2,5.5,45.5,49.1h0Z"/>
      <path class="cls-3" d="M95.8,28.5l.3.8-49.9,17.6-.3-.8,49.9-17.6Z"/>
      <path class="cls-3" d="M80.5,31.2l-10.6-25.6.8-.3,10.6,25.6,2.6-.9-3.2-28.2h.8c0,0,3.2,27.9,3.2,27.9l10-3.7.3.8-51,18.7-.3-.8,36.8-13.5Z"/>
      <path class="cls-5" d="M109.6,119.1s18.8-5.3,23.9-28.2l-8-7.7-22.2,32.3,6.3,3.7Z"/>
      <path class="cls-3" d="M133.6,94.3l-11.6-8,8.2-9.7-6.8-13.4s13.6-4.9,9,11.5l17.7-3.5s6.5,34-15.5,18.4l-1,4.8h0Z"/>
      <path class="cls-2" d="M134,74.4l.3,4.3,16.4-3.1.2.8-16.5,3.1.2,3.2,16.4-1.2v.8c0,0-16.4,1.2-16.4,1.2l.2,3.2,15.3,1.4v.8c0,0-15.2-1.4-15.2-1.4v2c.1,0-.7,0-.7,0l-1-15.1h.8Z"/>
      <path class="cls-4" d="M81.9,97.7s10.6,12.8,21.8,15.9l4.9,7-2.5,5-18.6-3.7-6.4-16.6.9-7.7Z"/>
      <path class="cls-6" d="M104.2,112.2l10.4,5.3-7.1,6.4-6.2-11,2.9-.6Z"/>
      <path class="cls-7" d="M48,167.6h61.1l1.8-49.8H46.2l1.8,49.8Z"/>
      <path class="cls-2" d="M53.4,120.9c0,1-1.2,1.7-2.6,1.7s-2.6-.8-2.6-1.7,1.2-1.7,2.6-1.7,2.6.8,2.6,1.7Z"/>
      <path class="cls-2" d="M61.8,164.5l-.6-21.5h-9.9l1.4,21.1,9.2.3h0ZM60.4,143.9l.6,19.8-7.6-.3-1.3-19.5h8.2Z"/>
      <path class="cls-2" d="M54.1,146l5.4.3-.4,1.9-4.7-.5-.3-1.7Z"/>
      <path class="cls-2" d="M54.4,150.5l5.4.3-.4,1.9-4.8-.5-.3-1.7Z"/>
      <path class="cls-2" d="M54.4,155.2l5.4.3-.4,1.9-4.8-.5-.3-1.7Z"/>
      <path class="cls-2" d="M48.9,128.5l14.7-.7v4.6l-14.7-.7v-3.1Z"/>
      <path class="cls-2" d="M53,138.5c0,.6-.2,1.1-.5,1.1s-.5-.5-.5-1.1.2-1.1.5-1.1.5.5.5,1.1Z"/>
      <path class="cls-2" d="M57.4,138.5c0,.6-.2,1.1-.5,1.1s-.5-.5-.5-1.1.2-1.1.5-1.1.5.5.5,1.1Z"/>
      <path class="cls-2" d="M61.6,138.5c0,.6-.2,1.1-.5,1.1s-.5-.5-.5-1.1.2-1.1.5-1.1.5.5.5,1.1Z"/>
      <path class="cls-2" d="M50,141.1h13.7l-.3-5.5h-14.5l1.1,5.5ZM62.8,140.3h-12.1l-.8-3.9h12.7l.2,3.9Z"/>
      <path class="cls-2" d="M66.1,119.1h.8s-.9,47.6-.9,47.6h-.8s.9-47.6.9-47.6Z"/>
      <path class="cls-2" d="M75.2,159l26.5-.8,1.3-18.9-27.4-1.3-.4,21.1h0ZM100.9,157.4l-24.9.8.4-19.4,25.7,1.2-1.2,17.4Z"/>
      <path class="cls-2" d="M88.7,156.5c5.8,0,10.5-3.7,10.5-8.3s-4.7-8.3-10.5-8.3-10.5,3.7-10.5,8.3,4.7,8.3,10.5,8.3ZM88.7,140.7c5.3,0,9.7,3.4,9.7,7.5s-4.3,7.5-9.7,7.5-9.7-3.4-9.7-7.5,4.3-7.5,9.7-7.5Z"/>
      <path class="cls-2" d="M100,141.2c0,.5.2.9.5.9s.5-.4.5-.9-.2-.9-.5-.9-.5.4-.5.9Z"/>
      <path class="cls-2" d="M77,140.3c0,.5.2.9.5.9s.5-.4.5-.9-.2-.9-.5-.9-.5.4-.5.9Z"/>
      <path class="cls-2" d="M77,156.3c0,.5.2.9.5.9s.5-.4.5-.9-.2-.9-.5-.9-.5.4-.5.9Z"/>
      <path class="cls-2" d="M99.2,156.1c0,.5.2.9.5.9s.5-.4.5-.9-.2-.9-.5-.9-.5.4-.5.9Z"/>
      <path class="cls-4" d="M54.3,119.1l8.7-2.5,19-3.2,10.9-1.9-9.4-12.2.8-.4-.5-5.6-5.8-1-.8,7.9-3.9-7.9h-7.9v6l1.1.3c-2.7,2-8.6,7.6-12,20.5h0Z"/>
      <path class="cls-2" d="M65.2,104l.8.2-2.6,12.5-.8-.2,2.6-12.5Z"/>
      <path class="cls-2" d="M71.9,100.5v-.6c0,0-.5-3.9,1.4-6.7l-.7-.5c-1.7,2.4-1.7,5.4-1.7,6.7l-5.7-1.5-.2.8,6.8,1.9Z"/>
      <path class="cls-2" d="M78.6,93.2c1.6,2.1,1.9,5.1,2,6.3l3.6-1,.2.8h-.3c0,0,11.7,14.8,11.7,14.8l-.6.5-11.9-15-3.4.9v-.5s0-3.9-1.8-6.3l.7-.5h0Z"/>
      <path class="cls-5" d="M82.8,120.5c2.3-2.2,2.4-5.5-.8-7.2l-19,3.2-8.7,2.5,28.4,1.4h0Z"/>
      <path class="cls-3" d="M82.8,120.5c.8,2.6,2.4,3.9,5.6.5v8.9l12.7-1.1s2-12.4-5.4-17.9l-2.8.5-10.9,1.9c0,1.9,0,5,.8,7.2Z"/>
      <path class="cls-2" d="M91.7,129.8c0-.4,1.6-10.9-2.9-13.2l-.4.7c4,2,2.4,12.2,2.4,12.3h.8c0,.1,0,.1,0,.1Z"/>
      <path class="cls-2" d="M95.2,129.4c0-.5,1.2-12.6-3.9-14.4l-.3.8c4.5,1.6,3.4,13.4,3.4,13.6h.8Z"/>
      <path class="cls-2" d="M98.6,129.1c0-.6.2-13.9-4.7-15.7l-.3.8c4.3,1.6,4.2,14.8,4.2,14.9h.8Z"/>
      <path class="cls-6" d="M64.1,113.8l.9,2.4-10.6,4.1s-5.6-9.7,9.6-6.5h0Z"/>
    </g>
  </g>
</svg>