<?xml version="1.0" encoding="utf-8"?>
<!-- Generator: Adobe Illustrator 28.3.0, SVG Export Plug-In . SVG Version: 6.00 Build 0)  -->
<svg version="1.1" id="Capa_2_00000059312205173861198370000006522504052701585832_"
	 xmlns="http://www.w3.org/2000/svg" xmlns:xlink="http://www.w3.org/1999/xlink" x="0px" y="0px" viewBox="0 0 152 152"
	 style="enable-background:new 0 0 152 152;" xml:space="preserve">
<style type="text/css">
	.st0{fill:none;}
	.st1{fill:url(#SVGID_1_);}
	.st2{fill:url(#SVGID_00000170962051728109948080000016598834355997803913_);}
</style>
<g id="Capa_1-2">
	<g>
		<rect class="st0" width="152" height="152"/>
		<g>
			
				<linearGradient id="SVGID_1_" gradientUnits="userSpaceOnUse" x1="38.1552" y1="-203.094" x2="78.7352" y2="-168.554" gradientTransform="matrix(1 0 0 -0.6 0 -22.07)">
				<stop  offset="0" style="stop-color:#000098"/>
				<stop  offset="1" style="stop-color:#0066FF"/>
			</linearGradient>
			<path class="st1" d="M101.4,120H54.5c-6.9,0-9.5-5.1-9.5-11.4V49.1c0-9.1,8.3-12.5,14.6-6.3l48.3,61.4
				C113.6,111.6,108.5,120,101.4,120L101.4,120z"/>
			
				<linearGradient id="SVGID_00000132056700454947408470000005732166237822286783_" gradientUnits="userSpaceOnUse" x1="37.7493" y1="734.0496" x2="85.0393" y2="658.5295" gradientTransform="matrix(1 0 0 1 0 -631)">
				<stop  offset="0" style="stop-color:#984EFF"/>
				<stop  offset="1" style="stop-color:#00FFCB"/>
			</linearGradient>
			<path style="fill:url(#SVGID_00000132056700454947408470000005732166237822286783_);" d="M97.2,32H56.9C50.3,32,45,37.6,45,44.5
				v65.2c0,10,7.6,13.7,13.5,6.9l44.7-67.3C108.5,41.2,103.8,32,97.2,32L97.2,32z"/>
		</g>
	</g>
</g>
</svg>
