<?xml version="1.0" encoding="UTF-8"?>
<svg id="Capa_2" data-name="Capa 2" xmlns="http://www.w3.org/2000/svg" xmlns:xlink="http://www.w3.org/1999/xlink" version="1.1" viewBox="0 0 526 161">
  <defs>
    <style>
      .cls-1 {
        fill: none;
      }

      .cls-1, .cls-2, .cls-3, .cls-4 {
        stroke-width: 0px;
      }

      .cls-2 {
        fill: #000;
      }

      .cls-3 {
        fill: url(#Degradado_sin_nombre_2);
      }

      .cls-4 {
        fill: url(#Degradado_sin_nombre);
      }
    </style>
    <linearGradient id="Degradado_sin_nombre" data-name="Degradado sin nombre" x1="3.6" y1="1353.3" x2="27.4" y2="1333.1" gradientTransform="translate(0 -720) scale(1 .6)" gradientUnits="userSpaceOnUse">
      <stop offset="0" stop-color="#000098"/>
      <stop offset="1" stop-color="#06f"/>
    </linearGradient>
    <linearGradient id="Degradado_sin_nombre_2" data-name="Degradado sin nombre 2" x1="3.9" y1="-1168.2" x2="31.6" y2="-1124.1" gradientTransform="translate(0 -1074.5) scale(1 -1)" gradientUnits="userSpaceOnUse">
      <stop offset="0" stop-color="#984eff"/>
      <stop offset="1" stop-color="#00ffcb"/>
    </linearGradient>
  </defs>
  <g id="Capa_1-2" data-name="Capa 1-2">
    <g>
      <rect class="cls-1" width="526" height="161"/>
      <g>
        <g>
          <path class="cls-2" d="M64.4,60h9.5v22.8l9.5-12.6h11.7l-12.9,15.6,13.1,15.5h-11.8l-9.5-13.1v13.1h-9.6v-41.3Z"/>
          <path class="cls-2" d="M111.7,101.7c-9.2,0-16.1-6.1-16.1-16s7.1-16,16.2-16,16.2,6.1,16.2,16-7.2,16-16.3,16ZM111.7,93.4c3.4,0,6.6-2.5,6.6-7.8s-3.1-7.8-6.5-7.8-6.5,2.4-6.5,7.8,2.8,7.8,6.3,7.8Z"/>
          <path class="cls-2" d="M174.5,84.4c0-4.1-2.4-6.3-6-6.3s-6,2.2-6,6.3v16.9h-9.5v-16.9c0-4.1-2.4-6.3-6-6.3s-6,2.2-6,6.3v16.9h-9.5v-31.1h9.5v3.9c1.8-2.5,5-4.2,9.1-4.2s8.5,2.1,10.6,5.8c2.1-3.3,6-5.8,10.5-5.8,7.7,0,12.6,4.9,12.6,13.3v18.2h-9.5v-16.9Z"/>
          <path class="cls-2" d="M232.2,84.4c0-4.1-2.4-6.3-6-6.3s-6,2.2-6,6.3v16.9h-9.5v-16.9c0-4.1-2.4-6.3-6-6.3s-6,2.2-6,6.3v16.9h-9.5v-31.1h9.5v3.9c1.8-2.5,5-4.2,9.1-4.2s8.5,2.1,10.6,5.8c2.1-3.3,6-5.8,10.5-5.8,7.7,0,12.6,4.9,12.6,13.3v18.2h-9.5v-16.9h0Z"/>
          <path class="cls-2" d="M277.7,101.3h-9.5v-4.2c-1.9,2.6-5.2,4.6-9.5,4.6-7.2,0-12-4.9-12-13.3v-18.2h9.5v16.9c0,4.2,2.4,6.6,6,6.6s6-2.4,6-6.6v-16.9h9.5v31.1h0Z"/>
          <path class="cls-2" d="M304.7,84.4c0-4.2-2.4-6.6-6-6.6s-6,2.4-6,6.6v16.9h-9.5v-31.1h9.5v4.1c1.9-2.6,5.2-4.4,9.5-4.4,7.2,0,12,4.9,12,13.3v18.2h-9.5v-16.9h0Z"/>
        </g>
        <g>
          <path class="cls-4" d="M41.1,103.6H13.7c-4,0-5.6-3-5.6-6.7v-34.8c0-5.4,4.9-7.3,8.5-3.7l28.2,35.9c3.3,4.3.3,9.2-3.8,9.2h0Z"/>
          <path class="cls-3" d="M38.6,52.2H15.1c-3.8,0-7,3.3-7,7.3v38.2c0,5.8,4.4,8,7.9,4l26.1-39.4c3.1-4.7.3-10.1-3.5-10.1h0Z"/>
        </g>
      </g>
    </g>
  </g>
</svg>