<?xml version="1.0" encoding="utf-8"?>
<!-- Generator: Adobe Illustrator 28.3.0, SVG Export Plug-In . SVG Version: 6.00 Build 0)  -->
<svg version="1.1" id="Capa_2_00000044879610974906546170000016438885019534247854_"
	 xmlns="http://www.w3.org/2000/svg" xmlns:xlink="http://www.w3.org/1999/xlink" x="0px" y="0px" viewBox="0 0 526 161"
	 style="enable-background:new 0 0 526 161;" xml:space="preserve">
<style type="text/css">
	.st0{fill:none;}
	.st1{fill:url(#SVGID_1_);}
	.st2{fill:url(#SVGID_00000103255870289016262010000008631132934609880995_);}
</style>
<g id="Capa_1-2">
	<g>
		<rect class="st0" width="526" height="161"/>
		<g>
			<g>
				<path d="M124,54.8h13.7v32.8l13.6-18.2h16.9l-18.6,22.5l18.8,22.3h-17l-13.6-18.8v18.8H124C124,114.2,124,54.8,124,54.8z"/>
				<path d="M192,114.8c-13.2,0-23.1-8.8-23.1-23s10.2-23,23.3-23s23.3,8.8,23.3,23S205.1,114.8,192,114.8z M192,102.9
					c4.9,0,9.5-3.6,9.5-11.2s-4.5-11.2-9.3-11.2s-9.3,3.5-9.3,11.2S187,102.9,192,102.9z"/>
				<path d="M282.4,89.9c0-5.9-3.4-9.1-8.6-9.1s-8.6,3.2-8.6,9.1v24.3h-13.6V89.9c0-5.9-3.4-9.1-8.6-9.1s-8.6,3.2-8.6,9.1v24.3
					h-13.7V69.4h13.7V75c2.6-3.6,7.2-6.1,13.1-6.1c6.7,0,12.2,3,15.2,8.3c3-4.7,8.6-8.3,15.1-8.3c11.1,0,18.2,7.1,18.2,19.1v26.2
					h-13.6V89.9z"/>
				<path d="M365.4,89.9c0-5.9-3.4-9.1-8.6-9.1s-8.6,3.2-8.6,9.1v24.3h-13.6V89.9c0-5.9-3.4-9.1-8.6-9.1s-8.6,3.2-8.6,9.1v24.3
					h-13.7V69.4h13.7V75c2.6-3.6,7.2-6.1,13.1-6.1c6.7,0,12.2,3,15.2,8.3c3-4.7,8.6-8.3,15.1-8.3C371.9,68.9,379,76,379,88v26.2
					h-13.6L365.4,89.9L365.4,89.9z"/>
				<path d="M430.9,114.2h-13.7v-6.1c-2.7,3.8-7.5,6.6-13.6,6.6c-10.4,0-17.3-7.1-17.3-19.1V69.4h13.6v24.3c0,6.1,3.5,9.5,8.6,9.5
					s8.7-3.4,8.7-9.5V69.4h13.7L430.9,114.2L430.9,114.2z"/>
				<path d="M469.7,89.9c0-6.1-3.4-9.5-8.6-9.5s-8.6,3.4-8.6,9.5v24.3h-13.7V69.4h13.7v5.9c2.7-3.8,7.5-6.4,13.6-6.4
					c10.4,0,17.3,7.1,17.3,19.1v26.2h-13.6V89.9z"/>
			</g>
			<g>
				
					<linearGradient id="SVGID_1_" gradientUnits="userSpaceOnUse" x1="36.5508" y1="-398.0531" x2="70.7108" y2="-368.9831" gradientTransform="matrix(1 0 0 -0.6 0 -137.97)">
					<stop  offset="0" style="stop-color:#000098"/>
					<stop  offset="1" style="stop-color:#0066FF"/>
				</linearGradient>
				<path class="st1" d="M90.5,117.5H51c-5.8,0-8-4.3-8-9.6V57.8c0-7.7,7-10.5,12.3-5.3l40.6,51.7
					C100.7,110.4,96.4,117.5,90.5,117.5L90.5,117.5z"/>
				
					<linearGradient id="SVGID_00000038379825669296265550000006773408350224760482_" gradientUnits="userSpaceOnUse" x1="36.8971" y1="1339.8081" x2="76.6971" y2="1276.2482" gradientTransform="matrix(1 0 0 1 0 -1236.54)">
					<stop  offset="0" style="stop-color:#984EFF"/>
					<stop  offset="1" style="stop-color:#00FFCB"/>
				</linearGradient>
				<path style="fill:url(#SVGID_00000038379825669296265550000006773408350224760482_);" d="M86.9,43.5H53c-5.5,0-10,4.7-10,10.5
					v54.9c0,8.4,6.4,11.5,11.4,5.8L92,58C96.4,51.3,92.5,43.5,86.9,43.5L86.9,43.5z"/>
			</g>
		</g>
	</g>
</g>
</svg>
