<?xml version="1.0" encoding="UTF-8"?>
<svg id="Capa_2" data-name="Capa 2" xmlns="http://www.w3.org/2000/svg" xmlns:xlink="http://www.w3.org/1999/xlink" viewBox="0 0 526 161">
  <defs>
    <style>
      .cls-1 {
        fill: url(#Degradado_sin_nombre_18);
      }

      .cls-1, .cls-2, .cls-3, .cls-4 {
        stroke-width: 0px;
      }

      .cls-2 {
        fill: url(#Degradado_sin_nombre_19);
      }

      .cls-3 {
        fill: #000;
      }

      .cls-4 {
        fill: #fff;
      }
    </style>
    <linearGradient id="Degradado_sin_nombre_19" data-name="Degradado sin nombre 19" x1="37.28" y1="254.91" x2="71.44" y2="225.84" gradientTransform="translate(0 -51.57) scale(1 .6)" gradientUnits="userSpaceOnUse">
      <stop offset="0" stop-color="#000098"/>
      <stop offset="1" stop-color="#06f"/>
    </linearGradient>
    <linearGradient id="Degradado_sin_nombre_18" data-name="Degradado sin nombre 18" x1="36.9" y1="-259.81" x2="76.7" y2="-196.25" gradientTransform="translate(0 -156.54) scale(1 -1)" gradientUnits="userSpaceOnUse">
      <stop offset="0" stop-color="#984eff"/>
      <stop offset="1" stop-color="#00ffcb"/>
    </linearGradient>
  </defs>
  <g id="Capa_1-2" data-name="Capa 1">
    <g>
      <rect class="cls-4" width="526" height="161"/>
      <g>
        <g>
          <path class="cls-3" d="M123.98,54.79h13.72v32.83l13.56-18.22h16.94l-18.62,22.47,18.78,22.31h-17.02l-13.64-18.78v18.78h-13.72v-59.39Z"/>
          <path class="cls-3" d="M191.96,114.83c-13.16,0-23.12-8.83-23.12-23.04s10.19-23.04,23.28-23.04,23.28,8.83,23.28,23.04-10.27,23.04-23.44,23.04ZM191.96,102.95c4.9,0,9.47-3.61,9.47-11.16s-4.49-11.16-9.31-11.16-9.31,3.53-9.31,11.16,4.17,11.16,9.15,11.16Z"/>
          <path class="cls-3" d="M282.41,89.87c0-5.86-3.37-9.07-8.59-9.07s-8.59,3.21-8.59,9.07v24.32h-13.64v-24.32c0-5.86-3.37-9.07-8.59-9.07s-8.59,3.21-8.59,9.07v24.32h-13.72v-44.79h13.72v5.62c2.65-3.61,7.22-6.1,13.08-6.1,6.74,0,12.2,2.97,15.25,8.35,2.97-4.74,8.59-8.35,15.09-8.35,11.08,0,18.22,7.06,18.22,19.1v26.17h-13.64v-24.32Z"/>
          <path class="cls-3" d="M365.4,89.87c0-5.86-3.37-9.07-8.59-9.07s-8.59,3.21-8.59,9.07v24.32h-13.64v-24.32c0-5.86-3.37-9.07-8.59-9.07s-8.59,3.21-8.59,9.07v24.32h-13.72v-44.79h13.72v5.62c2.65-3.61,7.22-6.1,13.08-6.1,6.74,0,12.2,2.97,15.25,8.35,2.97-4.74,8.59-8.35,15.09-8.35,11.08,0,18.22,7.06,18.22,19.1v26.17h-13.64v-24.32Z"/>
          <path class="cls-3" d="M430.89,114.19h-13.72v-6.1c-2.73,3.85-7.54,6.58-13.56,6.58-10.35,0-17.34-7.14-17.34-19.1v-26.17h13.64v24.32c0,6.1,3.45,9.47,8.59,9.47s8.67-3.37,8.67-9.47v-24.32h13.72v44.79Z"/>
          <path class="cls-3" d="M469.66,89.87c0-6.1-3.37-9.47-8.59-9.47s-8.59,3.37-8.59,9.47v24.32h-13.72v-44.79h13.72v5.94c2.73-3.77,7.54-6.42,13.56-6.42,10.35,0,17.26,7.06,17.26,19.1v26.17h-13.64v-24.32Z"/>
        </g>
        <g>
          <path class="cls-2" d="M90.49,117.54h-39.46c-5.83,0-8.03-4.28-8.03-9.57v-50.13c0-7.67,6.95-10.52,12.3-5.3l40.63,51.71c4.81,6.17.52,13.28-5.44,13.28Z"/>
          <path class="cls-1" d="M86.95,43.46h-33.97c-5.51,0-9.98,4.69-9.98,10.48v54.88c0,8.4,6.43,11.52,11.38,5.8l37.61-56.62c4.45-6.75.48-14.54-5.03-14.54Z"/>
        </g>
      </g>
    </g>
  </g>
</svg>