<svg width="199" height="199" viewBox="0 0 199 199" fill="none" xmlns="http://www.w3.org/2000/svg">
<path d="M169.588 73.2786C184.425 86.5729 184.705 109.718 170.194 123.367L159.375 133.543C156.066 136.656 153.414 140.4 151.576 144.556L145.568 158.139C137.509 176.358 115.584 183.776 98.1181 174.193L85.0972 167.048C81.1139 164.863 76.733 163.498 72.2132 163.034L57.4386 161.517C37.6207 159.483 23.79 140.923 27.5072 121.351L30.2784 106.76C31.1262 102.296 31.0707 97.7074 30.1152 93.2655L26.9919 78.7454C22.8023 59.2689 36.1801 40.3797 55.943 37.8669L70.6766 35.9935C75.1838 35.4204 79.5305 33.9497 83.4597 31.6684L96.304 24.2109C113.533 14.2079 135.631 21.0938 144.128 39.1129L150.463 52.5465C152.401 56.656 155.143 60.3355 158.526 63.3674L169.588 73.2786Z" fill="#ECFCCB"/>
<path d="M19.2299 102.357L15.3281 28.1625L77.3043 26.4883L75.4744 98.7193L19.2299 102.357Z" fill="#EDDED1"/>
<path d="M22.2528 97.9225L22.2367 97.4396L20.439 33.8853L73.6121 30.7462V96.6186L22.2528 97.9225ZM21.4386 34.8029L23.196 96.9164L72.6367 95.6608V31.7845L21.4386 34.8109V34.8029Z" fill="#B2BD66"/>
<path d="M25.6226 44.2844L37.2149 41.9663L37.9968 52.7599L26.0095 53.5487L25.6226 44.2844Z" fill="#B2BD66"/>
<path d="M27.3396 59.3117L38.9319 56.9937L39.7058 67.7953L27.7265 68.5841L27.3396 59.3117Z" fill="#B2BD66"/>
<path d="M29.0566 63.4811L30.7737 62.0323L32.4908 65.3243L36.1588 58.3057L38.1257 59.022L32.4827 66.7007L29.0566 63.4811Z" fill="#EDDED1"/>
<path d="M28.1538 74.3471L39.7461 72.0291L40.52 82.8307L28.5408 83.6195L28.1538 74.3471Z" fill="#B2BD66"/>
<path d="M60.2378 44.4648L41.0688 45.8401L41.2786 48.7543L60.4476 47.3791L60.2378 44.4648Z" fill="#4E2957"/>
<path d="M66.9603 60.7115L42.4373 61.3313L42.5113 64.2521L67.0344 63.6323L66.9603 60.7115Z" fill="#4E2957"/>
<path d="M57.7715 76.0776H42.479V78.9994H57.7715V76.0776Z" fill="#4E2957"/>
<path d="M113.412 113.465L112.073 104.088C112.073 104.088 82.9152 105.915 80.2308 97.5121C77.5463 89.109 98.1674 35.8815 120.731 24.1864L141.352 30.2794L148.43 45.7495L147.213 67.554C147.213 67.554 160.023 61.3402 161.974 66.9423C163.924 72.5443 158.072 82.2916 142.457 78.6373C142.457 78.6373 143.924 100.442 141.844 100.925C139.772 101.416 123.303 103.967 123.303 103.967L120.739 113.465H113.42H113.412Z" fill="#FFABE7"/>
<path d="M140.127 72.2867L145.004 62.6602C145.004 62.6602 129.268 65.582 145.004 46.337L134.879 32.8148C134.879 32.8148 123.722 47.3109 122.037 46.0955C120.36 44.8801 125.729 34.0382 125.729 34.0382C125.729 34.0382 109.623 51.6976 107.188 48.8965C104.745 46.0955 114.016 34.5212 114.016 34.5212C114.016 34.5212 94.1286 48.4056 91.0813 44.2684C88.0341 40.1232 121.336 13.3284 121.336 13.3284L153.783 37.6925C153.783 37.6925 146.101 56.8167 151.59 70.8218L140.119 72.2867H140.127Z" fill="#F66057"/>
<path d="M110.445 70.8299C110.445 70.8299 110.38 70.8299 110.34 70.8299C109.719 70.8057 109.228 70.5321 108.921 70.0491C107.696 68.1415 109.679 63.1673 109.913 62.6039L110.816 62.9741C110.018 64.9139 109.026 68.4072 109.744 69.526C109.881 69.7433 110.082 69.8479 110.38 69.856C112.549 69.9043 113.629 65.2681 113.879 63.4571L114.846 63.5859C114.742 64.3344 113.758 70.8299 110.445 70.8299Z" fill="#4E2957"/>
<path d="M118.418 72.1097C118.418 72.1097 118.353 72.1097 118.313 72.1097C117.692 72.0855 117.201 71.8119 116.894 71.3289C115.669 69.4213 117.652 64.4471 117.886 63.8837L118.789 64.2539C117.991 66.1937 116.999 69.6869 117.716 70.8057C117.854 71.0231 118.055 71.1277 118.353 71.1357C118.369 71.1357 118.394 71.1357 118.41 71.1357C120.514 71.1357 121.61 66.5237 121.852 64.7369L122.819 64.8656C122.715 65.6142 121.731 72.1097 118.418 72.1097Z" fill="#4E2957"/>
<path d="M132.316 86.5415C130.461 93.3911 119.514 92.9242 114.371 92.3045L116.983 85.7527L114.371 82.1145C118.539 81.7523 126.181 79.8769 126.713 70.9587C126.713 70.9587 134.758 77.5347 132.316 86.5495V86.5415Z" fill="#EDDED1"/>
<path d="M127.019 70.5724L126.963 70.5241C127.753 70.4677 128.664 70.7414 129.688 71.3612L130.196 70.5241C128.656 69.5904 127.277 69.3087 126.1 69.6789C124.673 70.1216 124.093 71.3692 124.069 71.4175L124.956 71.82C124.956 71.82 125.343 71.0151 126.237 70.669L126.221 70.9104C126.028 74.0897 124.883 76.6252 122.803 78.4362C119.143 81.6316 113.597 81.7121 112.114 81.6799L111.154 76.3515L110.485 77.0679C105.286 82.6618 99.7314 79.6677 98.3771 78.7984L108.002 53.2108L107.091 52.8647L97.2001 79.1525L97.4903 79.3698C97.5629 79.4181 104.262 84.3119 110.526 78.404L111.283 82.6055L111.662 82.6377C111.953 82.6618 118.885 83.1448 123.44 79.1767C125.504 77.3818 126.729 74.959 127.1 71.9729C127.971 72.8341 129.47 74.5083 130.631 76.762L122.07 83.7967L131.848 79.893C132.364 81.8409 132.493 84.0463 131.848 86.4126C129.559 94.8801 111.977 91.4593 111.799 91.4191L111.364 91.3305L109.228 98.2848C107.253 97.4075 100.215 94.5743 97.0228 97.1419C95.4588 98.3975 95.0638 100.699 95.8539 103.983L96.8051 103.758C96.1118 100.877 96.394 98.9046 97.6354 97.9065C100.812 95.355 109.228 99.3634 109.316 99.4036L109.824 99.6531L112.033 92.4654C114.911 92.9806 130.437 95.3309 132.783 86.6702C135.274 77.4622 127.092 70.6448 127.011 70.5724H127.019Z" fill="#4E2957"/>
<path d="M115.9 48.8442L103.948 51.6455L105.062 56.3863L117.015 53.5849L115.9 48.8442Z" fill="#F66057"/>
<path d="M117.182 55.0048L115.745 59.6581L125.99 62.8129L127.427 58.1596L117.182 55.0048Z" fill="#F66057"/>
<path d="M150.978 77.7198L150.115 77.261L150.543 77.4864L150.107 77.261C150.172 77.1403 150.688 76.0939 149.89 75.6593C148.995 75.1763 147.753 76.5285 147.745 76.5446L146.963 75.9651C147.068 75.7961 149.567 71.8038 153.517 71.8038C153.558 71.8038 153.606 71.8038 153.646 71.8038C154.984 71.836 155.936 72.2385 156.452 73.0112C157.258 74.1944 156.694 75.7478 156.669 75.8122L155.758 75.4741C155.758 75.4741 156.17 74.3151 155.646 73.5585C155.307 73.0675 154.63 72.8099 153.622 72.7858C151.921 72.7375 150.438 73.6631 149.414 74.5888C149.72 74.5807 150.035 74.6451 150.349 74.8141C151.687 75.5305 151.341 77.0356 150.97 77.7278L150.978 77.7198Z" fill="#4E2957"/>
<path d="M73.177 103.935C69.7025 98.4055 58.7631 81.6637 55.3935 84.4728C51.0725 88.0707 69.372 104.329 69.372 104.329C69.372 104.329 58.2714 109.69 59.6096 114.077C60.9478 118.463 66.9294 114.809 66.9294 114.809L68.0177 119.502L76.6917 116.886L79.4971 102.148C79.4971 102.148 76.2242 102.857 73.177 103.951V103.935Z" fill="#FFABE7"/>
<path d="M79.3924 101.657C78.3282 101.891 68.9931 103.983 67.6952 106.736C67.4614 107.227 67.4695 107.734 67.7194 108.201C68.0419 108.821 68.5659 109.231 69.2672 109.416C69.9121 109.585 70.678 109.529 71.4599 109.36L69.3317 111.582L65.6073 106.865L64.8415 107.469L68.6545 112.298L67.8968 113.095L60.7947 110.213L60.4238 111.115L67.1712 113.851L66.5828 114.471L67.2841 115.147L73.4027 108.748C75.2004 108.008 76.724 107.01 76.8369 106.937L76.2968 106.124C75.0472 106.945 71.3954 108.974 69.509 108.491C69.0818 108.378 68.7755 108.145 68.582 107.774C68.4772 107.573 68.4772 107.388 68.582 107.171C69.4365 105.36 75.7405 103.533 78.8764 102.792L76.2081 116.797L77.1674 116.982L80.1098 101.52L79.3924 101.673V101.657Z" fill="#4E2957"/>
<path d="M67.0502 125.522L65.2202 117.723L78.5216 113.465V124.548L67.0502 125.522Z" fill="#EDDED1"/>
<path d="M123.658 114.68C123.658 114.68 124.182 114.922 125.101 115.413L106.575 149.999L109.526 116.033L111.703 114.552L110.235 108.579L125.246 107.976L123.658 114.68Z" fill="#EDDED1"/>
<path d="M112.984 109.626H120.852L116.918 114.801L115.919 146.651L102.98 145.741L114.363 114.616L112.984 109.626Z" fill="#4E2957"/>
<path d="M154.533 147.448C148.712 129.08 130.397 118.222 125.109 115.421L109.534 141.363V116.049L82.4314 134.545L80.0049 117.739L64.8656 121.264C64.8656 121.264 62.0522 140.268 73.0479 145.226C83.8583 150.112 104.181 127.285 104.754 126.633L89.6383 158.909C109.155 177.913 136.483 158.909 136.483 158.909L136.008 157.163C151.76 157.332 154.541 147.456 154.541 147.456L154.533 147.448ZM132.388 143.906L126.721 123.083L143.674 143.061L132.396 143.906H132.388Z" fill="#6D75FE"/>
<path d="M108.236 142.24L104.197 121.659L106.97 120.765L105.487 119.912L105.971 119.067L109.365 121.015L105.318 122.319L109.195 142.055L108.236 142.24Z" fill="#4E2957"/>
<path d="M111.485 142.2L110.703 141.612L123.875 124.154L121.812 121.949L125.431 120.725V116.266H126.407V121.425L123.561 122.391L125.149 124.081L111.485 142.2Z" fill="#4E2957"/>
<path d="M127.183 122.958L126.241 123.214L136 159.026L136.941 158.77L127.183 122.958Z" fill="#4E2957"/>
</svg>
