<?xml version="1.0" encoding="UTF-8"?>
<svg xmlns="http://www.w3.org/2000/svg" version="1.1" viewBox="0 0 199 199">
  <defs>
    <style>
      .cls-1 {
        fill: #edded1;
      }

      .cls-2 {
        fill: #f66057;
      }

      .cls-3 {
        fill: #b2bd66;
      }

      .cls-4 {
        fill: #6d75fe;
      }

      .cls-5 {
        fill: #4e2957;
      }

      .cls-6 {
        fill: #ffabe7;
      }
    </style>
  </defs>
  <!-- Generator: Adobe Illustrator 28.6.0, SVG Export Plug-In . SVG Version: 1.2.0 Build 709)  -->
  <g>
    <g id="Capa_1">
      <path class="cls-1" d="M19.2,102.4l-3.9-74.2,62-1.7-1.8,72.2-56.2,3.6Z"/>
      <path class="cls-3" d="M22.3,97.9v-.5s-1.8-63.6-1.8-63.6l53.2-3.1v65.9l-51.4,1.3ZM21.4,34.8l1.8,62.1,49.4-1.3V31.8l-51.2,3h0Z"/>
      <path class="cls-3" d="M25.6,44.3l11.6-2.3.8,10.8-12,.8-.4-9.3Z"/>
      <path class="cls-3" d="M27.3,59.3l11.6-2.3.8,10.8-12,.8-.4-9.3Z"/>
      <path class="cls-1" d="M29.1,63.5l1.7-1.4,1.7,3.3,3.7-7,2,.7-5.6,7.7-3.4-3.2Z"/>
      <path class="cls-3" d="M28.2,74.3l11.6-2.3.8,10.8-12,.8-.4-9.3Z"/>
      <path class="cls-5" d="M60.2,44.5l-19.2,1.4.2,2.9,19.2-1.4-.2-2.9Z"/>
      <path class="cls-5" d="M67,60.7l-24.5.6v2.9c0,0,24.6-.6,24.6-.6v-2.9Z"/>
      <path class="cls-5" d="M57.8,76.1h-15.3v2.9h15.3v-2.9Z"/>
      <path class="cls-6" d="M113.4,113.5l-1.3-9.4s-29.2,1.8-31.8-6.6c-2.7-8.4,17.9-61.6,40.5-73.3l20.6,6.1,7.1,15.5-1.2,21.8s12.8-6.2,14.8-.6c1.9,5.6-3.9,15.3-19.5,11.7,0,0,1.5,21.8-.6,22.3-2.1.5-18.5,3-18.5,3l-2.6,9.5h-7.3Z"/>
      <path class="cls-2" d="M140.1,72.3l4.9-9.6s-15.7,2.9,0-16.3l-10.1-13.5s-11.2,14.5-12.8,13.3c-1.7-1.2,3.7-12.1,3.7-12.1,0,0-16.1,17.7-18.5,14.9-2.4-2.8,6.8-14.4,6.8-14.4,0,0-19.9,13.9-22.9,9.7-3-4.1,30.3-30.9,30.3-30.9l32.4,24.4s-7.7,19.1-2.2,33.1l-11.5,1.5h0Z"/>
      <path class="cls-5" d="M110.4,70.8h-.1c-.6,0-1.1-.3-1.4-.8-1.2-1.9.8-6.9,1-7.4l.9.4c-.8,1.9-1.8,5.4-1.1,6.6.1.2.3.3.6.3,2.2,0,3.2-4.6,3.5-6.4h1c-.1.9-1.1,7.4-4.4,7.4Z"/>
      <path class="cls-5" d="M118.4,72.1h-.1c-.6,0-1.1-.3-1.4-.8-1.2-1.9.8-6.9,1-7.4l.9.4c-.8,1.9-1.8,5.4-1.1,6.6.1.2.3.3.6.3h0c2.1,0,3.2-4.6,3.4-6.4h1c-.1.9-1.1,7.4-4.4,7.4Z"/>
      <path class="cls-1" d="M132.3,86.5c-1.9,6.8-12.8,6.4-17.9,5.8l2.6-6.6-2.6-3.6c4.2-.4,11.8-2.2,12.3-11.2,0,0,8,6.6,5.6,15.6h0Z"/>
      <path class="cls-5" d="M127,70.6h0c.8-.1,1.7.2,2.7.8l.5-.8c-1.5-.9-2.9-1.2-4.1-.8-1.4.4-2,1.7-2,1.7l.9.4s.4-.8,1.3-1.2v.2c-.2,3.2-1.4,5.7-3.4,7.5-3.7,3.2-9.2,3.3-10.7,3.2l-1-5.3-.7.7c-5.2,5.6-10.8,2.6-12.1,1.7l9.6-25.6-.9-.3-9.9,26.3.3.2c0,0,6.8,4.9,13-1l.8,4.2h.4c.3,0,7.2.5,11.8-3.4,2.1-1.8,3.3-4.2,3.7-7.2.9.9,2.4,2.5,3.5,4.8l-8.6,7,9.8-3.9c.5,1.9.6,4.2,0,6.5-2.3,8.5-19.9,5-20,5h-.4c0,0-2.1,6.9-2.1,6.9-2-.9-9-3.7-12.2-1.1-1.6,1.3-2,3.6-1.2,6.8l1-.2c-.7-2.9-.4-4.9.8-5.9,3.2-2.6,11.6,1.5,11.7,1.5l.5.2,2.2-7.2c2.9.5,18.4,2.9,20.8-5.8,2.5-9.2-5.7-16-5.8-16.1h0Z"/>
      <path class="cls-2" d="M115.9,48.8l-12,2.8,1.1,4.7,12-2.8-1.1-4.7Z"/>
      <path class="cls-2" d="M117.2,55l-1.4,4.7,10.2,3.2,1.4-4.7-10.2-3.2Z"/>
      <path class="cls-5" d="M151,77.7l-.9-.5.4.2-.4-.2c0-.1.6-1.2-.2-1.6-.9-.5-2.1.9-2.1.9l-.8-.6c.1-.2,2.6-4.2,6.6-4.2h.1c1.3,0,2.3.4,2.8,1.2.8,1.2.2,2.7.2,2.8l-.9-.3s.4-1.2-.1-1.9c-.3-.5-1-.7-2-.8-1.7,0-3.2.9-4.2,1.8.3,0,.6,0,.9.2,1.3.7,1,2.2.6,2.9h0Z"/>
      <path class="cls-6" d="M73.2,103.9c-3.5-5.5-14.4-22.3-17.8-19.5-4.3,3.6,14,19.9,14,19.9,0,0-11.1,5.4-9.8,9.7,1.3,4.4,7.3.7,7.3.7l1.1,4.7,8.7-2.6,2.8-14.7s-3.3.7-6.3,1.8h0Z"/>
      <path class="cls-5" d="M79.4,101.7c-1.1.2-10.4,2.3-11.7,5.1-.2.5-.2,1,0,1.5.3.6.8,1,1.5,1.2.6.2,1.4.1,2.2,0l-2.1,2.2-3.7-4.7-.8.6,3.8,4.8-.8.8-7.1-2.9-.4.9,6.7,2.7-.6.6.7.7,6.1-6.4c1.8-.7,3.3-1.7,3.4-1.8l-.5-.8c-1.2.8-4.9,2.8-6.8,2.4-.4-.1-.7-.3-.9-.7-.1-.2-.1-.4,0-.6.9-1.8,7.2-3.6,10.3-4.4l-2.7,14,1,.2,2.9-15.5-.7.2h0Z"/>
      <path class="cls-1" d="M67.1,125.5l-1.8-7.8,13.3-4.3v11.1l-11.5,1Z"/>
      <path class="cls-1" d="M123.7,114.7s.5.2,1.4.7l-18.5,34.6,3-34,2.2-1.5-1.5-6,15-.6-1.6,6.7Z"/>
      <path class="cls-5" d="M113,109.6h7.9l-3.9,5.2-1,31.8-12.9-.9,11.4-31.1-1.4-5Z"/>
      <path class="cls-4" d="M154.5,147.4c-5.8-18.4-24.1-29.2-29.4-32l-15.6,25.9v-25.3l-27.1,18.5-2.4-16.8-15.1,3.5s-2.8,19,8.2,24c10.8,4.9,31.1-17.9,31.7-18.6l-15.1,32.3c19.5,19,46.8,0,46.8,0l-.5-1.7c15.8.2,18.5-9.7,18.5-9.7h0ZM132.4,143.9l-5.7-20.8,17,20-11.3.8h0Z"/>
      <path class="cls-5" d="M108.2,142.2l-4-20.6,2.8-.9-1.5-.9.5-.8,3.4,1.9-4,1.3,3.9,19.7-1,.2Z"/>
      <path class="cls-5" d="M111.5,142.2l-.8-.6,13.2-17.5-2.1-2.2,3.6-1.2v-4.5h1v5.2l-2.8,1,1.6,1.7-13.7,18.1Z"/>
      <path class="cls-5" d="M127.2,123l-.9.3,9.8,35.8.9-.3-9.8-35.8Z"/>
    </g>
  </g>
</svg>